SplineFontDB: 3.2
FontName: Entity-ExtraBoldOblique
FullName: Entity ExtraBold Oblique
FamilyName: Entity
Weight: Bold
Copyright: Based on Geist Copyright 2024 The Geist Project Authors https:github.comvercelgeist-font.git
Version: 0.1
ItalicAngle: -10
UnderlinePosition: -125
UnderlineWidth: 50
Ascent: 800
Descent: 200
InvalidEm: 0
sfntRevision: 0x0000199a
LayerCount: 2
Layer: 0 0 "Back" 1
Layer: 1 0 "Fore" 0
XUID: [1021 1008 -1557834819 14375417]
StyleMap: 0x0040
FSType: 0
OS2Version: 4
OS2_WeightWidthSlopeOnly: 0
OS2_UseTypoMetrics: 1
CreationTime: 1728311655
ModificationTime: 1746831978
PfmFamily: 81
TTFWeight: 800
TTFWidth: 5
LineGap: 0
VLineGap: 0
Panose: 0 0 0 0 0 0 0 0 0 0
OS2TypoAscent: 1005
OS2TypoAOffset: 0
OS2TypoDescent: -295
OS2TypoDOffset: 0
OS2TypoLinegap: 0
OS2WinAscent: 1012
OS2WinAOffset: 0
OS2WinDescent: 262
OS2WinDOffset: 0
HheadAscent: 1005
HheadAOffset: 0
HheadDescent: -295
HheadDOffset: 0
OS2SubXSize: 650
OS2SubYSize: 600
OS2SubXOff: 0
OS2SubYOff: 75
OS2SupXSize: 650
OS2SupYSize: 600
OS2SupXOff: 0
OS2SupYOff: 350
OS2StrikeYSize: 50
OS2StrikeYPos: 323
OS2CapHeight: 710
OS2XHeight: 538
OS2Vendor: 'VRCL'
OS2CodePages: 20000097.00000000
OS2UnicodeRanges: a10002ff.5001e5fb.00000000.00000000
Lookup: 1 0 0 "'aalt' Access All Alternates in Latin lookup 0" { "'aalt' Access All Alternates in Latin lookup 0 subtable"  } ['aalt' ('DFLT' <'dflt' > 'latn' <'AZE ' 'CAT ' 'CRT ' 'KAZ ' 'MAH ' 'MOL ' 'NLD ' 'ROM ' 'TAT ' 'TRK ' 'dflt' > ) ]
Lookup: 3 0 0 "'aalt' Access All Alternates in Latin lookup 1" { "'aalt' Access All Alternates in Latin lookup 1 subtable"  } ['aalt' ('DFLT' <'dflt' > 'latn' <'AZE ' 'CAT ' 'CRT ' 'KAZ ' 'MAH ' 'MOL ' 'NLD ' 'ROM ' 'TAT ' 'TRK ' 'dflt' > ) ]

StartChar: .notdef
Encoding: 65536 -1 0
Width: 600
GlyphClass: 1
Flags: HMW
HStem: 0 36<95 510 95 565> 674 36<95 95 95 510>
VStem: 40 33<64 646 64 710> 532 33<64 646 646 646>
LayerCount: 2
Fore
SplineSet
-22.595703125 0 m 1
 102.595703125 710 l 1
 627.595703125 710 l 1
 502.404296875 0 l 1
 -22.595703125 0 l 1
151.248046875 674 m 1
 308.11328125 384 l 1
 566.248046875 674 l 1
 151.248046875 674 l 1
124.311523438 646 m 1
 21.6884765625 64 l 1
 282 355 l 1
 124.311523438 646 l 1
323 355 m 1
 480.688476562 64 l 1
 583.311523438 646 l 1
 323 355 l 1
38.751953125 36 m 1
 453.751953125 36 l 1
 297.88671875 326 l 1
 38.751953125 36 l 1
EndSplineSet
Validated: 1
EndChar

StartChar: A
Encoding: 65 65 1
Width: 750
GlyphClass: 2
Flags: HMW
HStem: 0 21G<18 18 18 196 553 553 553 732> 134 138<290 460 290 507 243 460> 690 20G<274 476 476 476>
VStem: 18 714<0 0>
AnchorPoint: "Anchor-3" 438.596 710 basechar 0
AnchorPoint: "Anchor-2" 669.404 0 basechar 0
AnchorPoint: "Anchor-0" 313.404 0 basechar 0
LayerCount: 2
Fore
SplineSet
-44.595703125 0 m 1
 336.595703125 710 l 1
 538.595703125 710 l 1
 669.404296875 0 l 1
 490.404296875 0 l 1
 468.03125 134 l 1
 204.03125 134 l 1
 133.404296875 0 l 1
 -44.595703125 0 l 1
275.365234375 272 m 1
 445.365234375 272 l 1
 405.446289062 522 l 1
 275.365234375 272 l 1
EndSplineSet
Validated: 1
Substitution2: "Single Substitution lookup 27 subtable" ordfeminine
Substitution2: "'aalt' Access All Alternates in Latin lookup 0 subtable" ordfeminine
EndChar

StartChar: Aacute
Encoding: 193 193 2
Width: 750
GlyphClass: 2
Flags: HMW
HStem: 0 21G<18 18 18 196 553 553 553 732> 134 138<290 460 290 507 243 460> 690 20G<274 476 476 476> 761 154<297 516 353 426>
VStem: 18 714<0 0>
AnchorPoint: "Anchor-3" 420.522 710 basechar 0
AnchorPoint: "Anchor-2" 651.33 0 basechar 0
AnchorPoint: "Anchor-0" 295.33 0 basechar 0
LayerCount: 2
Fore
SplineSet
350.515625 761 m 1
 433.669921875 915 l 1
 596.669921875 915 l 1
 479.515625 761 l 1
 350.515625 761 l 1
-62.669921875 0 m 1
 318.522460938 710 l 1
 520.522460938 710 l 1
 651.330078125 0 l 1
 472.330078125 0 l 1
 449.958007812 134 l 1
 185.958007812 134 l 1
 115.330078125 0 l 1
 -62.669921875 0 l 1
257.291015625 272 m 1
 427.291015625 272 l 1
 387.373046875 522 l 1
 257.291015625 272 l 1
EndSplineSet
Validated: 1
EndChar

StartChar: Abreve
Encoding: 258 258 3
Width: 750
GlyphClass: 2
Flags: HMW
HStem: 0 21G<18 18 18 196 553 553 553 732> 134 138<290 460 290 507 243 460> 690 20G<274 476 476 476> 760 89<357 395 357 424> 760 153<213 424>
VStem: 18 714<0 0>
AnchorPoint: "Anchor-3" 420.699 710 basechar 0
AnchorPoint: "Anchor-2" 651.507 0 basechar 0
AnchorPoint: "Anchor-0" 295.507 0 basechar 0
LayerCount: 2
Fore
SplineSet
429.515625 760 m 0xec
 332.515625 760 280.212890625 815 293.493164062 913 c 1xec
 390.493164062 913 l 1
 386.381835938 867 407.208007812 849 445.208007812 849 c 0xf4
 483.208007812 849 509.381835938 867 521.493164062 913 c 1
 618.493164062 913 l 1
 597.212890625 815 525.515625 760 429.515625 760 c 0xec
-62.4931640625 0 m 1
 318.69921875 710 l 1
 520.69921875 710 l 1
 651.506835938 0 l 1
 472.506835938 0 l 1
 450.134765625 134 l 1
 186.134765625 134 l 1
 115.506835938 0 l 1
 -62.4931640625 0 l 1
257.467773438 272 m 1
 427.467773438 272 l 1
 387.549804688 522 l 1
 257.467773438 272 l 1
EndSplineSet
Validated: 33
EndChar

StartChar: uni01CD
Encoding: 461 461 4
Width: 750
GlyphClass: 2
Flags: HMW
HStem: 0 21G<18 18 18 196 553 553 553 732> 134 138<290 460 290 507 243 460> 690 20G<274 476 476 476> 761 160<295 313 438 456 295 295>
VStem: 18 714<0 0>
AnchorPoint: "Anchor-3" 419.993 710 basechar 0
AnchorPoint: "Anchor-2" 650.802 0 basechar 0
AnchorPoint: "Anchor-0" 294.802 0 basechar 0
LayerCount: 2
Fore
SplineSet
278.198242188 921 m 1
 394.198242188 921 l 1
 441.505859375 832 l 1
 519.198242188 921 l 1
 635.198242188 921 l 1
 508.986328125 761 l 1
 347.986328125 761 l 1
 278.198242188 921 l 1
-63.1982421875 0 m 1
 317.993164062 710 l 1
 519.993164062 710 l 1
 650.801757812 0 l 1
 471.801757812 0 l 1
 449.4296875 134 l 1
 185.4296875 134 l 1
 114.801757812 0 l 1
 -63.1982421875 0 l 1
256.762695312 272 m 1
 426.762695312 272 l 1
 386.84375 522 l 1
 256.762695312 272 l 1
EndSplineSet
Validated: 1
EndChar

StartChar: Acircumflex
Encoding: 194 194 5
Width: 750
GlyphClass: 2
Flags: HMW
HStem: 0 21G<18 18 18 196 553 553 553 732> 134 138<290 460 290 507 243 460> 690 20G<274 476 476 476> 761 160<197 456 295 313 438 438 438 456 295 554>
VStem: 18 714<0 0>
AnchorPoint: "Anchor-3" 419.993 710 basechar 0
AnchorPoint: "Anchor-2" 650.802 0 basechar 0
AnchorPoint: "Anchor-0" 294.802 0 basechar 0
LayerCount: 2
Fore
SplineSet
249.986328125 761 m 1
 376.198242188 921 l 1
 537.198242188 921 l 1
 606.986328125 761 l 1
 490.986328125 761 l 1
 444.6796875 850 l 1
 365.986328125 761 l 1
 249.986328125 761 l 1
-63.1982421875 0 m 1
 317.993164062 710 l 1
 519.993164062 710 l 1
 650.801757812 0 l 1
 471.801757812 0 l 1
 449.4296875 134 l 1
 185.4296875 134 l 1
 114.801757812 0 l 1
 -63.1982421875 0 l 1
256.762695312 272 m 1
 426.762695312 272 l 1
 386.84375 522 l 1
 256.762695312 272 l 1
EndSplineSet
Validated: 1
EndChar

StartChar: Adieresis
Encoding: 196 196 6
Width: 750
GlyphClass: 2
Flags: HMW
HStem: 0 21G<18 18 18 196 553 553 553 732> 134 138<290 460 290 507 243 460> 690 20G<274 476 476 476> 767 128<181 342 181 342 409 571 181 409>
VStem: 181 161<767 895 767 895> 409 162<767 895 767 895>
AnchorPoint: "Anchor-3" 422.286 710 basechar 0
AnchorPoint: "Anchor-2" 653.094 0 basechar 0
AnchorPoint: "Anchor-0" 297.094 0 basechar 0
LayerCount: 2
Fore
SplineSet
237.336914062 767 m 1
 259.90625 895 l 1
 420.90625 895 l 1
 398.336914062 767 l 1
 237.336914062 767 l 1
465.336914062 767 m 1
 487.90625 895 l 1
 649.90625 895 l 1
 627.336914062 767 l 1
 465.336914062 767 l 1
-60.90625 0 m 1
 320.286132812 710 l 1
 522.286132812 710 l 1
 653.09375 0 l 1
 474.09375 0 l 1
 451.721679688 134 l 1
 187.721679688 134 l 1
 117.09375 0 l 1
 -60.90625 0 l 1
259.0546875 272 m 1
 429.0546875 272 l 1
 389.13671875 522 l 1
 259.0546875 272 l 1
EndSplineSet
Validated: 1
Substitution2: "'ss08' Style Set 8 in Latin lookup 41 subtable" Adieresis.ss08
Substitution2: "'aalt' Access All Alternates in Latin lookup 0 subtable" Adieresis.ss08
EndChar

StartChar: Agrave
Encoding: 192 192 7
Width: 750
GlyphClass: 2
Flags: HMW
HStem: 0 21G<18 18 18 196 553 553 553 732> 134 138<290 460 290 507 243 460> 690 20G<274 476 476 476> 768 153<322 322 322 395 232 451>
VStem: 18 714<0 0>
AnchorPoint: "Anchor-3" 419.993 710 basechar 0
AnchorPoint: "Anchor-2" 650.802 0 basechar 0
AnchorPoint: "Anchor-0" 294.802 0 basechar 0
LayerCount: 2
Fore
SplineSet
376.220703125 768 m 1
 313.198242188 921 l 1
 476.198242188 921 l 1
 505.220703125 768 l 1
 376.220703125 768 l 1
-63.1982421875 0 m 1
 317.993164062 710 l 1
 519.993164062 710 l 1
 650.801757812 0 l 1
 471.801757812 0 l 1
 449.4296875 134 l 1
 185.4296875 134 l 1
 114.801757812 0 l 1
 -63.1982421875 0 l 1
256.762695312 272 m 1
 426.762695312 272 l 1
 386.84375 522 l 1
 256.762695312 272 l 1
EndSplineSet
Validated: 1
EndChar

StartChar: Amacron
Encoding: 256 256 8
Width: 750
GlyphClass: 2
Flags: HMW
HStem: 0 21G<18 18 18 196 553 553 553 732> 134 138<290 460 290 507 243 460> 690 20G<274 476 476 476> 773 122<221 530 221 530>
VStem: 221 309<773 895 773 895>
AnchorPoint: "Anchor-3" 422.286 710 basechar 0
AnchorPoint: "Anchor-2" 653.094 0 basechar 0
AnchorPoint: "Anchor-0" 297.094 0 basechar 0
LayerCount: 2
Fore
SplineSet
278.39453125 773 m 1
 299.90625 895 l 1
 608.90625 895 l 1
 587.39453125 773 l 1
 278.39453125 773 l 1
-60.90625 0 m 1
 320.286132812 710 l 1
 522.286132812 710 l 1
 653.09375 0 l 1
 474.09375 0 l 1
 451.721679688 134 l 1
 187.721679688 134 l 1
 117.09375 0 l 1
 -60.90625 0 l 1
259.0546875 272 m 1
 429.0546875 272 l 1
 389.13671875 522 l 1
 259.0546875 272 l 1
EndSplineSet
Validated: 1
EndChar

StartChar: Aogonek
Encoding: 260 260 9
Width: 750
GlyphClass: 2
Flags: HMW
HStem: -220 97<618 705> 0 21G<18 18 18 196 553 553 553 598 732 732> 134 138<290 460 290 507 243 460> 690 20G<274 476 476 476>
VStem: 18 751<-194 0> 536 136<-158.5 -90>
AnchorPoint: "Anchor-3" 457.992 710 basechar 0
AnchorPoint: "Anchor-2" 688.8 0 basechar 0
AnchorPoint: "Anchor-0" 332.8 0 basechar 0
LayerCount: 2
Fore
SplineSet
-25.2001953125 0 m 1x78
 355.9921875 710 l 1
 557.9921875 710 l 1
 688.799804688 0 l 1
 653.275390625 -37 l 2
 632.043945312 -61 614.340820312 -82 611.51953125 -98 c 0xf4
 608.522460938 -115 619.111328125 -123 632.111328125 -123 c 0
 648.111328125 -123 668.169921875 -117 678.404296875 -110 c 1
 691.592773438 -194 l 1xf8
 670.124023438 -208 620.0078125 -220 574.0078125 -220 c 0
 498.0078125 -220 459.650390625 -188 470.053710938 -129 c 0xf4
 477.283203125 -88 507.983398438 -50 536.44921875 -19 c 2
 554.799804688 0 l 1
 509.799804688 0 l 1
 487.427734375 134 l 1
 223.427734375 134 l 1
 152.799804688 0 l 1
 -25.2001953125 0 l 1x78
294.760742188 272 m 1
 464.760742188 272 l 1
 424.842773438 522 l 1
 294.760742188 272 l 1
EndSplineSet
Validated: 33
EndChar

StartChar: Aring
Encoding: 197 197 10
Width: 758
GlyphClass: 2
Flags: HMW
HStem: 0 21G<11 11 11 189 546 546 546 725> 134 138<283 453 283 500 235 453> 690 20G<267 469 469 469> 754 70<363.5 384.5 363.5 404> 895 69<363.5 384.5>
VStem: 268 70<848.5 869.5 848.5 889> 410 70<848.5 869.5>
AnchorPoint: "Anchor-3" 408.202 710 basechar 0
AnchorPoint: "Anchor-2" 640.011 0 basechar 0
AnchorPoint: "Anchor-0" 283.011 0 basechar 0
LayerCount: 2
Fore
SplineSet
421.9609375 754 m 0
 361.9609375 754 323.895507812 799 334.475585938 859 c 0
 345.0546875 919 398.989257812 964 458.989257812 964 c 0
 518.989257812 964 557.0546875 919 546.475585938 859 c 0
 535.895507812 799 481.9609375 754 421.9609375 754 c 0
434.303710938 824 m 0
 455.303710938 824 472.772460938 838 476.475585938 859 c 0
 480.177734375 880 467.823242188 895 446.823242188 895 c 0
 425.823242188 895 408.177734375 880 404.475585938 859 c 0
 400.772460938 838 413.303710938 824 434.303710938 824 c 0
-73.9892578125 0 m 1
 307.202148438 710 l 1
 509.202148438 710 l 1
 640.010742188 0 l 1
 461.010742188 0 l 1
 438.638671875 134 l 1
 173.638671875 134 l 1
 104.010742188 0 l 1
 -73.9892578125 0 l 1
245.971679688 272 m 1
 415.971679688 272 l 1
 375.052734375 522 l 1
 245.971679688 272 l 1
EndSplineSet
Validated: 33
EndChar

StartChar: Atilde
Encoding: 195 195 11
Width: 758
GlyphClass: 2
Flags: HMW
HStem: 0 21G<11 11 11 189 546 546 546 725> 134 138<283 453 283 500 235 453> 690 20G<267 469 469 469> 772 150<274 277 195 327> 777 100<423.5 438 423.5 465> 777 152<464 465> 822 100<305 320>
VStem: 195 82<772 817> 464 83<929 929>
AnchorPoint: "Anchor-3" 411.288 710 basechar 0
AnchorPoint: "Anchor-2" 643.096 0 basechar 0
AnchorPoint: "Anchor-0" 286.096 0 basechar 0
LayerCount: 2
Fore
SplineSet
481.102539062 777 m 0xe580
 449.102539062 777 431.336914062 784 408.391601562 807 c 0
 398.155273438 817 389.037109375 822 377.037109375 822 c 0xe380
 359.037109375 822 342.09765625 811 331.220703125 772 c 1
 249.220703125 772 l 1
 265.08984375 862 317.669921875 922 391.669921875 922 c 0xf180
 423.669921875 922 446.435546875 915 469.555664062 893 c 0
 482.616210938 882 490.735351562 877 501.735351562 877 c 0xe980
 519.735351562 877 536.674804688 888 545.904296875 929 c 1
 628.904296875 929 l 1
 611.505859375 836 559.102539062 777 481.102539062 777 c 0xe580
-70.904296875 0 m 1
 310.288085938 710 l 1
 512.288085938 710 l 1
 643.095703125 0 l 1
 464.095703125 0 l 1
 441.723632812 134 l 1
 176.723632812 134 l 1
 107.095703125 0 l 1
 -70.904296875 0 l 1
249.056640625 272 m 1
 419.056640625 272 l 1
 378.138671875 522 l 1
 249.056640625 272 l 1
EndSplineSet
Validated: 1
EndChar

StartChar: AE
Encoding: 198 198 12
Width: 1066
GlyphClass: 2
Flags: HMW
HStem: 0 142<709 1024 709 1024> 135 137<340 535 340 535 269 535> 285 142<709 1004 709 1004> 568 142<709 1016 709 709> 569 141<494 535 494 494>
VStem: 535 174<0 285 135 285 272 285 427 568>
AnchorPoint: "Anchor-3" 637.596 710 basechar 0
AnchorPoint: "Anchor-0" 512.404 0 basechar 0
LayerCount: 2
Fore
SplineSet
-44.595703125 0 m 1xb4
 460.595703125 710 l 1
 1078.59570312 710 l 1
 1053.55761719 568 l 1
 746.557617188 568 l 1
 721.6953125 427 l 1
 1016.6953125 427 l 1
 991.657226562 285 l 1
 696.657226562 285 l 1
 671.442382812 142 l 1
 986.442382812 142 l 1
 961.404296875 0 l 1
 472.404296875 0 l 1xb4
 496.208007812 135 l 1
 230.208007812 135 l 1x54
 136.404296875 0 l 1
 -44.595703125 0 l 1xb4
572.734375 569 m 1x4c
 531.734375 569 l 1
 325.365234375 272 l 1
 520.365234375 272 l 1
 572.734375 569 l 1x4c
EndSplineSet
Validated: 1
EndChar

StartChar: B
Encoding: 66 66 13
Width: 710
GlyphClass: 2
Flags: HMW
HStem: 0 137<242 377 377 387> 301 66 301 120<242 349 349 377 242 349> 573 137<242 349 242 242>
VStem: 68 174<137 137 137 301 421 573> 459 175<473 523.5> 489 175<190.5 246>
AnchorPoint: "Anchor-3" 417.596 710 basechar 0
AnchorPoint: "Anchor-0" 292.404 0 basechar 0
LayerCount: 2
Fore
SplineSet
5.404296875 0 m 1xda
 130.595703125 710 l 1
 417.595703125 710 l 2
 596.595703125 710 686.016601562 650 662.565429688 517 c 0xbc
 647.047851562 429 583.87890625 377 485.116210938 367 c 1
 602.352539062 357 653.596679688 296 635.963867188 196 c 0
 612.688476562 64 502.404296875 0 324.404296875 0 c 2
 5.404296875 0 l 1xda
253.637695312 421 m 1
 360.637695312 421 l 2
 425.637695312 421 475.045898438 446 484.038085938 497 c 0
 493.383789062 550 454.439453125 573 387.439453125 573 c 2
 280.439453125 573 l 1
 253.637695312 421 l 1
203.560546875 137 m 1
 338.560546875 137 l 2
 403.560546875 137 455.145507812 163 464.842773438 218 c 0xba
 474.717773438 274 433.478515625 301 367.478515625 301 c 2
 232.478515625 301 l 1
 203.560546875 137 l 1
EndSplineSet
Validated: 33
EndChar

StartChar: C
Encoding: 67 67 14
Width: 745
GlyphClass: 2
Flags: HMW
HStem: -16 142<331 424 331 473.5> 584 142<329.5 421>
VStem: 41 179<284 422.5 284 466.5>
AnchorPoint: "Anchor-3" 444.596 710 basechar 0
AnchorPoint: "Anchor-0" 320.404 0 basechar 0
LayerCount: 2
Fore
SplineSet
313.583007812 -16 m 0
 117.583007812 -16 -0.2607421875 121 40.8232421875 354 c 0
 80.4970703125 579 238.416992188 726 447.416992188 726 c 0
 638.416992188 726 724.490234375 630 724.6328125 455 c 1
 542.3984375 448 l 1
 542.385742188 533 500.37890625 584 422.37890625 584 c 0
 317.37890625 584 243.98046875 491 219.823242188 354 c 0
 195.137695312 214 240.62109375 126 340.62109375 126 c 0
 426.62109375 126 482.966796875 179 512.188476562 271 c 1
 692.954101562 264 l 1
 631.391601562 85 502.583007812 -16 313.583007812 -16 c 0
EndSplineSet
Validated: 33
EndChar

StartChar: Cacute
Encoding: 262 262 15
Width: 745
GlyphClass: 2
Flags: HMW
HStem: -16 142<331 424 331 473.5> 584 142<329.5 421> 761 154<303 523 360 433>
VStem: 41 179<284 422.5 284 466.5>
AnchorPoint: "Anchor-3" 427.934 710 basechar 0
AnchorPoint: "Anchor-0" 303.741 0 basechar 0
LayerCount: 2
Fore
SplineSet
357.92578125 761 m 1
 442.080078125 915 l 1
 605.080078125 915 l 1
 487.92578125 761 l 1
 357.92578125 761 l 1
296.919921875 -16 m 0
 100.919921875 -16 -16.923828125 121 24.1611328125 354 c 0
 63.833984375 579 221.754882812 726 430.754882812 726 c 0
 621.754882812 726 707.827148438 630 707.969726562 455 c 1
 525.735351562 448 l 1
 525.723632812 533 483.715820312 584 405.715820312 584 c 0
 300.715820312 584 227.317382812 491 203.161132812 354 c 0
 178.474609375 214 223.958007812 126 323.958007812 126 c 0
 409.958007812 126 466.303710938 179 495.525390625 271 c 1
 676.291015625 264 l 1
 614.728515625 85 485.919921875 -16 296.919921875 -16 c 0
EndSplineSet
Validated: 33
EndChar

StartChar: Ccaron
Encoding: 268 268 16
Width: 745
GlyphClass: 2
Flags: HMW
HStem: -16 142<331 424 331 473.5> 584 142<329.5 421> 761 160<301 320 444 463 301 301>
VStem: 41 179<284 422.5 284 466.5>
AnchorPoint: "Anchor-3" 427.404 710 basechar 0
AnchorPoint: "Anchor-0" 303.212 0 basechar 0
LayerCount: 2
Fore
SplineSet
285.609375 921 m 1
 402.609375 921 l 1
 448.916015625 832 l 1
 526.609375 921 l 1
 643.609375 921 l 1
 517.396484375 761 l 1
 355.396484375 761 l 1
 285.609375 921 l 1
296.390625 -16 m 0
 100.390625 -16 -17.4521484375 121 23.6318359375 354 c 0
 63.3056640625 579 221.225585938 726 430.225585938 726 c 0
 621.225585938 726 707.297851562 630 707.440429688 455 c 1
 525.206054688 448 l 1
 525.194335938 533 483.186523438 584 405.186523438 584 c 0
 300.186523438 584 226.7890625 491 202.631835938 354 c 0
 177.946289062 214 223.4296875 126 323.4296875 126 c 0
 409.4296875 126 465.774414062 179 494.997070312 271 c 1
 675.762695312 264 l 1
 614.200195312 85 485.390625 -16 296.390625 -16 c 0
EndSplineSet
Validated: 33
EndChar

StartChar: Ccedilla
Encoding: 199 199 17
Width: 745
GlyphClass: 2
Flags: HMW
HStem: -236 78<359.5 388.5 359.5 414> -152 21G<246 246> -85 55<359 414> -85 211<359 384> -13 21G<332 332> 584 142<329.5 421>
VStem: 41 179<284 422.5 284 466.5> 421 89<-133.5 -111>
AnchorPoint: "Anchor-3" 463.992 710 basechar 0
AnchorPoint: "Anchor-0" 339.8 0 basechar 0
LayerCount: 2
Fore
SplineSet
293.186523438 -236 m 0xa7
 225.186523438 -236 186.181640625 -202 175.998046875 -152 c 1x4f
 252.640625 -120 l 1
 259.232421875 -145 272.940429688 -158 303.940429688 -158 c 0
 330.940429688 -158 352.232421875 -145 356.288085938 -122 c 0
 360.166992188 -100 350.8125 -85 300.8125 -85 c 1x97
 263.041015625 -44 l 1
 286.5078125 -13 l 1x4f
 118.034179688 7 22.4853515625 140 60.2197265625 354 c 0
 99.8935546875 579 257.813476562 726 466.813476562 726 c 0
 657.813476562 726 743.885742188 630 744.028320312 455 c 1
 561.793945312 448 l 1
 561.782226562 533 519.774414062 584 441.774414062 584 c 0
 336.774414062 584 263.375976562 491 239.219726562 354 c 0
 214.534179688 214 260.016601562 126 360.016601562 126 c 0x57
 446.016601562 126 502.362304688 179 531.584960938 271 c 1
 712.350585938 264 l 1
 655.255859375 99 542.9765625 1 378.331054688 -14 c 1
 365.509765625 -30 l 1
 431.275390625 -37 453.22265625 -77 444.583007812 -126 c 0
 431.005859375 -203 365.186523438 -236 293.186523438 -236 c 0xa7
EndSplineSet
Validated: 33
EndChar

StartChar: Ccircumflex
Encoding: 264 264 18
Width: 745
GlyphClass: 2
Flags: HMW
HStem: -16 142<331 424 331 473.5> 584 142<329.5 421> 761 160<203 463 301 320 444 444 444 463 301 561>
VStem: 41 179<284 422.5 284 466.5>
AnchorPoint: "Anchor-3" 427.404 710 basechar 0
AnchorPoint: "Anchor-0" 303.212 0 basechar 0
LayerCount: 2
Fore
SplineSet
257.396484375 761 m 1
 383.609375 921 l 1
 545.609375 921 l 1
 615.396484375 761 l 1
 498.396484375 761 l 1
 452.08984375 850 l 1
 374.396484375 761 l 1
 257.396484375 761 l 1
296.390625 -16 m 0
 100.390625 -16 -17.4521484375 121 23.6318359375 354 c 0
 63.3056640625 579 221.225585938 726 430.225585938 726 c 0
 621.225585938 726 707.297851562 630 707.440429688 455 c 1
 525.206054688 448 l 1
 525.194335938 533 483.186523438 584 405.186523438 584 c 0
 300.186523438 584 226.7890625 491 202.631835938 354 c 0
 177.946289062 214 223.4296875 126 323.4296875 126 c 0
 409.4296875 126 465.774414062 179 494.997070312 271 c 1
 675.762695312 264 l 1
 614.200195312 85 485.390625 -16 296.390625 -16 c 0
EndSplineSet
Validated: 33
EndChar

StartChar: Cdotaccent
Encoding: 266 266 19
Width: 745
GlyphClass: 2
Flags: HMW
HStem: -16 142<331 424 331 473.5> 584 142<329.5 421> 770 128<293 471 293 471>
VStem: 41 179<284 422.5 284 466.5> 293 178<770 898 770 898>
AnchorPoint: "Anchor-3" 429.432 710 basechar 0
AnchorPoint: "Anchor-0" 305.24 0 basechar 0
LayerCount: 2
Fore
SplineSet
351.01171875 770 m 1
 373.581054688 898 l 1
 551.581054688 898 l 1
 529.01171875 770 l 1
 351.01171875 770 l 1
298.418945312 -16 m 0
 102.418945312 -16 -15.4248046875 121 25.6591796875 354 c 0
 65.3330078125 579 223.252929688 726 432.252929688 726 c 0
 623.252929688 726 709.326171875 630 709.46875 455 c 1
 527.234375 448 l 1
 527.221679688 533 485.21484375 584 407.21484375 584 c 0
 302.21484375 584 228.81640625 491 204.659179688 354 c 0
 179.973632812 214 225.45703125 126 325.45703125 126 c 0
 411.45703125 126 467.802734375 179 497.024414062 271 c 1
 677.790039062 264 l 1
 616.227539062 85 487.418945312 -16 298.418945312 -16 c 0
EndSplineSet
Validated: 33
Substitution2: "'ss08' Style Set 8 in Latin lookup 41 subtable" Cdotaccent.ss08
Substitution2: "'aalt' Access All Alternates in Latin lookup 0 subtable" Cdotaccent.ss08
EndChar

StartChar: D
Encoding: 68 68 20
Width: 727
GlyphClass: 2
Flags: HMW
HStem: 0 142<242 321 321 327> 568 142<242 321 242 242>
VStem: 68 174<142 142 142 568> 507 179<282.5 427.5>
AnchorPoint: "Anchor-3" 388.596 710 basechar 0
AnchorPoint: "Anchor-1" 213 355 basechar 0
AnchorPoint: "Anchor-0" 264.404 0 basechar 0
LayerCount: 2
Fore
SplineSet
5.404296875 0 m 1
 130.595703125 710 l 1
 383.595703125 710 l 2
 617.595703125 710 726.026367188 582 685.823242188 354 c 0
 645.797851562 127 494.404296875 0 264.404296875 0 c 2
 5.404296875 0 l 1
204.442382812 142 m 1
 283.442382812 142 l 2
 411.442382812 142 481.432617188 210 507 355 c 0
 532.567382812 500 486.557617188 568 358.557617188 568 c 2
 279.557617188 568 l 1
 204.442382812 142 l 1
EndSplineSet
Validated: 33
EndChar

StartChar: Dcaron
Encoding: 270 270 21
Width: 727
GlyphClass: 2
Flags: HMW
HStem: 0 142<242 321 321 327> 568 142<242 321 242 242> 761 160<246 264 388 407 246 246>
VStem: 68 174<142 142 142 568> 507 179<282.5 427.5>
AnchorPoint: "Anchor-3" 369.993 710 basechar 0
AnchorPoint: "Anchor-1" 194.397 355 basechar 0
AnchorPoint: "Anchor-0" 245.802 0 basechar 0
LayerCount: 2
Fore
SplineSet
229.198242188 921 m 1
 345.198242188 921 l 1
 391.505859375 832 l 1
 469.198242188 921 l 1
 586.198242188 921 l 1
 459.986328125 761 l 1
 298.986328125 761 l 1
 229.198242188 921 l 1
-13.1982421875 0 m 1
 111.993164062 710 l 1
 364.993164062 710 l 2
 598.993164062 710 707.423828125 582 667.220703125 354 c 0
 627.1953125 127 475.801757812 0 245.801757812 0 c 2
 -13.1982421875 0 l 1
185.83984375 142 m 1
 264.83984375 142 l 2
 392.83984375 142 462.830078125 210 488.397460938 355 c 0
 513.96484375 500 467.955078125 568 339.955078125 568 c 2
 260.955078125 568 l 1
 185.83984375 142 l 1
EndSplineSet
Validated: 33
EndChar

StartChar: Dcroat
Encoding: 272 272 22
Width: 727
GlyphClass: 2
Flags: HMW
HStem: 0 142<242 321 321 327> 291 128<5 68 5 68 242 421> 568 142<242 321 242 242>
VStem: 68 174<142 142 142 291 142 291 419 568> 507 179<282.5 427.5>
AnchorPoint: "Anchor-3" 388.596 710 basechar 0
AnchorPoint: "Anchor-1" 213 355 basechar 0
AnchorPoint: "Anchor-0" 264.404 0 basechar 0
LayerCount: 2
Fore
SplineSet
5.404296875 0 m 1
 56.71484375 291 l 1
 -6.28515625 291 l 1
 16.28515625 419 l 1
 79.28515625 419 l 1
 130.595703125 710 l 1
 383.595703125 710 l 2
 617.595703125 710 726.026367188 582 685.823242188 354 c 0
 645.797851562 127 494.404296875 0 264.404296875 0 c 2
 5.404296875 0 l 1
204.442382812 142 m 1
 283.442382812 142 l 2
 411.442382812 142 481.432617188 210 507 355 c 0
 532.567382812 500 486.557617188 568 358.557617188 568 c 2
 279.557617188 568 l 1
 253.28515625 419 l 1
 432.28515625 419 l 1
 409.71484375 291 l 1
 230.71484375 291 l 1
 204.442382812 142 l 1
EndSplineSet
Validated: 33
EndChar

StartChar: Eth
Encoding: 208 208 23
Width: 727
GlyphClass: 2
Flags: HMW
HStem: 0 142<242 321 321 327> 291 128<5 68 5 68 242 421> 568 142<242 321 242 242>
VStem: 68 174<142 142 142 291 142 291 419 568> 507 179<282.5 427.5>
AnchorPoint: "Anchor-3" 388.596 710 basechar 0
AnchorPoint: "Anchor-1" 213 355 basechar 0
AnchorPoint: "Anchor-0" 264.404 0 basechar 0
LayerCount: 2
Fore
SplineSet
5.404296875 0 m 1
 56.71484375 291 l 1
 -6.28515625 291 l 1
 16.28515625 419 l 1
 79.28515625 419 l 1
 130.595703125 710 l 1
 383.595703125 710 l 2
 617.595703125 710 726.026367188 582 685.823242188 354 c 0
 645.797851562 127 494.404296875 0 264.404296875 0 c 2
 5.404296875 0 l 1
204.442382812 142 m 1
 283.442382812 142 l 2
 411.442382812 142 481.432617188 210 507 355 c 0
 532.567382812 500 486.557617188 568 358.557617188 568 c 2
 279.557617188 568 l 1
 253.28515625 419 l 1
 432.28515625 419 l 1
 409.71484375 291 l 1
 230.71484375 291 l 1
 204.442382812 142 l 1
EndSplineSet
Validated: 33
EndChar

StartChar: E
Encoding: 69 69 24
Width: 628
GlyphClass: 2
Flags: HMW
HStem: 0 142<242 586 242 586> 285 142<242 566 242 566> 568 142<242 578 242 242>
VStem: 68 174<142 285 427 568>
AnchorPoint: "Anchor-3" 385.596 710 basechar 0
AnchorPoint: "Anchor-2" 523.404 0 basechar 0
AnchorPoint: "Anchor-0" 261.404 0 basechar 0
LayerCount: 2
Fore
SplineSet
5.404296875 0 m 1
 130.595703125 710 l 1
 640.595703125 710 l 1
 615.557617188 568 l 1
 279.557617188 568 l 1
 254.6953125 427 l 1
 578.6953125 427 l 1
 553.657226562 285 l 1
 229.657226562 285 l 1
 204.442382812 142 l 1
 548.442382812 142 l 1
 523.404296875 0 l 1
 5.404296875 0 l 1
EndSplineSet
Validated: 1
EndChar

StartChar: Eacute
Encoding: 201 201 25
Width: 628
GlyphClass: 2
Flags: HMW
HStem: 0 142<242 586 242 586> 285 142<242 566 242 566> 568 142<242 578 242 242> 761 154<245 464 301 374>
VStem: 68 174<142 285 427 568>
AnchorPoint: "Anchor-3" 367.522 710 basechar 0
AnchorPoint: "Anchor-2" 505.33 0 basechar 0
AnchorPoint: "Anchor-0" 243.33 0 basechar 0
LayerCount: 2
Fore
SplineSet
298.515625 761 m 1
 381.669921875 915 l 1
 544.669921875 915 l 1
 427.515625 761 l 1
 298.515625 761 l 1
-12.669921875 0 m 1
 112.522460938 710 l 1
 622.522460938 710 l 1
 597.484375 568 l 1
 261.484375 568 l 1
 236.622070312 427 l 1
 560.622070312 427 l 1
 535.583984375 285 l 1
 211.583984375 285 l 1
 186.369140625 142 l 1
 530.369140625 142 l 1
 505.330078125 0 l 1
 -12.669921875 0 l 1
EndSplineSet
Validated: 1
EndChar

StartChar: Ecaron
Encoding: 282 282 26
Width: 628
GlyphClass: 2
Flags: HMW
HStem: 0 142<242 586 242 586> 285 142<242 566 242 566> 568 142<242 578 242 242> 761 160<243 261 386 404 243 243>
VStem: 68 174<142 285 427 568>
AnchorPoint: "Anchor-3" 366.993 710 basechar 0
AnchorPoint: "Anchor-2" 504.802 0 basechar 0
AnchorPoint: "Anchor-0" 242.802 0 basechar 0
LayerCount: 2
Fore
SplineSet
226.198242188 921 m 1
 342.198242188 921 l 1
 388.505859375 832 l 1
 467.198242188 921 l 1
 583.198242188 921 l 1
 456.986328125 761 l 1
 295.986328125 761 l 1
 226.198242188 921 l 1
-13.1982421875 0 m 1
 111.993164062 710 l 1
 621.993164062 710 l 1
 596.955078125 568 l 1
 260.955078125 568 l 1
 236.092773438 427 l 1
 560.092773438 427 l 1
 535.0546875 285 l 1
 211.0546875 285 l 1
 185.83984375 142 l 1
 529.83984375 142 l 1
 504.801757812 0 l 1
 -13.1982421875 0 l 1
EndSplineSet
Validated: 1
EndChar

StartChar: Ecircumflex
Encoding: 202 202 27
Width: 628
GlyphClass: 2
Flags: HMW
HStem: 0 142<242 586 242 586> 285 142<242 566 242 566> 568 142<242 578 242 242> 761 160<145 404 243 261 386 386 386 404 243 502>
VStem: 68 174<142 285 427 568>
AnchorPoint: "Anchor-3" 366.993 710 basechar 0
AnchorPoint: "Anchor-2" 504.802 0 basechar 0
AnchorPoint: "Anchor-0" 242.802 0 basechar 0
LayerCount: 2
Fore
SplineSet
197.986328125 761 m 1
 324.198242188 921 l 1
 485.198242188 921 l 1
 554.986328125 761 l 1
 438.986328125 761 l 1
 391.6796875 850 l 1
 313.986328125 761 l 1
 197.986328125 761 l 1
-13.1982421875 0 m 1
 111.993164062 710 l 1
 621.993164062 710 l 1
 596.955078125 568 l 1
 260.955078125 568 l 1
 236.092773438 427 l 1
 560.092773438 427 l 1
 535.0546875 285 l 1
 211.0546875 285 l 1
 185.83984375 142 l 1
 529.83984375 142 l 1
 504.801757812 0 l 1
 -13.1982421875 0 l 1
EndSplineSet
Validated: 1
EndChar

StartChar: Edieresis
Encoding: 203 203 28
Width: 628
GlyphClass: 2
Flags: HMW
HStem: 0 142<242 586 242 586> 285 142<242 566 242 566> 568 142<242 578 242 242> 767 128<128 290 128 290 357 518 128 357>
VStem: 68 174<142 285 427 568> 128 162<767 895 767 895> 357 161<767 895 767 895> 357 221<568 895 568 895>
AnchorPoint: "Anchor-3" 369.286 710 basechar 0
AnchorPoint: "Anchor-2" 507.094 0 basechar 0
AnchorPoint: "Anchor-0" 245.094 0 basechar 0
LayerCount: 2
Fore
SplineSet
184.336914062 767 m 1xf6
 206.90625 895 l 1
 368.90625 895 l 1
 346.336914062 767 l 1
 184.336914062 767 l 1xf6
413.336914062 767 m 1
 435.90625 895 l 1
 596.90625 895 l 1
 574.336914062 767 l 1
 413.336914062 767 l 1
-10.90625 0 m 1xf9
 114.286132812 710 l 1
 624.286132812 710 l 1
 599.247070312 568 l 1
 263.247070312 568 l 1
 238.385742188 427 l 1
 562.385742188 427 l 1
 537.346679688 285 l 1
 213.346679688 285 l 1
 188.131835938 142 l 1
 532.131835938 142 l 1
 507.09375 0 l 1
 -10.90625 0 l 1xf9
EndSplineSet
Validated: 1
Substitution2: "'ss08' Style Set 8 in Latin lookup 41 subtable" Edieresis.ss08
Substitution2: "'aalt' Access All Alternates in Latin lookup 0 subtable" Edieresis.ss08
EndChar

StartChar: Edotaccent
Encoding: 278 278 29
Width: 628
GlyphClass: 2
Flags: HMW
HStem: 0 142<242 586 242 586> 285 142<242 566 242 566> 568 142<242 578 242 242> 770 128<235 412 235 412>
VStem: 68 174<142 285 427 568> 235 177<770 898 770 898>
AnchorPoint: "Anchor-3" 369.021 710 basechar 0
AnchorPoint: "Anchor-2" 506.829 0 basechar 0
AnchorPoint: "Anchor-0" 244.829 0 basechar 0
LayerCount: 2
Fore
SplineSet
291.600585938 770 m 1xf4
 314.170898438 898 l 1
 491.170898438 898 l 1
 468.600585938 770 l 1
 291.600585938 770 l 1xf4
-11.1708984375 0 m 1xf8
 114.021484375 710 l 1
 624.021484375 710 l 1
 598.983398438 568 l 1
 262.983398438 568 l 1
 238.12109375 427 l 1
 562.12109375 427 l 1
 537.08203125 285 l 1
 213.08203125 285 l 1
 187.8671875 142 l 1
 531.8671875 142 l 1
 506.829101562 0 l 1
 -11.1708984375 0 l 1xf8
EndSplineSet
Validated: 1
Substitution2: "'ss08' Style Set 8 in Latin lookup 41 subtable" Edotaccent.ss08
Substitution2: "'aalt' Access All Alternates in Latin lookup 0 subtable" Edotaccent.ss08
EndChar

StartChar: Egrave
Encoding: 200 200 30
Width: 628
GlyphClass: 2
Flags: HMW
HStem: 0 142<242 586 242 586> 285 142<242 566 242 566> 568 142<242 578 242 242> 768 153<270 270 270 343 180 399>
VStem: 68 174<142 285 427 568>
AnchorPoint: "Anchor-3" 366.993 710 basechar 0
AnchorPoint: "Anchor-2" 504.802 0 basechar 0
AnchorPoint: "Anchor-0" 242.802 0 basechar 0
LayerCount: 2
Fore
SplineSet
324.220703125 768 m 1
 261.198242188 921 l 1
 424.198242188 921 l 1
 453.220703125 768 l 1
 324.220703125 768 l 1
-13.1982421875 0 m 1
 111.993164062 710 l 1
 621.993164062 710 l 1
 596.955078125 568 l 1
 260.955078125 568 l 1
 236.092773438 427 l 1
 560.092773438 427 l 1
 535.0546875 285 l 1
 211.0546875 285 l 1
 185.83984375 142 l 1
 529.83984375 142 l 1
 504.801757812 0 l 1
 -13.1982421875 0 l 1
EndSplineSet
Validated: 1
EndChar

StartChar: Emacron
Encoding: 274 274 31
Width: 628
GlyphClass: 2
Flags: HMW
HStem: 0 142<242 586 242 586> 285 142<242 566 242 566> 568 142<242 578 242 242> 773 122<169 478 169 478>
VStem: 68 174<142 285 427 568> 169 309<773 895 773 895>
AnchorPoint: "Anchor-3" 369.286 710 basechar 0
AnchorPoint: "Anchor-2" 507.094 0 basechar 0
AnchorPoint: "Anchor-0" 245.094 0 basechar 0
LayerCount: 2
Fore
SplineSet
226.39453125 773 m 1xf4
 247.90625 895 l 1
 556.90625 895 l 1
 535.39453125 773 l 1
 226.39453125 773 l 1xf4
-10.90625 0 m 1xf8
 114.286132812 710 l 1
 624.286132812 710 l 1
 599.247070312 568 l 1
 263.247070312 568 l 1
 238.385742188 427 l 1
 562.385742188 427 l 1
 537.346679688 285 l 1
 213.346679688 285 l 1
 188.131835938 142 l 1
 532.131835938 142 l 1
 507.09375 0 l 1
 -10.90625 0 l 1xf8
EndSplineSet
Validated: 1
EndChar

StartChar: Eogonek
Encoding: 280 280 32
Width: 628
GlyphClass: 2
Flags: HMW
HStem: -220 97<472 559> 0 142<242 452 242 586> 285 142<242 566 242 566> 568 142<242 578 242 242>
VStem: 68 174<142 285 427 568> 390 136<-158.5 -90> 390 196<-158.5 142>
AnchorPoint: "Anchor-3" 404.992 710 basechar 0
AnchorPoint: "Anchor-2" 542.8 0 basechar 0
AnchorPoint: "Anchor-0" 280.8 0 basechar 0
LayerCount: 2
Fore
SplineSet
24.7998046875 0 m 1xfa
 149.9921875 710 l 1
 659.9921875 710 l 1
 634.954101562 568 l 1
 298.954101562 568 l 1
 274.091796875 427 l 1
 598.091796875 427 l 1
 573.052734375 285 l 1
 249.052734375 285 l 1
 223.837890625 142 l 1
 567.837890625 142 l 1
 542.799804688 0 l 1x7a
 507.275390625 -37 l 2
 486.043945312 -61 468.340820312 -82 465.51953125 -98 c 0xfc
 462.522460938 -115 473.111328125 -123 486.111328125 -123 c 0
 502.111328125 -123 522.169921875 -117 532.404296875 -110 c 1
 545.592773438 -194 l 1
 524.124023438 -208 474.0078125 -220 428.0078125 -220 c 0
 352.0078125 -220 313.650390625 -188 324.053710938 -129 c 0
 331.283203125 -88 361.983398438 -50 390.44921875 -19 c 2
 408.799804688 0 l 1
 24.7998046875 0 l 1xfa
EndSplineSet
Validated: 33
EndChar

StartChar: uni1EBC
Encoding: 7868 7868 33
Width: 628
GlyphClass: 2
Flags: HMW
HStem: 0 142<242 586 242 586> 285 142<242 566 242 566> 568 142<242 578 242 242> 764 150<226 229 147 279> 769 100<375.5 390 375.5 417> 769 152<416 417> 814 100<257 272>
VStem: 68 161<0 764 710 764> 68 174<142 285 427 568> 147 82<764 809> 416 83<921 921>
AnchorPoint: "Anchor-3" 366.993 710 basechar 0
AnchorPoint: "Anchor-2" 504.802 0 basechar 0
AnchorPoint: "Anchor-0" 242.802 0 basechar 0
LayerCount: 2
Fore
SplineSet
432.396484375 769 m 0xe4a0
 400.396484375 769 382.630859375 776 359.686523438 799 c 0
 349.450195312 809 340.33203125 814 328.33203125 814 c 0xe3
 310.33203125 814 293.391601562 803 282.515625 764 c 1xf1
 200.515625 764 l 1
 216.384765625 854 268.963867188 914 342.963867188 914 c 0xf040
 374.963867188 914 397.73046875 907 420.850585938 885 c 0
 433.911132812 874 442.029296875 869 453.029296875 869 c 0xe8a0
 471.029296875 869 487.96875 880 497.198242188 921 c 1
 580.198242188 921 l 1
 562.799804688 828 510.396484375 769 432.396484375 769 c 0xe4a0
-13.1982421875 0 m 1xe080
 111.993164062 710 l 1
 621.993164062 710 l 1
 596.955078125 568 l 1
 260.955078125 568 l 1
 236.092773438 427 l 1
 560.092773438 427 l 1
 535.0546875 285 l 1
 211.0546875 285 l 1
 185.83984375 142 l 1
 529.83984375 142 l 1
 504.801757812 0 l 1
 -13.1982421875 0 l 1xe080
EndSplineSet
Validated: 1
EndChar

StartChar: uni018F
Encoding: 399 399 34
Width: 772
GlyphClass: 1
Flags: HMW
HStem: -16 142<341 428 341 474> 278 130<227 548 227 227> 584 142<350.5 425.5>
VStem: 41 690<351 408 408 408>
LayerCount: 2
Fore
SplineSet
731 355 m 0
 687.447265625 108 502.583007812 -16 314.583007812 -16 c 0
 132.583007812 -16 -2.552734375 108 40.294921875 351 c 2
 50.345703125 408 l 1
 558.345703125 408 l 1
 564.09375 520 512.37890625 584 419.37890625 584 c 0
 362.37890625 584 304.383789062 550 267.627929688 489 c 1
 86.21484375 498 l 1
 155.900390625 638 285.416992188 726 445.416992188 726 c 0
 648.416992188 726 773.318359375 595 731 355 c 0
341.62109375 126 m 0
 433.62109375 126 501.790039062 178 534.422851562 278 c 1
 213.422851562 278 l 1
 213.379882812 170 259.62109375 126 341.62109375 126 c 0
EndSplineSet
Validated: 33
EndChar

StartChar: F
Encoding: 70 70 35
Width: 609
GlyphClass: 1
Flags: HMW
HStem: 0 21G<68 68 68 242> 276 142<242 554 242 554> 568 142<242 572 242 242>
VStem: 68 174<0 276 418 568>
LayerCount: 2
Fore
SplineSet
5.404296875 0 m 1
 130.595703125 710 l 1
 634.595703125 710 l 1
 609.557617188 568 l 1
 279.557617188 568 l 1
 253.108398438 418 l 1
 565.108398438 418 l 1
 540.0703125 276 l 1
 228.0703125 276 l 1
 179.404296875 0 l 1
 5.404296875 0 l 1
EndSplineSet
Validated: 1
EndChar

StartChar: G
Encoding: 71 71 36
Width: 751
GlyphClass: 2
Flags: HMW
HStem: -16 142<330.5 423> 0 21G<601 705 601 601> 252 121<385 532 385 705> 584 142<331 427.5>
VStem: 41 179<286.5 421 286.5 461> 598 107
AnchorPoint: "Anchor-3" 448.596 710 basechar 0
AnchorPoint: "Anchor-0" 326.404 0 basechar 0
LayerCount: 2
Fore
SplineSet
306.583007812 -16 m 0xbc
 100.583007812 -16 2.03125 134 40.8232421875 354 c 0
 78.5576171875 568 233.416992188 726 449.416992188 726 c 0
 638.416992188 726 718.490234375 630 723.629882812 472 c 1
 542.219726562 464 l 1
 542.444335938 539 509.37890625 584 426.37890625 584 c 0
 316.37890625 584 243.451171875 488 219.823242188 354 c 0
 196.01953125 219 231.62109375 126 348.62109375 126 c 0xbc
 431.62109375 126 492.4375 176 513.837890625 252 c 1
 366.837890625 252 l 1
 388.173828125 373 l 1
 708.173828125 373 l 1
 642.404296875 0 l 1
 538.404296875 0 l 1x7c
 549.331054688 96 l 1
 500.165039062 27 408.583007812 -16 306.583007812 -16 c 0xbc
EndSplineSet
Validated: 33
Substitution2: "'ss06' Style Set 6 in Latin lookup 39 subtable" G.ss06
Substitution2: "'aalt' Access All Alternates in Latin lookup 0 subtable" G.ss06
EndChar

StartChar: Gbreve
Encoding: 286 286 37
Width: 751
GlyphClass: 2
Flags: HMW
HStem: -16 142<330.5 423> 0 21G<601 705 601 601> 252 121<385 532 385 705> 584 142<331 427.5> 760 89<367 405 367 434> 760 153<223 434>
VStem: 41 179<286.5 421 286.5 461> 598 107
AnchorPoint: "Anchor-3" 432.109 710 basechar 0
AnchorPoint: "Anchor-0" 309.917 0 basechar 0
LayerCount: 2
Fore
SplineSet
440.92578125 760 m 0xb7
 343.92578125 760 291.624023438 815 304.904296875 913 c 1xb7
 401.904296875 913 l 1
 397.79296875 867 418.619140625 849 456.619140625 849 c 0xbb
 494.619140625 849 520.79296875 867 532.904296875 913 c 1
 629.904296875 913 l 1
 608.624023438 815 536.92578125 760 440.92578125 760 c 0xb7
290.095703125 -16 m 0
 84.095703125 -16 -14.455078125 134 24.3369140625 354 c 0
 62.0712890625 568 216.930664062 726 432.930664062 726 c 0
 621.930664062 726 702.002929688 630 707.143554688 472 c 1
 525.733398438 464 l 1
 525.958007812 539 492.892578125 584 409.892578125 584 c 0
 299.892578125 584 226.96484375 488 203.336914062 354 c 0
 179.533203125 219 215.134765625 126 332.134765625 126 c 0xbb
 415.134765625 126 475.951171875 176 497.3515625 252 c 1
 350.3515625 252 l 1
 371.6875 373 l 1
 691.6875 373 l 1
 625.916992188 0 l 1
 521.916992188 0 l 1x7b
 532.844726562 96 l 1
 483.677734375 27 392.095703125 -16 290.095703125 -16 c 0
EndSplineSet
Validated: 33
Substitution2: "'ss06' Style Set 6 in Latin lookup 39 subtable" Gbreve.ss06
Substitution2: "'aalt' Access All Alternates in Latin lookup 0 subtable" Gbreve.ss06
EndChar

StartChar: Gcaron
Encoding: 486 486 38
Width: 751
GlyphClass: 2
Flags: HMW
HStem: -16 142<330.5 423> 0 21G<601 705 601 601> 252 121<385 532 385 705> 584 142<331 427.5> 761 160<305 323 448 466 305 305>
VStem: 41 179<286.5 421 286.5 461> 598 107
AnchorPoint: "Anchor-3" 431.404 710 basechar 0
AnchorPoint: "Anchor-0" 309.212 0 basechar 0
LayerCount: 2
Fore
SplineSet
289.609375 921 m 1xbe
 405.609375 921 l 1
 452.916015625 832 l 1
 530.609375 921 l 1
 646.609375 921 l 1
 520.396484375 761 l 1
 359.396484375 761 l 1
 289.609375 921 l 1xbe
289.390625 -16 m 0
 83.390625 -16 -15.16015625 134 23.6318359375 354 c 0
 61.3662109375 568 216.225585938 726 432.225585938 726 c 0
 621.225585938 726 701.297851562 630 706.438476562 472 c 1
 525.02734375 464 l 1
 525.251953125 539 492.186523438 584 409.186523438 584 c 0
 299.186523438 584 226.259765625 488 202.631835938 354 c 0
 178.828125 219 214.4296875 126 331.4296875 126 c 0xbe
 414.4296875 126 475.245117188 176 496.646484375 252 c 1
 349.646484375 252 l 1
 370.982421875 373 l 1
 690.982421875 373 l 1
 625.211914062 0 l 1
 521.211914062 0 l 1x7e
 532.139648438 96 l 1
 482.97265625 27 391.390625 -16 289.390625 -16 c 0
EndSplineSet
Validated: 33
EndChar

StartChar: Gcircumflex
Encoding: 284 284 39
Width: 751
GlyphClass: 2
Flags: HMW
HStem: -16 142<330.5 423> 0 21G<601 705 601 601> 252 121<385 532 385 705> 584 142<331 427.5> 761 160<207 466 305 323 448 448 448 466 305 564>
VStem: 41 179<286.5 421 286.5 461> 598 107
AnchorPoint: "Anchor-3" 431.404 710 basechar 0
AnchorPoint: "Anchor-0" 309.212 0 basechar 0
LayerCount: 2
Fore
SplineSet
261.396484375 761 m 1xbe
 387.609375 921 l 1
 548.609375 921 l 1
 618.396484375 761 l 1
 502.396484375 761 l 1
 456.08984375 850 l 1
 377.396484375 761 l 1
 261.396484375 761 l 1xbe
289.390625 -16 m 0
 83.390625 -16 -15.16015625 134 23.6318359375 354 c 0
 61.3662109375 568 216.225585938 726 432.225585938 726 c 0
 621.225585938 726 701.297851562 630 706.438476562 472 c 1
 525.02734375 464 l 1
 525.251953125 539 492.186523438 584 409.186523438 584 c 0
 299.186523438 584 226.259765625 488 202.631835938 354 c 0
 178.828125 219 214.4296875 126 331.4296875 126 c 0xbe
 414.4296875 126 475.245117188 176 496.646484375 252 c 1
 349.646484375 252 l 1
 370.982421875 373 l 1
 690.982421875 373 l 1
 625.211914062 0 l 1
 521.211914062 0 l 1x7e
 532.139648438 96 l 1
 482.97265625 27 391.390625 -16 289.390625 -16 c 0
EndSplineSet
Validated: 33
Substitution2: "'ss06' Style Set 6 in Latin lookup 39 subtable" Gcircumflex.ss06
Substitution2: "'aalt' Access All Alternates in Latin lookup 0 subtable" Gcircumflex.ss06
EndChar

StartChar: uni0122
Encoding: 290 290 40
Width: 751
GlyphClass: 2
Flags: HMW
HStem: -173 126<319 354 319 459> -16 142<330.5 423> 0 21G<601 705 601 601> 252 121<385 532 385 705> 584 142<331 427.5>
VStem: 41 179<286.5 421 286.5 461> 319 140<-160 -47 -160 -47 -160 -47> 598 107
AnchorPoint: "Anchor-3" 469.932 710 basechar 0
AnchorPoint: "Anchor-0" 302.247 -258 basechar 0
LayerCount: 2
Fore
SplineSet
327.91796875 -16 m 0xdf
 121.91796875 -16 23.3671875 134 62.1591796875 354 c 0
 99.8935546875 568 254.752929688 726 470.752929688 726 c 0
 659.752929688 726 739.825195312 630 744.965820312 472 c 1
 563.555664062 464 l 1
 563.779296875 539 530.71484375 584 447.71484375 584 c 0
 337.71484375 584 264.787109375 488 241.159179688 354 c 0
 217.35546875 219 252.95703125 126 369.95703125 126 c 0xdf
 452.95703125 126 513.7734375 176 535.173828125 252 c 1
 388.173828125 252 l 1
 409.509765625 373 l 1
 729.509765625 373 l 1
 663.739257812 0 l 1
 559.739257812 0 l 1xbf
 570.666992188 96 l 1
 521.5 27 429.91796875 -16 327.91796875 -16 c 0xdf
216.247070312 -258 m 1
 282.235351562 -173 l 1
 247.235351562 -173 l 1
 269.452148438 -47 l 1
 409.452148438 -47 l 1
 389.52734375 -160 l 1
 314.247070312 -258 l 1
 216.247070312 -258 l 1
EndSplineSet
Validated: 33
Substitution2: "'ss06' Style Set 6 in Latin lookup 39 subtable" uni0122.ss06
Substitution2: "'aalt' Access All Alternates in Latin lookup 0 subtable" uni0122.ss06
EndChar

StartChar: Gdotaccent
Encoding: 288 288 41
Width: 751
GlyphClass: 2
Flags: HMW
HStem: -16 142<330.5 423> 0 21G<601 705 601 601> 252 121<385 532 385 705> 584 142<331 427.5> 770 128<297 474 297 474>
VStem: 41 179<286.5 421 286.5 461> 297 177<770 898 770 898> 598 107
AnchorPoint: "Anchor-3" 433.432 710 basechar 0
AnchorPoint: "Anchor-0" 311.24 0 basechar 0
LayerCount: 2
Fore
SplineSet
355.01171875 770 m 1xbf
 377.581054688 898 l 1
 554.581054688 898 l 1
 532.01171875 770 l 1
 355.01171875 770 l 1xbf
291.418945312 -16 m 0
 85.4189453125 -16 -13.1328125 134 25.6591796875 354 c 0
 63.3935546875 568 218.252929688 726 434.252929688 726 c 0
 623.252929688 726 703.326171875 630 708.465820312 472 c 1
 527.055664062 464 l 1
 527.280273438 539 494.21484375 584 411.21484375 584 c 0
 301.21484375 584 228.287109375 488 204.659179688 354 c 0
 180.85546875 219 216.45703125 126 333.45703125 126 c 0xbf
 416.45703125 126 477.2734375 176 498.673828125 252 c 1
 351.673828125 252 l 1
 373.009765625 373 l 1
 693.009765625 373 l 1
 627.240234375 0 l 1
 523.240234375 0 l 1x7f
 534.166992188 96 l 1
 485.000976562 27 393.418945312 -16 291.418945312 -16 c 0
EndSplineSet
Validated: 33
Substitution2: "'ss08' Style Set 8 in Latin lookup 41 subtable" Gdotaccent.ss08
Substitution2: "'ss06' Style Set 6 in Latin lookup 39 subtable" Gdotaccent.ss06
AlternateSubs2: "'aalt' Access All Alternates in Latin lookup 1 subtable" Gdotaccent.ss06 Gdotaccent.ss08
EndChar

StartChar: uni1E20
Encoding: 7712 7712 42
Width: 751
GlyphClass: 2
Flags: HMW
HStem: -16 142<330.5 423> 0 21G<601 705 601 601> 252 121<385 532 385 705> 584 142<331 427.5> 773 122<231 540 231 540>
VStem: 41 179<286.5 421 286.5 461> 231 309<773 895 773 895> 598 107
AnchorPoint: "Anchor-3" 433.696 710 basechar 0
AnchorPoint: "Anchor-0" 311.504 0 basechar 0
LayerCount: 2
Fore
SplineSet
289.8046875 773 m 1xbb
 311.317382812 895 l 1
 620.317382812 895 l 1
 598.8046875 773 l 1
 289.8046875 773 l 1xbb
291.682617188 -16 m 0
 85.6826171875 -16 -12.8681640625 134 25.923828125 354 c 0
 63.658203125 568 218.517578125 726 434.517578125 726 c 0
 623.517578125 726 703.58984375 630 708.73046875 472 c 1
 527.3203125 464 l 1
 527.544921875 539 494.479492188 584 411.479492188 584 c 0
 301.479492188 584 228.551757812 488 204.923828125 354 c 0
 181.120117188 219 216.721679688 126 333.721679688 126 c 0xbd
 416.721679688 126 477.538085938 176 498.938476562 252 c 1
 351.938476562 252 l 1
 373.274414062 373 l 1
 693.274414062 373 l 1
 627.50390625 0 l 1
 523.50390625 0 l 1x7d
 534.431640625 96 l 1
 485.264648438 27 393.682617188 -16 291.682617188 -16 c 0
EndSplineSet
Validated: 33
Substitution2: "'ss06' Style Set 6 in Latin lookup 39 subtable" uni1E20.ss06
Substitution2: "'aalt' Access All Alternates in Latin lookup 0 subtable" uni1E20.ss06
EndChar

StartChar: uni01E4
Encoding: 484 484 43
Width: 791
GlyphClass: 2
Flags: HMW
HStem: -16 142<329 411 329 458.5> 175 74<385 504 385 530 699 755> 287 86<385 532 385 705> 584 142<330 429.5>
VStem: 41 179<286.5 421 286.5 460.5> 385 320<175 331 249 331 316.5 331 331 373 316.5 373> 532 173<280 331>
AnchorPoint: "Anchor-3" 453.596 710 basechar 0
AnchorPoint: "Anchor-0" 326.404 0 basechar 0
LayerCount: 2
Fore
SplineSet
321.583007812 -16 m 0xfa
 90.5830078125 -16 3.4423828125 142 40.8232421875 354 c 0
 78.380859375 567 231.416992188 726 456.416992188 726 c 0
 632.416992188 726 722.666015625 631 723.629882812 472 c 1
 542.219726562 464 l 1
 542.444335938 539 512.37890625 584 427.37890625 584 c 0
 313.37890625 584 243.451171875 488 219.823242188 354 c 0
 196.01953125 219 234.62109375 126 342.62109375 126 c 0
 398.62109375 126 441.442382812 142 472.260742188 175 c 1
 353.260742188 175 l 1
 366.309570312 249 l 1
 511.309570312 249 l 1xfa
 514.424804688 261 517.541015625 273 520.009765625 287 c 1
 373.009765625 287 l 1
 388.173828125 373 l 1xfc
 708.173828125 373 l 1
 700.768554688 331 l 2
 695.654296875 302 688.717773438 274 680.309570312 249 c 1
 736.309570312 249 l 1
 723.260742188 175 l 1
 650.260742188 175 l 1
 581.69140625 47 464.583007812 -16 321.583007812 -16 c 0xfa
EndSplineSet
Validated: 33
EndChar

StartChar: H
Encoding: 72 72 44
Width: 724
GlyphClass: 2
Flags: HMW
HStem: 0 21G<68 68 68 242 482 482 482 656> 286 143<242 482 242 482> 690 20G<68 242 242 242 482 656 656 656>
VStem: 68 174<0 286 429 710> 482 174<0 286 286 286 429 710 0 710>
AnchorPoint: "Anchor-3" 424.596 710 basechar 0
AnchorPoint: "Anchor-1" 401.321 578 basechar 0
AnchorPoint: "Anchor-0" 299.404 0 basechar 0
LayerCount: 2
Fore
SplineSet
5.404296875 0 m 1
 130.595703125 710 l 1
 304.595703125 710 l 1
 255.047851562 429 l 1
 495.047851562 429 l 1
 544.595703125 710 l 1
 718.595703125 710 l 1
 593.404296875 0 l 1
 419.404296875 0 l 1
 469.833007812 286 l 1
 229.833007812 286 l 1
 179.404296875 0 l 1
 5.404296875 0 l 1
EndSplineSet
Validated: 1
EndChar

StartChar: Hbar
Encoding: 294 294 45
Width: 724
GlyphClass: 2
Flags: HMW
HStem: 0 21G<68 68 68 242 482 482 482 656> 286 143<242 482 242 482> 517 121<-2 68 -2 68 242 482 656 726> 517 193<-2 242 -2 242 68 242 68 482>
VStem: 68 174<0 286 429 517 638 710> 482 174<0 286 286 286 429 517 0 517 638 710>
AnchorPoint: "Anchor-3" 424.596 710 basechar 0
AnchorPoint: "Anchor-1" 401.321 578 basechar 0
AnchorPoint: "Anchor-0" 299.404 0 basechar 0
LayerCount: 2
Fore
SplineSet
5.404296875 0 m 1xdc
 96.5654296875 517 l 1
 26.5654296875 517 l 1xdc
 47.900390625 638 l 1
 117.900390625 638 l 1xec
 130.595703125 710 l 1
 304.595703125 710 l 1xdc
 291.900390625 638 l 1
 531.900390625 638 l 1xec
 544.595703125 710 l 1
 718.595703125 710 l 1xdc
 705.900390625 638 l 1
 775.900390625 638 l 1xec
 754.565429688 517 l 1
 684.565429688 517 l 1
 593.404296875 0 l 1
 419.404296875 0 l 1
 469.833007812 286 l 1
 229.833007812 286 l 1
 179.404296875 0 l 1
 5.404296875 0 l 1xdc
255.047851562 429 m 1
 495.047851562 429 l 1
 510.565429688 517 l 1
 270.565429688 517 l 1
 255.047851562 429 l 1
EndSplineSet
Validated: 1
EndChar

StartChar: Hcircumflex
Encoding: 292 292 46
Width: 724
GlyphClass: 2
Flags: HMW
HStem: 0 21G<68 68 68 242 482 482 482 656> 286 143<242 482 242 482> 690 20G<68 242 242 242 482 656 656 656> 761 160<183 442 281 300 424 424 424 442 281 540>
VStem: 68 174<0 286 429 710> 482 174<0 286 286 286 429 710 0 710>
AnchorPoint: "Anchor-3" 405.993 710 basechar 0
AnchorPoint: "Anchor-1" 382.719 578 basechar 0
AnchorPoint: "Anchor-0" 280.802 0 basechar 0
LayerCount: 2
Fore
SplineSet
235.986328125 761 m 1
 362.198242188 921 l 1
 523.198242188 921 l 1
 592.986328125 761 l 1
 476.986328125 761 l 1
 430.6796875 850 l 1
 352.986328125 761 l 1
 235.986328125 761 l 1
-13.1982421875 0 m 1
 111.993164062 710 l 1
 285.993164062 710 l 1
 236.4453125 429 l 1
 476.4453125 429 l 1
 525.993164062 710 l 1
 699.993164062 710 l 1
 574.801757812 0 l 1
 400.801757812 0 l 1
 451.23046875 286 l 1
 211.23046875 286 l 1
 160.801757812 0 l 1
 -13.1982421875 0 l 1
EndSplineSet
Validated: 1
EndChar

StartChar: I
Encoding: 73 73 47
Width: 310
GlyphClass: 2
Flags: HMW
HStem: 0 21G<68 68 68 242> 690 20G<68 242 242 242>
VStem: 68 174<0 710 0 710>
AnchorPoint: "Anchor-3" 217.596 710 basechar 0
AnchorPoint: "Anchor-2" 179.404 0 basechar 0
AnchorPoint: "Anchor-0" 92.4043 0 basechar 0
LayerCount: 2
Fore
SplineSet
5.404296875 0 m 1
 130.595703125 710 l 1
 304.595703125 710 l 1
 179.404296875 0 l 1
 5.404296875 0 l 1
EndSplineSet
Validated: 1
Substitution2: "'ss05' Style Set 5 in Latin lookup 38 subtable" I.ss05
Substitution2: "'aalt' Access All Alternates in Latin lookup 0 subtable" I.ss05
EndChar

StartChar: IJ
Encoding: 306 306 48
Width: 935
GlyphClass: 2
Flags: HMW
HStem: -16 142<583 642.5 583 693> 0 21G<68 68 68 242> 690 20G<68 242 242 242 708 882 882 882>
VStem: 68 174<0 710 0 710> 341 174<260 268> 708 174<258 710>
AnchorPoint: "Anchor-3" 859.007 710 basechar 0
AnchorPoint: "Anchor-2" 180.814 0 basechar 0
AnchorPoint: "Anchor-0" 93.8145 0 basechar 0
LayerCount: 2
Fore
SplineSet
6.814453125 0 m 1x74
 132.006835938 710 l 1
 306.006835938 710 l 1
 180.814453125 0 l 1
 6.814453125 0 l 1x74
548.993164062 -16 m 0
 371.993164062 -16 299.624023438 101 325.659179688 260 c 1
 501.0703125 268 l 1
 485.614257812 169 514.03125 126 574.03125 126 c 0
 633.03125 126 676.260742188 167 692.306640625 258 c 2
 772.006835938 710 l 1
 946.006835938 710 l 1
 866.306640625 258 l 2xbc
 836.860351562 91 708.993164062 -16 548.993164062 -16 c 0
EndSplineSet
Validated: 33
EndChar

StartChar: Iacute
Encoding: 205 205 49
Width: 310
GlyphClass: 2
Flags: HMW
HStem: 0 21G<68 68 68 242> 690 20G<68 242 242 242> 761 154<76 296 133 206>
VStem: 68 174<0 710 0 710>
AnchorPoint: "Anchor-3" 199.522 710 basechar 0
AnchorPoint: "Anchor-2" 161.33 0 basechar 0
AnchorPoint: "Anchor-0" 74.3301 0 basechar 0
LayerCount: 2
Fore
SplineSet
129.515625 761 m 1
 213.669921875 915 l 1
 376.669921875 915 l 1
 259.515625 761 l 1
 129.515625 761 l 1
-12.669921875 0 m 1
 112.522460938 710 l 1
 286.522460938 710 l 1
 161.330078125 0 l 1
 -12.669921875 0 l 1
EndSplineSet
Validated: 1
Substitution2: "'ss05' Style Set 5 in Latin lookup 38 subtable" Iacute.ss05
Substitution2: "'aalt' Access All Alternates in Latin lookup 0 subtable" Iacute.ss05
EndChar

StartChar: Icircumflex
Encoding: 206 206 50
Width: 310
GlyphClass: 2
Flags: HMW
HStem: 0 21G<68 68 68 242> 690 20G<68 242 242 242> 761 160<-24 236 74 93 217 217 217 236 74 334>
VStem: 68 174<0 710 0 710>
AnchorPoint: "Anchor-3" 198.993 710 basechar 0
AnchorPoint: "Anchor-2" 160.802 0 basechar 0
AnchorPoint: "Anchor-0" 73.8018 0 basechar 0
LayerCount: 2
Fore
SplineSet
28.986328125 761 m 1
 155.198242188 921 l 1
 317.198242188 921 l 1
 386.986328125 761 l 1
 269.986328125 761 l 1
 223.6796875 850 l 1
 145.986328125 761 l 1
 28.986328125 761 l 1
-13.1982421875 0 m 1
 111.993164062 710 l 1
 285.993164062 710 l 1
 160.801757812 0 l 1
 -13.1982421875 0 l 1
EndSplineSet
Validated: 1
Substitution2: "'ss05' Style Set 5 in Latin lookup 38 subtable" Icircumflex.ss05
Substitution2: "'aalt' Access All Alternates in Latin lookup 0 subtable" Icircumflex.ss05
EndChar

StartChar: Idieresis
Encoding: 207 207 51
Width: 310
GlyphClass: 2
Flags: HMW
HStem: 0 21G<68 68 68 242> 690 20G<68 242 242 242> 767 128<-40 122 -40 122 188 350 -40 188>
VStem: -40 162<767 895 767 895> 68 54 68 174<0 710 0 710> 188 54 188 162<767 895 767 895>
AnchorPoint: "Anchor-3" 201.286 710 basechar 0
AnchorPoint: "Anchor-2" 163.094 0 basechar 0
AnchorPoint: "Anchor-0" 76.0938 0 basechar 0
LayerCount: 2
Fore
SplineSet
16.3369140625 767 m 1xf0
 38.90625 895 l 1xf2
 200.90625 895 l 1
 178.336914062 767 l 1xe8
 16.3369140625 767 l 1xf0
244.336914062 767 m 1
 266.90625 895 l 1xe2
 428.90625 895 l 1
 406.336914062 767 l 1xe1
 244.336914062 767 l 1
-10.90625 0 m 1xe4
 114.286132812 710 l 1
 288.286132812 710 l 1
 163.09375 0 l 1
 -10.90625 0 l 1xe4
EndSplineSet
Validated: 1
Substitution2: "'ss08' Style Set 8 in Latin lookup 41 subtable" Idieresis.ss08
Substitution2: "'ss05' Style Set 5 in Latin lookup 38 subtable" Idieresis.ss05
AlternateSubs2: "'aalt' Access All Alternates in Latin lookup 1 subtable" Idieresis.ss05 Idieresis.ss08
EndChar

StartChar: Idotaccent
Encoding: 304 304 52
Width: 310
GlyphClass: 2
Flags: HMW
HStem: 0 21G<68 68 68 242> 690 20G<68 242 242 242> 770 128<66 244 66 244>
VStem: 66 176<0 898> 68 174<0 710 0 710> 68 176<0 898 710 898>
AnchorPoint: "Anchor-3" 201.021 710 basechar 0
AnchorPoint: "Anchor-2" 162.829 0 basechar 0
AnchorPoint: "Anchor-0" 75.8291 0 basechar 0
LayerCount: 2
Fore
SplineSet
122.600585938 770 m 1xf0
 145.170898438 898 l 1xf0
 323.170898438 898 l 1
 300.600585938 770 l 1xe4
 122.600585938 770 l 1xf0
-11.1708984375 0 m 1xe8
 114.021484375 710 l 1
 288.021484375 710 l 1
 162.829101562 0 l 1
 -11.1708984375 0 l 1xe8
EndSplineSet
Validated: 1
Substitution2: "'ss08' Style Set 8 in Latin lookup 41 subtable" Idotaccent.ss08
Substitution2: "'ss05' Style Set 5 in Latin lookup 38 subtable" Idotaccent.ss05
AlternateSubs2: "'aalt' Access All Alternates in Latin lookup 1 subtable" Idotaccent.ss05 Idotaccent.ss08
EndChar

StartChar: Igrave
Encoding: 204 204 53
Width: 310
GlyphClass: 2
Flags: HMW
HStem: 0 21G<68 68 68 242> 690 20G<68 242 242 242> 768 153<102 102 102 174 12 231>
VStem: 68 174<0 710 0 710>
AnchorPoint: "Anchor-3" 198.993 710 basechar 0
AnchorPoint: "Anchor-2" 160.802 0 basechar 0
AnchorPoint: "Anchor-0" 73.8018 0 basechar 0
LayerCount: 2
Fore
SplineSet
156.220703125 768 m 1
 93.1982421875 921 l 1
 255.198242188 921 l 1
 285.220703125 768 l 1
 156.220703125 768 l 1
-13.1982421875 0 m 1
 111.993164062 710 l 1
 285.993164062 710 l 1
 160.801757812 0 l 1
 -13.1982421875 0 l 1
EndSplineSet
Validated: 1
Substitution2: "'ss05' Style Set 5 in Latin lookup 38 subtable" Igrave.ss05
Substitution2: "'aalt' Access All Alternates in Latin lookup 0 subtable" Igrave.ss05
EndChar

StartChar: Imacron
Encoding: 298 298 54
Width: 310
GlyphClass: 2
Flags: HMW
HStem: 0 21G<68 68 68 242> 690 20G<68 242 242 242> 773 122<0 310 0 310>
VStem: 68 174<0 710 0 710>
AnchorPoint: "Anchor-3" 201.286 710 basechar 0
AnchorPoint: "Anchor-2" 163.094 0 basechar 0
AnchorPoint: "Anchor-0" 76.0938 0 basechar 0
LayerCount: 2
Fore
SplineSet
57.39453125 773 m 1
 78.90625 895 l 1
 388.90625 895 l 1
 367.39453125 773 l 1
 57.39453125 773 l 1
-10.90625 0 m 1
 114.286132812 710 l 1
 288.286132812 710 l 1
 163.09375 0 l 1
 -10.90625 0 l 1
EndSplineSet
Validated: 1
Substitution2: "'ss05' Style Set 5 in Latin lookup 38 subtable" Imacron.ss05
Substitution2: "'aalt' Access All Alternates in Latin lookup 0 subtable" Imacron.ss05
EndChar

StartChar: Iogonek
Encoding: 302 302 55
Width: 310
GlyphClass: 2
Flags: HMW
HStem: -220 97<128 215> 0 21G<68 68 68 108 242 242> 690 20G<68 242 242 242>
VStem: 46 136<-158.5 -90> 68 114<-106.5 710> 68 174<0 710 0 710>
AnchorPoint: "Anchor-3" 236.992 710 basechar 0
AnchorPoint: "Anchor-2" 198.8 0 basechar 0
AnchorPoint: "Anchor-0" 111.8 0 basechar 0
LayerCount: 2
Fore
SplineSet
24.7998046875 0 m 1xe4
 149.9921875 710 l 1
 323.9921875 710 l 1
 198.799804688 0 l 1xe4
 163.275390625 -37 l 2
 142.043945312 -61 124.340820312 -82 121.51953125 -98 c 0xe8
 118.522460938 -115 129.111328125 -123 142.111328125 -123 c 0
 158.111328125 -123 178.169921875 -117 188.404296875 -110 c 1
 201.592773438 -194 l 1
 180.124023438 -208 130.0078125 -220 84.0078125 -220 c 0
 8.0078125 -220 -30.349609375 -188 -19.9462890625 -129 c 0xf0
 -12.716796875 -88 17.9833984375 -50 46.44921875 -19 c 2
 64.7998046875 0 l 1
 24.7998046875 0 l 1xe4
EndSplineSet
Validated: 33
Substitution2: "'ss05' Style Set 5 in Latin lookup 38 subtable" Iogonek.ss05
Substitution2: "'aalt' Access All Alternates in Latin lookup 0 subtable" Iogonek.ss05
EndChar

StartChar: Itilde
Encoding: 296 296 56
Width: 310
GlyphClass: 2
Flags: HMW
HStem: 0 21G<68 68 68 242> 690 20G<68 242 242 242> 764 150<57 61 -21 110> 769 100<206.5 221.5 206.5 249> 769 152<248 249> 814 100<89 104>
VStem: -21 82<764 809> 68 174<0 710 0 710> 248 82<874.5 921>
AnchorPoint: "Anchor-3" 198.993 710 basechar 0
AnchorPoint: "Anchor-2" 160.802 0 basechar 0
AnchorPoint: "Anchor-0" 73.8018 0 basechar 0
LayerCount: 2
Fore
SplineSet
264.396484375 769 m 0xc880
 232.396484375 769 214.630859375 776 191.686523438 799 c 0
 180.450195312 809 172.33203125 814 160.33203125 814 c 0xc6
 142.33203125 814 125.391601562 803 114.515625 764 c 1
 32.515625 764 l 1
 48.384765625 854 99.9638671875 914 173.963867188 914 c 0xe2
 205.963867188 914 229.73046875 907 252.850585938 885 c 0
 264.911132812 874 273.029296875 869 284.029296875 869 c 0xd080
 303.029296875 869 319.96875 880 329.198242188 921 c 1
 411.198242188 921 l 1
 394.799804688 828 342.396484375 769 264.396484375 769 c 0xc880
-13.1982421875 0 m 1xe1
 111.993164062 710 l 1
 285.993164062 710 l 1
 160.801757812 0 l 1
 -13.1982421875 0 l 1xe1
EndSplineSet
Validated: 1
Substitution2: "'ss05' Style Set 5 in Latin lookup 38 subtable" Itilde.ss05
Substitution2: "'aalt' Access All Alternates in Latin lookup 0 subtable" Itilde.ss05
EndChar

StartChar: J
Encoding: 74 74 57
Width: 637
GlyphClass: 2
Flags: HMW
HStem: -16 142<285 344.5 285 395> 690 20G<410 584 584 584>
VStem: 43 174<260 268> 410 174<258 710>
AnchorPoint: "Anchor-3" 561.007 710 basechar 0
LayerCount: 2
Fore
SplineSet
250.993164062 -16 m 0
 73.9931640625 -16 1.6240234375 101 27.6591796875 260 c 1
 203.0703125 268 l 1
 187.614257812 169 216.03125 126 276.03125 126 c 0
 335.03125 126 378.260742188 167 394.306640625 258 c 2
 474.006835938 710 l 1
 648.006835938 710 l 1
 568.306640625 258 l 2
 538.860351562 91 410.993164062 -16 250.993164062 -16 c 0
EndSplineSet
Validated: 33
Substitution2: "Single Substitution lookup 16 subtable" uni004A0301
Substitution2: "'aalt' Access All Alternates in Latin lookup 0 subtable" uni004A0301
EndChar

StartChar: uni004A0301
Encoding: 65537 -1 58
Width: 637
GlyphClass: 2
Flags: HMW
HStem: -16 142<285 344.5 285 395> 690 20G<410 584 584 584> 761 154<419 638 475 548>
VStem: 43 174<260 268> 410 174<258 710>
AnchorPoint: "Anchor-3" 542.934 710 basechar 0
LayerCount: 2
Fore
SplineSet
473.92578125 761 m 1
 557.080078125 915 l 1
 720.080078125 915 l 1
 602.92578125 761 l 1
 473.92578125 761 l 1
232.919921875 -16 m 0
 55.919921875 -16 -16.4501953125 101 9.5859375 260 c 1
 184.997070312 268 l 1
 169.540039062 169 197.958007812 126 257.958007812 126 c 0
 316.958007812 126 360.1875 167 376.233398438 258 c 2
 455.93359375 710 l 1
 629.93359375 710 l 1
 550.233398438 258 l 2
 520.787109375 91 392.919921875 -16 232.919921875 -16 c 0
EndSplineSet
Validated: 33
EndChar

StartChar: Jcircumflex
Encoding: 308 308 59
Width: 637
GlyphClass: 2
Flags: HMW
HStem: -16 142<285 344.5 285 395> 690 20G<410 584 584 584> 761 160<319 578 417 435 559 559 559 578 417 676>
VStem: 43 174<260 268> 410 174<258 710>
AnchorPoint: "Anchor-3" 542.404 710 basechar 0
LayerCount: 2
Fore
SplineSet
373.396484375 761 m 1
 499.609375 921 l 1
 660.609375 921 l 1
 730.396484375 761 l 1
 613.396484375 761 l 1
 567.08984375 850 l 1
 489.396484375 761 l 1
 373.396484375 761 l 1
232.390625 -16 m 0
 55.390625 -16 -16.978515625 101 9.056640625 260 c 1
 184.467773438 268 l 1
 169.01171875 169 197.4296875 126 257.4296875 126 c 0
 316.4296875 126 359.658203125 167 375.704101562 258 c 2
 455.404296875 710 l 1
 629.404296875 710 l 1
 549.704101562 258 l 2
 520.2578125 91 392.390625 -16 232.390625 -16 c 0
EndSplineSet
Validated: 33
EndChar

StartChar: K
Encoding: 75 75 60
Width: 705
GlyphClass: 2
Flags: HMW
HStem: 0 21G<68 68 68 242 499 499 499 694> 690 20G<68 242 242 242 479 679 679 679>
VStem: 68 174<0 199 415 710>
AnchorPoint: "Anchor-3" 414.596 710 basechar 0
AnchorPoint: "Anchor-0" 298.404 0 basechar 0
LayerCount: 2
Fore
SplineSet
5.404296875 0 m 1
 130.595703125 710 l 1
 304.595703125 710 l 1
 252.580078125 415 l 1
 541.595703125 710 l 1
 741.595703125 710 l 1
 431.052734375 395 l 1
 631.404296875 0 l 1
 436.404296875 0 l 1
 296.775390625 280 l 1
 214.493164062 199 l 1
 179.404296875 0 l 1
 5.404296875 0 l 1
EndSplineSet
Validated: 1
EndChar

StartChar: uni01E8
Encoding: 488 488 61
Width: 705
GlyphClass: 2
Flags: HMW
HStem: 0 21G<68 68 68 242 499 499 499 694> 690 20G<68 242 242 242 479 679 679 679> 761 160<271 290 414 433 271 271>
VStem: 68 174<0 199 415 710>
AnchorPoint: "Anchor-3" 395.993 710 basechar 0
AnchorPoint: "Anchor-0" 279.802 0 basechar 0
LayerCount: 2
Fore
SplineSet
254.198242188 921 m 1
 371.198242188 921 l 1
 417.505859375 832 l 1
 495.198242188 921 l 1
 612.198242188 921 l 1
 485.986328125 761 l 1
 323.986328125 761 l 1
 254.198242188 921 l 1
-13.1982421875 0 m 1
 111.993164062 710 l 1
 285.993164062 710 l 1
 233.977539062 415 l 1
 522.993164062 710 l 1
 722.993164062 710 l 1
 412.450195312 395 l 1
 612.801757812 0 l 1
 417.801757812 0 l 1
 278.172851562 280 l 1
 195.890625 199 l 1
 160.801757812 0 l 1
 -13.1982421875 0 l 1
EndSplineSet
Validated: 1
EndChar

StartChar: uni0136
Encoding: 310 310 62
Width: 705
GlyphClass: 2
Flags: HMW
HStem: -173 126<291 325 291 431> 0 21G<68 68 68 242 499 499 499 694> 690 20G<68 242 242 242 479 679 679 679>
VStem: 68 174<0 199 415 710> 291 140<-160 -47 -160 -47 -160 -47>
AnchorPoint: "Anchor-3" 437.342 710 basechar 0
AnchorPoint: "Anchor-0" 275.658 -258 basechar 0
LayerCount: 2
Fore
SplineSet
28.150390625 0 m 1
 153.341796875 710 l 1
 327.341796875 710 l 1
 275.326171875 415 l 1
 564.341796875 710 l 1
 764.341796875 710 l 1
 453.798828125 395 l 1
 654.150390625 0 l 1
 459.150390625 0 l 1
 319.521484375 280 l 1
 237.239257812 199 l 1
 202.150390625 0 l 1
 28.150390625 0 l 1
188.658203125 -258 m 1
 254.645507812 -173 l 1
 220.645507812 -173 l 1
 242.862304688 -47 l 1
 382.862304688 -47 l 1
 362.9375 -160 l 1
 286.658203125 -258 l 1
 188.658203125 -258 l 1
EndSplineSet
Validated: 1
EndChar

StartChar: L
Encoding: 76 76 63
Width: 592
GlyphClass: 2
Flags: HMW
HStem: 0 142<242 560 242 560> 690 20G<68 242 242 242>
VStem: 68 174<142 710 142 710 142 710>
AnchorPoint: "Anchor-4" 388.268 538 basechar 0
AnchorPoint: "Anchor-3" 217.596 710 basechar 0
AnchorPoint: "Anchor-1" 191.408 380 basechar 0
AnchorPoint: "Anchor-0" 251.404 0 basechar 0
LayerCount: 2
Fore
SplineSet
5.404296875 0 m 1
 130.595703125 710 l 1
 304.595703125 710 l 1
 204.442382812 142 l 1
 522.442382812 142 l 1
 497.404296875 0 l 1
 5.404296875 0 l 1
EndSplineSet
Validated: 1
EndChar

StartChar: Lacute
Encoding: 313 313 64
Width: 592
GlyphClass: 2
Flags: HMW
HStem: 0 142<242 560 242 560> 690 20G<68 242 242 242> 761 154<76 296 133 206>
VStem: 68 174<142 710 142 710 142 710>
AnchorPoint: "Anchor-4" 370.194 538 basechar 0
AnchorPoint: "Anchor-3" 199.522 710 basechar 0
AnchorPoint: "Anchor-1" 173.335 380 basechar 0
AnchorPoint: "Anchor-0" 233.33 0 basechar 0
LayerCount: 2
Fore
SplineSet
129.515625 761 m 1
 213.669921875 915 l 1
 376.669921875 915 l 1
 259.515625 761 l 1
 129.515625 761 l 1
-12.669921875 0 m 1
 112.522460938 710 l 1
 286.522460938 710 l 1
 186.369140625 142 l 1
 504.369140625 142 l 1
 479.330078125 0 l 1
 -12.669921875 0 l 1
EndSplineSet
Validated: 1
EndChar

StartChar: Lcaron
Encoding: 317 317 65
Width: 592
GlyphClass: 2
Flags: HMW
HStem: 0 142<242 560 242 560> 413 297<68 376 404 494> 690 20G<68 242 242 242 404 549 549 549>
VStem: 68 174<142 710 142 710 142 710>
AnchorPoint: "Anchor-4" 388.268 538 basechar 0
AnchorPoint: "Anchor-3" 217.596 710 basechar 0
AnchorPoint: "Anchor-1" 191.408 380 basechar 0
AnchorPoint: "Anchor-0" 251.404 0 basechar 0
LayerCount: 2
Fore
SplineSet
5.404296875 0 m 1xb0
 130.595703125 710 l 1
 304.595703125 710 l 1
 204.442382812 142 l 1
 522.442382812 142 l 1
 497.404296875 0 l 1
 5.404296875 0 l 1xb0
386.2265625 413 m 1xd0
 466.595703125 710 l 1
 611.595703125 710 l 1
 504.2265625 413 l 1
 386.2265625 413 l 1xd0
EndSplineSet
Validated: 1
EndChar

StartChar: uni013B
Encoding: 315 315 66
Width: 592
GlyphClass: 2
Flags: HMW
HStem: -173 126<244 278 244 384> 0 142<242 560 242 560> 690 20G<68 242 242 242>
VStem: 68 174<142 710 142 710 142 710> 244 140<-160 -47 -160 -47 -160 -47>
AnchorPoint: "Anchor-4" 411.014 538 basechar 0
AnchorPoint: "Anchor-3" 240.342 710 basechar 0
AnchorPoint: "Anchor-1" 214.154 380 basechar 0
AnchorPoint: "Anchor-0" 228.658 -258 basechar 0
LayerCount: 2
Fore
SplineSet
28.150390625 0 m 1
 153.341796875 710 l 1
 327.341796875 710 l 1
 227.188476562 142 l 1
 545.188476562 142 l 1
 520.150390625 0 l 1
 28.150390625 0 l 1
141.658203125 -258 m 1
 207.645507812 -173 l 1
 173.645507812 -173 l 1
 195.862304688 -47 l 1
 335.862304688 -47 l 1
 315.9375 -160 l 1xe8
 239.658203125 -258 l 1
 141.658203125 -258 l 1
EndSplineSet
Validated: 1
Substitution2: "'locl' Localized Forms in Latin lookup 11 subtable" uni013B.loclMAH
Substitution2: "'aalt' Access All Alternates in Latin lookup 0 subtable" uni013B.loclMAH
EndChar

StartChar: Lslash
Encoding: 321 321 67
Width: 592
GlyphClass: 2
Flags: HMW
HStem: 0 142<242 560 242 560> 690 20G<68 242 242 242>
VStem: 68 174<142 268 268 268 461 710>
AnchorPoint: "Anchor-4" 388.268 538 basechar 0
AnchorPoint: "Anchor-3" 217.596 710 basechar 0
AnchorPoint: "Anchor-1" 191.408 380 basechar 0
AnchorPoint: "Anchor-0" 251.404 0 basechar 0
LayerCount: 2
Fore
SplineSet
5.404296875 0 m 1
 52.6591796875 268 l 1
 -20.9833984375 236 l 1
 -1.41015625 347 l 1
 72.2314453125 379 l 1
 130.595703125 710 l 1
 304.595703125 710 l 1
 260.690429688 461 l 1
 403.798828125 524 l 1
 384.05078125 412 l 1
 241.118164062 350 l 1
 204.442382812 142 l 1
 522.442382812 142 l 1
 497.404296875 0 l 1
 5.404296875 0 l 1
EndSplineSet
Validated: 1
EndChar

StartChar: M
Encoding: 77 77 68
Width: 927
GlyphClass: 2
Flags: HMW
HStem: 0 21G<68 68 68 242 685 685 685 859> 690 20G<68 298 298 298 629 859 859 859>
VStem: 68 174<0 430 0 710> 685 174<0 430 430 430>
AnchorPoint: "Anchor-3" 526.596 710 basechar 0
AnchorPoint: "Anchor-0" 401.404 0 basechar 0
LayerCount: 2
Fore
SplineSet
5.404296875 0 m 1
 130.595703125 710 l 1
 360.595703125 710 l 1
 441.25390625 226 l 1
 691.595703125 710 l 1
 921.595703125 710 l 1
 796.404296875 0 l 1
 622.404296875 0 l 1
 698.224609375 430 l 1
 467.756835938 2 l 1
 333.756835938 2 l 1
 255.224609375 430 l 1
 179.404296875 0 l 1
 5.404296875 0 l 1
EndSplineSet
Validated: 1
EndChar

StartChar: N
Encoding: 78 78 69
Width: 753
GlyphClass: 2
Flags: HMW
HStem: 0 21G<68 68 68 242 501 501 501 685> 690 20G<68 251 251 251 511 685 685 685>
VStem: 68 174<0 426 0 710> 511 174<265 710 0 710>
AnchorPoint: "Anchor-3" 442.596 710 basechar 0
AnchorPoint: "Anchor-0" 310.404 0 basechar 0
LayerCount: 2
Fore
SplineSet
5.404296875 0 m 1
 130.595703125 710 l 1
 313.595703125 710 l 1
 495.130859375 265 l 1
 573.595703125 710 l 1
 747.595703125 710 l 1
 622.404296875 0 l 1
 438.404296875 0 l 1
 254.51953125 426 l 1
 179.404296875 0 l 1
 5.404296875 0 l 1
EndSplineSet
Validated: 1
EndChar

StartChar: Nacute
Encoding: 323 323 70
Width: 753
GlyphClass: 2
Flags: HMW
HStem: 0 21G<68 68 68 242 501 501 501 685> 690 20G<68 251 251 251 511 685 685 685> 761 154<301 520 357 430>
VStem: 68 174<0 426 0 710> 511 174<265 710 0 710>
AnchorPoint: "Anchor-3" 424.522 710 basechar 0
AnchorPoint: "Anchor-0" 292.33 0 basechar 0
LayerCount: 2
Fore
SplineSet
354.515625 761 m 1
 437.669921875 915 l 1
 600.669921875 915 l 1
 483.515625 761 l 1
 354.515625 761 l 1
-12.669921875 0 m 1
 112.522460938 710 l 1
 295.522460938 710 l 1
 477.056640625 265 l 1
 555.522460938 710 l 1
 729.522460938 710 l 1
 604.330078125 0 l 1
 420.330078125 0 l 1
 236.4453125 426 l 1
 161.330078125 0 l 1
 -12.669921875 0 l 1
EndSplineSet
Validated: 1
EndChar

StartChar: Ncaron
Encoding: 327 327 71
Width: 753
GlyphClass: 2
Flags: HMW
HStem: 0 21G<68 68 68 242 501 501 501 685> 690 20G<68 251 251 251 511 685 685 685> 761 160<299 317 442 460 299 299>
VStem: 68 174<0 426 0 710> 511 174<265 710 0 710>
AnchorPoint: "Anchor-3" 423.993 710 basechar 0
AnchorPoint: "Anchor-0" 291.802 0 basechar 0
LayerCount: 2
Fore
SplineSet
282.198242188 921 m 1
 398.198242188 921 l 1
 445.505859375 832 l 1
 523.198242188 921 l 1
 639.198242188 921 l 1
 512.986328125 761 l 1
 351.986328125 761 l 1
 282.198242188 921 l 1
-13.1982421875 0 m 1
 111.993164062 710 l 1
 294.993164062 710 l 1
 476.528320312 265 l 1
 554.993164062 710 l 1
 728.993164062 710 l 1
 603.801757812 0 l 1
 419.801757812 0 l 1
 235.916992188 426 l 1
 160.801757812 0 l 1
 -13.1982421875 0 l 1
EndSplineSet
Validated: 1
EndChar

StartChar: uni0145
Encoding: 325 325 72
Width: 753
GlyphClass: 2
Flags: HMW
HStem: -173 126<303 337 303 443> 0 21G<68 68 68 242 501 501 501 685> 690 20G<68 251 251 251 511 685 685 685>
VStem: 68 174<0 426 0 710> 303 140<-160 -47 -160 -47 -160 -47> 511 174<265 710 0 710>
AnchorPoint: "Anchor-3" 465.342 710 basechar 0
AnchorPoint: "Anchor-0" 287.658 -258 basechar 0
LayerCount: 2
Fore
SplineSet
28.150390625 0 m 1
 153.341796875 710 l 1
 336.341796875 710 l 1
 517.876953125 265 l 1
 596.341796875 710 l 1
 770.341796875 710 l 1
 645.150390625 0 l 1
 461.150390625 0 l 1
 277.265625 426 l 1
 202.150390625 0 l 1
 28.150390625 0 l 1
200.658203125 -258 m 1
 266.645507812 -173 l 1
 232.645507812 -173 l 1
 254.862304688 -47 l 1
 394.862304688 -47 l 1
 374.9375 -160 l 1
 298.658203125 -258 l 1
 200.658203125 -258 l 1
EndSplineSet
Validated: 1
Substitution2: "'locl' Localized Forms in Latin lookup 11 subtable" uni0145.loclMAH
Substitution2: "'aalt' Access All Alternates in Latin lookup 0 subtable" uni0145.loclMAH
EndChar

StartChar: Ntilde
Encoding: 209 209 73
Width: 753
GlyphClass: 2
Flags: HMW
HStem: 0 21G<68 68 68 242 501 501 501 685> 690 20G<68 251 251 251 511 685 685 685> 764 150<282 286 203 335> 769 100<431.5 446.5 431.5 473.5> 769 152<473 473.5> 814 100<313.5 328>
VStem: 68 174<0 426 0 710> 203 83<764 764> 473 82<921 921> 511 174<265 710 0 710>
AnchorPoint: "Anchor-3" 423.993 710 basechar 0
AnchorPoint: "Anchor-0" 291.802 0 basechar 0
LayerCount: 2
Fore
SplineSet
489.396484375 769 m 0xca80
 456.396484375 769 438.630859375 776 416.686523438 799 c 0
 405.450195312 809 396.33203125 814 384.33203125 814 c 0xc540
 367.33203125 814 349.391601562 803 339.515625 764 c 1
 256.515625 764 l 1
 273.384765625 854 324.963867188 914 398.963867188 914 c 0xe140
 430.963867188 914 453.73046875 907 476.850585938 885 c 0
 489.911132812 874 498.029296875 869 509.029296875 869 c 0xd280
 528.029296875 869 543.96875 880 554.198242188 921 c 1
 636.198242188 921 l 1
 618.799804688 828 566.396484375 769 489.396484375 769 c 0xca80
-13.1982421875 0 m 1xe240
 111.993164062 710 l 1
 294.993164062 710 l 1
 476.528320312 265 l 1
 554.993164062 710 l 1
 728.993164062 710 l 1
 603.801757812 0 l 1
 419.801757812 0 l 1
 235.916992188 426 l 1
 160.801757812 0 l 1
 -13.1982421875 0 l 1xe240
EndSplineSet
Validated: 1
EndChar

StartChar: Eng
Encoding: 330 330 74
Width: 753
GlyphClass: 2
Flags: HMW
HStem: -166 112<380 472 472 488.5 380 519 380 472> 0 21G<68 68 68 242 501 501 501 521> 690 20G<68 251 251 251 511 685 685 685>
VStem: 68 174<0 427 0 710> 511 174<265 710> 521 164<-8 -5 -5 0 0 0>
AnchorPoint: "Anchor-3" 454.231 710 basechar 0
AnchorPoint: "Anchor-0" 302.59 -150 basechar 0
LayerCount: 2
Fore
SplineSet
20.0390625 0 m 1xf4
 145.231445312 710 l 1
 328.231445312 710 l 1
 509.765625 265 l 1
 588.231445312 710 l 1
 762.231445312 710 l 1
 636.157226562 -5 l 2xf8
 618.348632812 -106 553.768554688 -166 441.768554688 -166 c 2
 302.768554688 -166 l 1
 322.517578125 -54 l 1
 414.517578125 -54 l 2
 447.517578125 -54 465.280273438 -44 471.62890625 -8 c 2
 473.0390625 0 l 1
 453.0390625 0 l 1
 269.331054688 427 l 1
 194.0390625 0 l 1
 20.0390625 0 l 1xf4
EndSplineSet
Validated: 1
EndChar

StartChar: O
Encoding: 79 79 75
Width: 788
GlyphClass: 2
Flags: HMW
HStem: -16 142<339.5 448.5 339.5 504> 584 142<339.5 448.5>
VStem: 41 179<281.5 426.5 281.5 468> 568 179<281.5 426.5>
AnchorPoint: "Anchor-3" 456.596 710 basechar 0
AnchorPoint: "Anchor-1" 394 355 basechar 0
AnchorPoint: "Anchor-0" 331.404 0 basechar 0
LayerCount: 2
Fore
SplineSet
328.583007812 -16 m 0
 107.583007812 -16 0.62109375 126 40.8232421875 354 c 0
 81.0263671875 582 238.416992188 726 459.416992188 726 c 0
 679.416992188 726 787.026367188 582 746.823242188 354 c 0
 706.62109375 126 548.583007812 -16 328.583007812 -16 c 0
353.62109375 126 m 0
 462.62109375 126 542.255859375 209 567.823242188 354 c 0
 593.390625 499 543.37890625 584 434.37890625 584 c 0
 325.37890625 584 245.390625 499 219.823242188 354 c 0
 194.255859375 209 244.62109375 126 353.62109375 126 c 0
EndSplineSet
Validated: 33
Substitution2: "Single Substitution lookup 27 subtable" ordmasculine
Substitution2: "'aalt' Access All Alternates in Latin lookup 0 subtable" ordmasculine
EndChar

StartChar: Oacute
Encoding: 211 211 76
Width: 788
GlyphClass: 2
Flags: HMW
HStem: -16 142<339.5 448.5 339.5 504> 584 142<339.5 448.5> 761 154<315 534 372 444>
VStem: 41 179<281.5 426.5 281.5 468> 568 179<281.5 426.5>
AnchorPoint: "Anchor-3" 439.934 710 basechar 0
AnchorPoint: "Anchor-1" 377.337 355 basechar 0
AnchorPoint: "Anchor-0" 314.741 0 basechar 0
LayerCount: 2
Fore
SplineSet
369.92578125 761 m 1
 454.080078125 915 l 1
 616.080078125 915 l 1
 498.92578125 761 l 1
 369.92578125 761 l 1
311.919921875 -16 m 0
 90.919921875 -16 -16.0419921875 126 24.1611328125 354 c 0
 64.36328125 582 221.754882812 726 442.754882812 726 c 0
 662.754882812 726 770.36328125 582 730.161132812 354 c 0
 689.958007812 126 531.919921875 -16 311.919921875 -16 c 0
336.958007812 126 m 0
 445.958007812 126 525.59375 209 551.161132812 354 c 0
 576.728515625 499 526.715820312 584 417.715820312 584 c 0
 308.715820312 584 228.728515625 499 203.161132812 354 c 0
 177.59375 209 227.958007812 126 336.958007812 126 c 0
EndSplineSet
Validated: 33
EndChar

StartChar: Ocircumflex
Encoding: 212 212 77
Width: 788
GlyphClass: 2
Flags: HMW
HStem: -16 142<339.5 448.5 339.5 504> 584 142<339.5 448.5> 761 160<215 474 313 332 456 456 456 474 313 572>
VStem: 41 179<281.5 426.5 281.5 468> 568 179<281.5 426.5>
AnchorPoint: "Anchor-3" 439.404 710 basechar 0
AnchorPoint: "Anchor-1" 376.809 355 basechar 0
AnchorPoint: "Anchor-0" 314.212 0 basechar 0
LayerCount: 2
Fore
SplineSet
269.396484375 761 m 1
 395.609375 921 l 1
 556.609375 921 l 1
 626.396484375 761 l 1
 510.396484375 761 l 1
 464.08984375 850 l 1
 386.396484375 761 l 1
 269.396484375 761 l 1
311.390625 -16 m 0
 90.390625 -16 -16.5703125 126 23.6318359375 354 c 0
 63.833984375 582 221.225585938 726 442.225585938 726 c 0
 662.225585938 726 769.833984375 582 729.631835938 354 c 0
 689.4296875 126 531.390625 -16 311.390625 -16 c 0
336.4296875 126 m 0
 445.4296875 126 525.064453125 209 550.631835938 354 c 0
 576.19921875 499 526.186523438 584 417.186523438 584 c 0
 308.186523438 584 228.19921875 499 202.631835938 354 c 0
 177.064453125 209 227.4296875 126 336.4296875 126 c 0
EndSplineSet
Validated: 33
EndChar

StartChar: Odieresis
Encoding: 214 214 78
Width: 788
GlyphClass: 2
Flags: HMW
HStem: -16 142<339.5 448.5 339.5 504> 584 142<339.5 448.5> 767 128<199 360 199 360 427 589 199 427>
VStem: 41 179<281.5 426.5 281.5 468> 199 161<767 895 767 895> 427 162<767 895 767 895> 568 179<281.5 426.5>
AnchorPoint: "Anchor-3" 441.696 710 basechar 0
AnchorPoint: "Anchor-1" 379.101 355 basechar 0
AnchorPoint: "Anchor-0" 316.504 0 basechar 0
LayerCount: 2
Fore
SplineSet
256.747070312 767 m 1xec
 279.317382812 895 l 1
 440.317382812 895 l 1
 417.747070312 767 l 1
 256.747070312 767 l 1xec
484.747070312 767 m 1
 507.317382812 895 l 1
 669.317382812 895 l 1
 646.747070312 767 l 1
 484.747070312 767 l 1
313.682617188 -16 m 0
 92.6826171875 -16 -14.2783203125 126 25.923828125 354 c 0
 66.126953125 582 223.517578125 726 444.517578125 726 c 0
 664.517578125 726 772.126953125 582 731.923828125 354 c 0xf2
 691.721679688 126 533.682617188 -16 313.682617188 -16 c 0
338.721679688 126 m 0
 447.721679688 126 527.356445312 209 552.923828125 354 c 0
 578.491210938 499 528.479492188 584 419.479492188 584 c 0
 310.479492188 584 230.491210938 499 204.923828125 354 c 0
 179.356445312 209 229.721679688 126 338.721679688 126 c 0
EndSplineSet
Validated: 33
Substitution2: "'ss08' Style Set 8 in Latin lookup 41 subtable" Odieresis.ss08
Substitution2: "'aalt' Access All Alternates in Latin lookup 0 subtable" Odieresis.ss08
EndChar

StartChar: Ograve
Encoding: 210 210 79
Width: 788
GlyphClass: 2
Flags: HMW
HStem: -16 142<339.5 448.5 339.5 504> 584 142<339.5 448.5> 768 153<340 340 340 413 250 470>
VStem: 41 179<281.5 426.5 281.5 468> 568 179<281.5 426.5>
AnchorPoint: "Anchor-3" 439.404 710 basechar 0
AnchorPoint: "Anchor-1" 376.809 355 basechar 0
AnchorPoint: "Anchor-0" 314.212 0 basechar 0
LayerCount: 2
Fore
SplineSet
395.630859375 768 m 1
 332.609375 921 l 1
 495.609375 921 l 1
 525.630859375 768 l 1
 395.630859375 768 l 1
311.390625 -16 m 0
 90.390625 -16 -16.5703125 126 23.6318359375 354 c 0
 63.833984375 582 221.225585938 726 442.225585938 726 c 0
 662.225585938 726 769.833984375 582 729.631835938 354 c 0
 689.4296875 126 531.390625 -16 311.390625 -16 c 0
336.4296875 126 m 0
 445.4296875 126 525.064453125 209 550.631835938 354 c 0
 576.19921875 499 526.186523438 584 417.186523438 584 c 0
 308.186523438 584 228.19921875 499 202.631835938 354 c 0
 177.064453125 209 227.4296875 126 336.4296875 126 c 0
EndSplineSet
Validated: 33
EndChar

StartChar: Ohungarumlaut
Encoding: 336 336 80
Width: 788
GlyphClass: 2
Flags: HMW
HStem: -16 142<339.5 448.5 339.5 504> 584 142<339.5 448.5> 761 154<234 453 290 363 426 453 483 556 426 426>
VStem: 41 179<281.5 426.5 281.5 468> 568 179<281.5 426.5>
AnchorPoint: "Anchor-3" 439.934 710 basechar 0
AnchorPoint: "Anchor-1" 377.337 355 basechar 0
AnchorPoint: "Anchor-0" 314.741 0 basechar 0
LayerCount: 2
Fore
SplineSet
288.92578125 761 m 1
 372.080078125 915 l 1
 535.080078125 915 l 1
 417.92578125 761 l 1
 288.92578125 761 l 1
480.92578125 761 m 1
 565.080078125 915 l 1
 728.080078125 915 l 1
 610.92578125 761 l 1
 480.92578125 761 l 1
311.919921875 -16 m 0
 90.919921875 -16 -16.0419921875 126 24.1611328125 354 c 0
 64.36328125 582 221.754882812 726 442.754882812 726 c 0
 662.754882812 726 770.36328125 582 730.161132812 354 c 0
 689.958007812 126 531.919921875 -16 311.919921875 -16 c 0
336.958007812 126 m 0
 445.958007812 126 525.59375 209 551.161132812 354 c 0
 576.728515625 499 526.715820312 584 417.715820312 584 c 0
 308.715820312 584 228.728515625 499 203.161132812 354 c 0
 177.59375 209 227.958007812 126 336.958007812 126 c 0
EndSplineSet
Validated: 33
EndChar

StartChar: Omacron
Encoding: 332 332 81
Width: 788
GlyphClass: 2
Flags: HMW
HStem: -16 142<339.5 448.5 339.5 504> 584 142<339.5 448.5> 773 122<239 549 239 549>
VStem: 41 179<281.5 426.5 281.5 468> 239 310<773 895 773 895> 568 179<281.5 426.5>
AnchorPoint: "Anchor-3" 441.696 710 basechar 0
AnchorPoint: "Anchor-1" 379.101 355 basechar 0
AnchorPoint: "Anchor-0" 316.504 0 basechar 0
LayerCount: 2
Fore
SplineSet
297.8046875 773 m 1
 319.317382812 895 l 1
 629.317382812 895 l 1
 607.8046875 773 l 1
 297.8046875 773 l 1
313.682617188 -16 m 0
 92.6826171875 -16 -14.2783203125 126 25.923828125 354 c 0
 66.126953125 582 223.517578125 726 444.517578125 726 c 0
 664.517578125 726 772.126953125 582 731.923828125 354 c 0xf4
 691.721679688 126 533.682617188 -16 313.682617188 -16 c 0
338.721679688 126 m 0
 447.721679688 126 527.356445312 209 552.923828125 354 c 0
 578.491210938 499 528.479492188 584 419.479492188 584 c 0
 310.479492188 584 230.491210938 499 204.923828125 354 c 0
 179.356445312 209 229.721679688 126 338.721679688 126 c 0
EndSplineSet
Validated: 33
EndChar

StartChar: Oslash
Encoding: 216 216 82
Width: 788
GlyphClass: 2
Flags: HMW
HStem: -16 142<377.5 448.5 377.5 504> 584 142<339.5 410.5>
VStem: 41 179<329 426.5 329 468> 568 179<281.5 379.5>
AnchorPoint: "Anchor-3" 456.596 710 basechar 0
AnchorPoint: "Anchor-1" 394 355 basechar 0
AnchorPoint: "Anchor-0" 331.404 0 basechar 0
LayerCount: 2
Fore
SplineSet
5.5830078125 -16 m 1
 90.333984375 79 l 1
 37.619140625 143 20.193359375 237 40.8232421875 354 c 0
 81.0263671875 582 238.416992188 726 459.416992188 726 c 0
 526.416992188 726 583.125 713 627.716796875 688 c 1
 661.416992188 726 l 1
 782.416992188 726 l 1
 697.490234375 630 l 1
 749.028320312 565 767.454101562 471 746.823242188 354 c 0
 706.62109375 126 548.583007812 -16 328.583007812 -16 c 0
 261.583007812 -16 204.875 -3 159.283203125 22 c 1
 126.583007812 -16 l 1
 5.5830078125 -16 l 1
219.823242188 354 m 0
 211.006835938 304 211.424804688 261 219.25390625 226 c 1
 516.323242188 561 l 1
 493.96875 576 467.37890625 584 434.37890625 584 c 0
 325.37890625 584 245.390625 499 219.823242188 354 c 0
353.62109375 126 m 0
 462.62109375 126 542.255859375 209 567.823242188 354 c 0
 576.81640625 405 576.3984375 448 567.5703125 483 c 1
 271.5 148 l 1
 293.03125 134 320.62109375 126 353.62109375 126 c 0
EndSplineSet
Validated: 33
EndChar

StartChar: Otilde
Encoding: 213 213 83
Width: 788
GlyphClass: 2
Flags: HMW
HStem: -16 142<339.5 448.5 339.5 504> 584 142<339.5 448.5> 764 150<296 300 217 349> 769 100<445.5 460.5 445.5 488> 769 152<487 488> 814 100<327.5 342>
VStem: 41 179<281.5 426.5 281.5 468> 217 83<764 764> 487 82<921 921> 568 179<281.5 426.5>
AnchorPoint: "Anchor-3" 439.404 710 basechar 0
AnchorPoint: "Anchor-1" 376.809 355 basechar 0
AnchorPoint: "Anchor-0" 314.212 0 basechar 0
LayerCount: 2
Fore
SplineSet
504.807617188 769 m 0xca80
 471.807617188 769 455.041992188 776 432.09765625 799 c 0
 420.860351562 809 411.7421875 814 399.7421875 814 c 0xc540
 382.7421875 814 364.802734375 803 354.92578125 764 c 1
 271.92578125 764 l 1
 288.794921875 854 340.375 914 414.375 914 c 0xe140
 446.375 914 469.140625 907 492.26171875 885 c 0
 505.322265625 874 513.440429688 869 524.440429688 869 c 0xd280
 543.440429688 869 559.379882812 880 569.609375 921 c 1
 651.609375 921 l 1
 634.2109375 828 582.807617188 769 504.807617188 769 c 0xca80
311.390625 -16 m 0
 90.390625 -16 -16.5703125 126 23.6318359375 354 c 0xe240
 63.833984375 582 221.225585938 726 442.225585938 726 c 0
 662.225585938 726 769.833984375 582 729.631835938 354 c 0
 689.4296875 126 531.390625 -16 311.390625 -16 c 0
336.4296875 126 m 0
 445.4296875 126 525.064453125 209 550.631835938 354 c 0
 576.19921875 499 526.186523438 584 417.186523438 584 c 0
 308.186523438 584 228.19921875 499 202.631835938 354 c 0
 177.064453125 209 227.4296875 126 336.4296875 126 c 0
EndSplineSet
Validated: 33
EndChar

StartChar: OE
Encoding: 338 338 84
Width: 1130
GlyphClass: 2
Flags: HMW
HStem: -16 142<333.5 434.5> 0 142<771 1089 771 1089> 285 142<771 1069 771 1069> 568 142<771 1081 771 771> 584 142<333 434.5 287.5 454>
VStem: 41 179<290 419 290 472.5> 566 205<142 419> 597 174<0 285 58 285>
AnchorPoint: "Anchor-3" 629.596 710 basechar 0
AnchorPoint: "Anchor-0" 504.404 0 basechar 0
LayerCount: 2
Fore
SplineSet
326.583007812 -16 m 0xb5
 117.583007812 -16 -0.2607421875 121 40.8232421875 354 c 0
 82.61328125 591 248.416992188 726 457.416992188 726 c 0xae
 542.416992188 726 606.833007812 700 649.192382812 651 c 1
 659.595703125 710 l 1x75
 1143.59570312 710 l 1
 1118.55761719 568 l 1
 808.557617188 568 l 1
 783.6953125 427 l 1
 1081.6953125 427 l 1
 1056.65722656 285 l 1
 758.657226562 285 l 1
 733.442382812 142 l 1x76
 1051.44238281 142 l 1
 1026.40429688 0 l 1
 534.404296875 0 l 1x75
 544.630859375 58 l 1
 485.166992188 10 411.583007812 -16 326.583007812 -16 c 0xb5
351.62109375 126 m 0
 474.62109375 126 543.25390625 226 565.823242188 354 c 0
 588.74609375 484 556.37890625 584 432.37890625 584 c 0
 314.37890625 584 242.74609375 484 219.823242188 354 c 0
 197.25390625 226 234.62109375 126 351.62109375 126 c 0
EndSplineSet
Validated: 33
EndChar

StartChar: P
Encoding: 80 80 85
Width: 679
GlyphClass: 2
Flags: HMW
HStem: 0 21G<68 68 68 242> 235 143<242 350 350 362 242 350> 568 142<242 350 242 242>
VStem: 68 174<0 235 378 568> 464 178<441.5 504>
AnchorPoint: "Anchor-3" 401.596 710 basechar 0
AnchorPoint: "Anchor-0" 276.404 0 basechar 0
LayerCount: 2
Fore
SplineSet
5.404296875 0 m 1
 130.595703125 710 l 1
 424.595703125 710 l 2
 598.595703125 710 688.7265625 620 662.806640625 473 c 0
 636.88671875 326 514.840820312 235 340.840820312 235 c 2
 220.840820312 235 l 1
 179.404296875 0 l 1
 5.404296875 0 l 1
246.055664062 378 m 1
 354.055664062 378 l 2
 424.055664062 378 473.698242188 410 484.806640625 473 c 0
 495.739257812 535 458.557617188 568 387.557617188 568 c 2
 279.557617188 568 l 1
 246.055664062 378 l 1
EndSplineSet
Validated: 33
EndChar

StartChar: Thorn
Encoding: 222 222 86
Width: 649
GlyphClass: 2
Flags: HMW
HStem: 0 21G<68 68 68 242> 148 144<242 339 339 343 242 339> 440 143<242 339 242 343> 690 20G<68 242 242 242>
VStem: 68 174<0 148 0 292 292 440 583 710> 434 178<341 390.5>
AnchorPoint: "Anchor-3" 386.596 710 basechar 0
AnchorPoint: "Anchor-0" 261.404 0 basechar 0
LayerCount: 2
Fore
SplineSet
5.404296875 0 m 1
 130.595703125 710 l 1
 304.595703125 710 l 1
 282.202148438 583 l 1
 383.202148438 583 l 2
 554.202148438 583 638.272460938 504 614.116210938 367 c 0
 589.606445312 228 477.5 148 306.5 148 c 2
 205.5 148 l 1
 179.404296875 0 l 1
 5.404296875 0 l 1
353.98828125 440 m 2
 256.98828125 440 l 1
 230.891601562 292 l 1
 327.891601562 292 l 2
 390.891601562 292 427.123046875 316 435.939453125 366 c 0
 444.580078125 415 416.98828125 440 353.98828125 440 c 2
EndSplineSet
Validated: 33
EndChar

StartChar: Q
Encoding: 81 81 87
Width: 781
GlyphClass: 2
Flags: HMW
HStem: -16 142<331 398 331 418> 584 142<330.5 451>
VStem: 41 179<294 414.5 294 460.5> 561 179<313.5 414.5>
AnchorPoint: "Anchor-3" 457.387 710 basechar 0
AnchorPoint: "Anchor-0" 332.195 0 basechar 0
LayerCount: 2
Fore
SplineSet
503.791992188 -59 m 1
 461.4296875 7 l 1
 428.784179688 -8 383.374023438 -16 329.374023438 -16 c 0
 117.374023438 -16 5.8232421875 134 44.6142578125 354 c 0
 82.171875 567 232.208007812 726 460.208007812 726 c 0
 687.208007812 726 781.171875 567 743.614257812 354 c 0
 720.33984375 222 657.412109375 126 565.774414062 60 c 1
 640.791992188 -59 l 1
 503.791992188 -59 l 1
354.412109375 126 m 0
 368.412109375 126 380.764648438 128 392.469726562 132 c 1
 316.276367188 250 l 1
 453.276367188 250 l 1
 487.049804688 192 l 1
 523.868164062 225 550.33203125 273 564.614257812 354 c 0
 585.950195312 475 555.169921875 584 435.169921875 584 c 0
 314.169921875 584 244.950195312 475 223.614257812 354 c 0
 202.455078125 234 234.412109375 126 354.412109375 126 c 0
EndSplineSet
Validated: 33
EndChar

StartChar: R
Encoding: 82 82 88
Width: 706
GlyphClass: 2
Flags: HMW
HStem: 0 21G<68 68 68 242 481 481 481 659> 251 142<242 366 366 375 242 366> 568 142<242 364 242 242>
VStem: 68 174<0 251 393 568> 475 178<455.5 509.5> 475.5 175
AnchorPoint: "Anchor-3" 409.596 710 basechar 0
AnchorPoint: "Anchor-0" 301.404 0 basechar 0
LayerCount: 2
Fore
SplineSet
5.404296875 0 m 1xf4
 130.595703125 710 l 1
 455.595703125 710 l 2
 613.595703125 710 700.9609375 627 678.390625 499 c 0xf8
 663.05078125 412 602.765625 348 520.534179688 324 c 1
 591.770507812 314 621.541015625 273 615.021484375 202 c 2
 596.404296875 0 l 1
 418.404296875 0 l 1
 437.908203125 173 l 2
 443.25390625 226 424.662109375 251 356.662109375 251 c 2
 223.662109375 251 l 1
 179.404296875 0 l 1
 5.404296875 0 l 1xf4
248.700195312 393 m 1
 372.700195312 393 l 2
 442.700195312 393 487.342773438 425 497.216796875 481 c 0
 507.267578125 538 473.557617188 568 401.557617188 568 c 2
 279.557617188 568 l 1
 248.700195312 393 l 1
EndSplineSet
Validated: 33
Substitution2: "'ss04' Style Set 4 in Latin lookup 37 subtable" R.ss04
Substitution2: "'aalt' Access All Alternates in Latin lookup 0 subtable" R.ss04
EndChar

StartChar: Racute
Encoding: 340 340 89
Width: 706
GlyphClass: 2
Flags: HMW
HStem: 0 21G<68 68 68 242 481 481 481 659> 251 142<242 366 366 375 242 366> 568 142<242 364 242 242> 761 154<269 488 325 398>
VStem: 68 174<0 251 393 568> 475 178<455.5 509.5> 475.5 175
AnchorPoint: "Anchor-3" 391.522 710 basechar 0
AnchorPoint: "Anchor-0" 283.33 0 basechar 0
LayerCount: 2
Fore
SplineSet
322.515625 761 m 1xfa
 405.669921875 915 l 1
 568.669921875 915 l 1
 451.515625 761 l 1
 322.515625 761 l 1xfa
-12.669921875 0 m 1
 112.522460938 710 l 1
 437.522460938 710 l 2
 595.522460938 710 682.887695312 627 660.317382812 499 c 0xfc
 644.977539062 412 584.692382812 348 502.459960938 324 c 1
 573.697265625 314 603.467773438 273 596.948242188 202 c 2
 578.330078125 0 l 1
 400.330078125 0 l 1
 419.834960938 173 l 2
 425.180664062 226 406.588867188 251 338.588867188 251 c 2
 205.588867188 251 l 1
 161.330078125 0 l 1
 -12.669921875 0 l 1
230.626953125 393 m 1
 354.626953125 393 l 2
 424.626953125 393 469.26953125 425 479.143554688 481 c 0
 489.194335938 538 455.484375 568 383.484375 568 c 2
 261.484375 568 l 1
 230.626953125 393 l 1
EndSplineSet
Validated: 33
Substitution2: "'ss04' Style Set 4 in Latin lookup 37 subtable" Racute.ss04
Substitution2: "'aalt' Access All Alternates in Latin lookup 0 subtable" Racute.ss04
EndChar

StartChar: Rcaron
Encoding: 344 344 90
Width: 706
GlyphClass: 2
Flags: HMW
HStem: 0 21G<68 68 68 242 481 481 481 659> 251 142<242 366 366 375 242 366> 568 142<242 364 242 242> 761 160<267 285 410 428 267 267>
VStem: 68 174<0 251 393 568> 475 178<455.5 509.5> 475.5 175
AnchorPoint: "Anchor-3" 390.993 710 basechar 0
AnchorPoint: "Anchor-0" 282.802 0 basechar 0
LayerCount: 2
Fore
SplineSet
250.198242188 921 m 1xfa
 366.198242188 921 l 1
 412.505859375 832 l 1
 491.198242188 921 l 1
 607.198242188 921 l 1
 480.986328125 761 l 1
 319.986328125 761 l 1
 250.198242188 921 l 1xfa
-13.1982421875 0 m 1
 111.993164062 710 l 1
 436.993164062 710 l 2
 594.993164062 710 682.358398438 627 659.7890625 499 c 0xfc
 644.448242188 412 584.163085938 348 501.931640625 324 c 1
 573.16796875 314 602.938476562 273 596.419921875 202 c 2
 577.801757812 0 l 1
 399.801757812 0 l 1
 419.305664062 173 l 2
 424.651367188 226 406.059570312 251 338.059570312 251 c 2
 205.059570312 251 l 1
 160.801757812 0 l 1
 -13.1982421875 0 l 1
230.09765625 393 m 1
 354.09765625 393 l 2
 424.09765625 393 468.740234375 425 478.614257812 481 c 0
 488.665039062 538 454.955078125 568 382.955078125 568 c 2
 260.955078125 568 l 1
 230.09765625 393 l 1
EndSplineSet
Validated: 33
Substitution2: "'ss04' Style Set 4 in Latin lookup 37 subtable" Rcaron.ss04
Substitution2: "'aalt' Access All Alternates in Latin lookup 0 subtable" Rcaron.ss04
EndChar

StartChar: uni0156
Encoding: 342 342 91
Width: 706
GlyphClass: 2
Flags: HMW
HStem: -173 126<294 328 294 434> 0 21G<68 68 68 242 481 481 481 659> 251 142<242 366 366 375 242 366> 568 142<242 364 242 242>
VStem: 68 174<0 251 393 568> 294 140<-160 -47 -160 -47 -160 -47> 475 178<455.5 509.5> 475.5 175
AnchorPoint: "Anchor-3" 432.342 710 basechar 0
AnchorPoint: "Anchor-0" 278.658 -258 basechar 0
LayerCount: 2
Fore
SplineSet
28.150390625 0 m 1xfd
 153.341796875 710 l 1
 478.341796875 710 l 2
 636.341796875 710 723.70703125 627 701.137695312 499 c 0xfe
 685.796875 412 625.51171875 348 543.280273438 324 c 1
 614.516601562 314 644.287109375 273 637.768554688 202 c 2
 619.150390625 0 l 1
 441.150390625 0 l 1
 460.654296875 173 l 2
 466 226 447.408203125 251 379.408203125 251 c 2
 246.408203125 251 l 1
 202.150390625 0 l 1
 28.150390625 0 l 1xfd
271.446289062 393 m 1
 395.446289062 393 l 2
 465.446289062 393 510.088867188 425 519.963867188 481 c 0
 530.013671875 538 496.303710938 568 424.303710938 568 c 2
 302.303710938 568 l 1
 271.446289062 393 l 1
191.658203125 -258 m 1
 257.645507812 -173 l 1
 223.645507812 -173 l 1
 245.862304688 -47 l 1
 385.862304688 -47 l 1
 365.9375 -160 l 1
 289.658203125 -258 l 1
 191.658203125 -258 l 1
EndSplineSet
Validated: 33
Substitution2: "'ss04' Style Set 4 in Latin lookup 37 subtable" uni0156.ss04
Substitution2: "'aalt' Access All Alternates in Latin lookup 0 subtable" uni0156.ss04
EndChar

StartChar: S
Encoding: 83 83 92
Width: 695
GlyphClass: 2
Flags: HMW
HStem: -16 140<321 397 321 449> 586 140<307 375>
VStem: 64 175<489.5 535.5 489.5 572.5> 469 175<172 218>
AnchorPoint: "Anchor-3" 404.596 710 basechar 0
AnchorPoint: "Anchor-0" 294.404 0 basechar 0
LayerCount: 2
Fore
SplineSet
295.583007812 -16 m 0
 105.583007812 -16 12.8623046875 82 30.0166015625 236 c 1
 205.427734375 244 l 1
 202.850585938 167 238.268554688 124 322.268554688 124 c 0
 390.268554688 124 432.5 148 440.963867188 196 c 0
 448.72265625 240 431.130859375 265 314.71484375 291 c 0
 133.768554688 331 68.7607421875 382 90.978515625 508 c 0
 113.724609375 637 232.416992188 726 405.416992188 726 c 0
 589.416992188 726 666.431640625 624 656.216796875 481 c 1
 482.806640625 473 l 1
 487.973632812 542 452.731445312 586 378.731445312 586 c 0
 316.731445312 586 274.618164062 557 267.036132812 514 c 0
 258.395507812 465 285.693359375 444 386.166992188 424 c 0
 583.465820312 386 636.770507812 314 617.375 204 c 0
 593.39453125 68 471.583007812 -16 295.583007812 -16 c 0
EndSplineSet
Validated: 33
EndChar

StartChar: Sacute
Encoding: 346 346 93
Width: 695
GlyphClass: 2
Flags: HMW
HStem: -16 140<321 397 321 449> 586 140<307 375> 761 154<263 483 320 393>
VStem: 64 175<489.5 535.5 489.5 572.5> 469 175<172 218>
AnchorPoint: "Anchor-3" 387.934 710 basechar 0
AnchorPoint: "Anchor-0" 277.741 0 basechar 0
LayerCount: 2
Fore
SplineSet
317.92578125 761 m 1
 402.080078125 915 l 1
 565.080078125 915 l 1
 447.92578125 761 l 1
 317.92578125 761 l 1
278.919921875 -16 m 0
 88.919921875 -16 -3.7998046875 82 13.3544921875 236 c 1
 188.764648438 244 l 1
 186.1875 167 221.60546875 124 305.60546875 124 c 0
 373.60546875 124 415.837890625 148 424.30078125 196 c 0
 432.059570312 240 414.467773438 265 298.051757812 291 c 0
 117.10546875 331 52.09765625 382 74.3154296875 508 c 0
 97.0615234375 637 215.754882812 726 388.754882812 726 c 0
 572.754882812 726 649.76953125 624 639.5546875 481 c 1
 466.143554688 473 l 1
 471.310546875 542 436.068359375 586 362.068359375 586 c 0
 300.068359375 586 257.955078125 557 250.373046875 514 c 0
 241.733398438 465 269.030273438 444 369.50390625 424 c 0
 566.803710938 386 620.107421875 314 600.711914062 204 c 0
 576.731445312 68 454.919921875 -16 278.919921875 -16 c 0
EndSplineSet
Validated: 33
EndChar

StartChar: Scaron
Encoding: 352 352 94
Width: 695
GlyphClass: 2
Flags: HMW
HStem: -16 140<321 397 321 449> 586 140<307 375> 761 160<261 280 404 423 261 261>
VStem: 64 175<489.5 535.5 489.5 572.5> 469 175<172 218>
AnchorPoint: "Anchor-3" 387.404 710 basechar 0
AnchorPoint: "Anchor-0" 277.212 0 basechar 0
LayerCount: 2
Fore
SplineSet
245.609375 921 m 1
 362.609375 921 l 1
 408.916015625 832 l 1
 486.609375 921 l 1
 603.609375 921 l 1
 477.396484375 761 l 1
 315.396484375 761 l 1
 245.609375 921 l 1
278.390625 -16 m 0
 88.390625 -16 -4.3291015625 82 12.8251953125 236 c 1
 188.235351562 244 l 1
 185.658203125 167 221.076171875 124 305.076171875 124 c 0
 373.076171875 124 415.30859375 148 423.772460938 196 c 0
 431.530273438 240 413.938476562 265 297.5234375 291 c 0
 116.576171875 331 51.5693359375 382 73.7861328125 508 c 0
 96.5322265625 637 215.225585938 726 388.225585938 726 c 0
 572.225585938 726 649.240234375 624 639.025390625 481 c 1
 465.614257812 473 l 1
 470.78125 542 435.540039062 586 361.540039062 586 c 0
 299.540039062 586 257.42578125 557 249.84375 514 c 0
 241.204101562 465 268.500976562 444 368.974609375 424 c 0
 566.274414062 386 619.579101562 314 600.182617188 204 c 0
 576.202148438 68 454.390625 -16 278.390625 -16 c 0
EndSplineSet
Validated: 33
EndChar

StartChar: Scedilla
Encoding: 350 350 95
Width: 695
GlyphClass: 2
Flags: HMW
HStem: -236 78<333.5 362.5 333.5 388> -152 21G<220 220> -85 55<333 387> -13 21G<306 306> 586 140<307 375>
VStem: 64 175<489.5 535.5 489.5 572.5> 395 88<-133.5 -111> 469 175<172 218>
AnchorPoint: "Anchor-3" 423.992 710 basechar 0
AnchorPoint: "Anchor-0" 313.8 0 basechar 0
LayerCount: 2
Fore
SplineSet
267.186523438 -236 m 0xae
 199.186523438 -236 160.181640625 -202 149.998046875 -152 c 1x5e
 226.640625 -120 l 1
 232.232421875 -145 246.940429688 -158 277.940429688 -158 c 0
 304.940429688 -158 326.232421875 -145 330.288085938 -122 c 0
 334.166992188 -100 324.8125 -85 274.8125 -85 c 1xae
 237.041015625 -44 l 1
 260.5078125 -13 l 1
 107.504882812 4 34.080078125 98 49.4130859375 236 c 1
 224.823242188 244 l 1
 222.24609375 167 257.6640625 124 341.6640625 124 c 0
 409.6640625 124 451.896484375 148 460.360351562 196 c 0
 468.118164062 240 450.526367188 265 334.111328125 291 c 0
 153.1640625 331 88.1572265625 382 110.374023438 508 c 0
 133.120117188 637 251.813476562 726 424.813476562 726 c 0
 608.813476562 726 685.828125 624 675.61328125 481 c 1
 502.202148438 473 l 1
 507.369140625 542 472.127929688 586 398.127929688 586 c 0
 336.127929688 586 294.013671875 557 286.431640625 514 c 0
 277.791992188 465 305.088867188 444 405.5625 424 c 0
 602.862304688 386 656.166992188 314 636.770507812 204 c 0x5d
 614.376953125 77 508.094726562 -4 351.155273438 -15 c 1
 338.509765625 -30 l 1
 405.275390625 -37 426.22265625 -77 417.583007812 -126 c 0
 404.005859375 -203 339.186523438 -236 267.186523438 -236 c 0xae
EndSplineSet
Validated: 33
Substitution2: "'locl' Localized Forms in Latin lookup 10 subtable" uni0218
Substitution2: "'aalt' Access All Alternates in Latin lookup 0 subtable" uni0218
EndChar

StartChar: Scircumflex
Encoding: 348 348 96
Width: 695
GlyphClass: 2
Flags: HMW
HStem: -16 140<321 397 321 449> 586 140<307 375> 761 160<163 423 261 280 404 404 404 423 261 521>
VStem: 64 175<489.5 535.5 489.5 572.5> 469 175<172 218>
AnchorPoint: "Anchor-3" 387.404 710 basechar 0
AnchorPoint: "Anchor-0" 277.212 0 basechar 0
LayerCount: 2
Fore
SplineSet
217.396484375 761 m 1
 343.609375 921 l 1
 505.609375 921 l 1
 575.396484375 761 l 1
 458.396484375 761 l 1
 412.08984375 850 l 1
 334.396484375 761 l 1
 217.396484375 761 l 1
278.390625 -16 m 0
 88.390625 -16 -4.3291015625 82 12.8251953125 236 c 1
 188.235351562 244 l 1
 185.658203125 167 221.076171875 124 305.076171875 124 c 0
 373.076171875 124 415.30859375 148 423.772460938 196 c 0
 431.530273438 240 413.938476562 265 297.5234375 291 c 0
 116.576171875 331 51.5693359375 382 73.7861328125 508 c 0
 96.5322265625 637 215.225585938 726 388.225585938 726 c 0
 572.225585938 726 649.240234375 624 639.025390625 481 c 1
 465.614257812 473 l 1
 470.78125 542 435.540039062 586 361.540039062 586 c 0
 299.540039062 586 257.42578125 557 249.84375 514 c 0
 241.204101562 465 268.500976562 444 368.974609375 424 c 0
 566.274414062 386 619.579101562 314 600.182617188 204 c 0
 576.202148438 68 454.390625 -16 278.390625 -16 c 0
EndSplineSet
Validated: 33
EndChar

StartChar: uni0218
Encoding: 536 536 97
Width: 695
GlyphClass: 2
Flags: HMW
HStem: -173 126<287 321 287 427> -16 140<321 397 321 449> 586 140<307 375>
VStem: 64 175<489.5 535.5 489.5 572.5> 287 140<-160 -47 -160 -47 -160 -47> 469 175<172 218>
AnchorPoint: "Anchor-3" 425.932 710 basechar 0
AnchorPoint: "Anchor-0" 270.247 -258 basechar 0
LayerCount: 2
Fore
SplineSet
316.91796875 -16 m 0
 126.91796875 -16 34.1982421875 82 51.3525390625 236 c 1
 226.763671875 244 l 1
 224.186523438 167 259.604492188 124 343.604492188 124 c 0
 411.604492188 124 453.8359375 148 462.299804688 196 c 0
 470.057617188 240 452.465820312 265 336.05078125 291 c 0
 155.103515625 331 90.0966796875 382 112.313476562 508 c 0
 135.059570312 637 253.752929688 726 426.752929688 726 c 0
 610.752929688 726 687.767578125 624 677.552734375 481 c 1
 504.142578125 473 l 1
 509.30859375 542 474.067382812 586 400.067382812 586 c 0
 338.067382812 586 295.954101562 557 288.37109375 514 c 0
 279.731445312 465 307.028320312 444 407.501953125 424 c 0
 604.801757812 386 658.106445312 314 638.709960938 204 c 0
 614.729492188 68 492.91796875 -16 316.91796875 -16 c 0
183.247070312 -258 m 1
 249.235351562 -173 l 1
 215.235351562 -173 l 1
 237.452148438 -47 l 1
 377.452148438 -47 l 1
 357.52734375 -160 l 1
 281.247070312 -258 l 1
 183.247070312 -258 l 1
EndSplineSet
Validated: 33
EndChar

StartChar: uni1E9E
Encoding: 7838 7838 98
Width: 758
GlyphClass: 2
Flags: HMW
HStem: 0 142<68 425 309 425 309 425> 568 142<311 681 346 480>
VStem: 68 174<0 458 0 540.5> 534 177<198.5 251>
AnchorPoint: "Anchor-3" 441.596 710 basechar 0
AnchorPoint: "Anchor-0" 316.404 0 basechar 0
LayerCount: 2
Fore
SplineSet
5.404296875 0 m 1
 86.162109375 458 l 2
 115.255859375 623 225.595703125 710 408.595703125 710 c 2
 743.595703125 710 l 1
 718.205078125 566 l 1
 525.108398438 418 l 1
 650.052734375 395 706.0625 327 687.372070312 221 c 0
 662.333984375 79 546.404296875 0 362.404296875 0 c 2
 246.404296875 0 l 1
 271.442382812 142 l 1
 387.442382812 142 l 2
 455.442382812 142 501.908203125 173 510.901367188 224 c 0
 520.422851562 278 482.536132812 307 409.536132812 307 c 2
 312.536132812 307 l 1
 332.4609375 420 l 1
 517.557617188 568 l 1
 383.557617188 568 l 2
 313.557617188 568 273.209960938 532 260.162109375 458 c 2
 179.404296875 0 l 1
 5.404296875 0 l 1
EndSplineSet
Validated: 33
EndChar

StartChar: T
Encoding: 84 84 99
Width: 615
GlyphClass: 2
Flags: HMW
HStem: 0 21G<220 220 220 395> 568 142<10 220 10 605 395 395 395 605>
VStem: 220 175<0 568 0 568>
AnchorPoint: "Anchor-3" 369.596 710 basechar 0
AnchorPoint: "Anchor-1" 301.652 319 basechar 0
AnchorPoint: "Anchor-0" 244.404 0 basechar 0
LayerCount: 2
Fore
SplineSet
157.404296875 0 m 1
 257.557617188 568 l 1
 47.5576171875 568 l 1
 72.595703125 710 l 1
 667.595703125 710 l 1
 642.557617188 568 l 1
 432.557617188 568 l 1
 332.404296875 0 l 1
 157.404296875 0 l 1
EndSplineSet
Validated: 1
EndChar

StartChar: Tbar
Encoding: 358 358 100
Width: 615
GlyphClass: 2
Flags: HMW
HStem: 0 21G<220 220 220 395> 255 128<100 220 100 220 395 516> 568 142<10 220 10 605 395 395 395 605>
VStem: 220 175<0 255 0 255 383 568>
AnchorPoint: "Anchor-3" 369.596 710 basechar 0
AnchorPoint: "Anchor-1" 301.652 319 basechar 0
AnchorPoint: "Anchor-0" 244.404 0 basechar 0
LayerCount: 2
Fore
SplineSet
157.404296875 0 m 1
 202.3671875 255 l 1
 82.3671875 255 l 1
 104.9375 383 l 1
 224.9375 383 l 1
 257.557617188 568 l 1
 47.5576171875 568 l 1
 72.595703125 710 l 1
 667.595703125 710 l 1
 642.557617188 568 l 1
 432.557617188 568 l 1
 399.9375 383 l 1
 520.9375 383 l 1
 498.3671875 255 l 1
 377.3671875 255 l 1
 332.404296875 0 l 1
 157.404296875 0 l 1
EndSplineSet
Validated: 1
EndChar

StartChar: Tcaron
Encoding: 356 356 101
Width: 615
GlyphClass: 2
Flags: HMW
HStem: 0 21G<220 220 220 395> 568 142<10 220 10 605 395 395 395 605> 761 160<227 245 369 388 227 227>
VStem: 220 175<0 568 0 568>
AnchorPoint: "Anchor-3" 350.993 710 basechar 0
AnchorPoint: "Anchor-1" 283.05 319 basechar 0
AnchorPoint: "Anchor-0" 225.802 0 basechar 0
LayerCount: 2
Fore
SplineSet
210.198242188 921 m 1
 326.198242188 921 l 1
 372.505859375 832 l 1
 450.198242188 921 l 1
 567.198242188 921 l 1
 440.986328125 761 l 1
 279.986328125 761 l 1
 210.198242188 921 l 1
138.801757812 0 m 1
 238.955078125 568 l 1
 28.955078125 568 l 1
 53.9931640625 710 l 1
 648.993164062 710 l 1
 623.955078125 568 l 1
 413.955078125 568 l 1
 313.801757812 0 l 1
 138.801757812 0 l 1
EndSplineSet
Validated: 1
EndChar

StartChar: uni0162
Encoding: 354 354 102
Width: 615
GlyphClass: 2
Flags: HMW
HStem: -236 78<284 313 284 338.5> -152 21G<171 171> -85 55<284 338> 0 21G<220 220 220 264 357 357 357 395> 568 142<10 220 10 605 395 395 395 605>
VStem: 220 175<0 568 0 568> 345 89<-133.5 -111>
AnchorPoint: "Anchor-3" 390.402 710 basechar 0
AnchorPoint: "Anchor-1" 322.459 319 basechar 0
AnchorPoint: "Anchor-0" 265.211 0 basechar 0
LayerCount: 2
Fore
SplineSet
178.2109375 0 m 1x5c
 278.364257812 568 l 1
 68.3642578125 568 l 1
 93.40234375 710 l 1
 688.40234375 710 l 1
 663.364257812 568 l 1
 453.364257812 568 l 1
 353.2109375 0 l 1x5c
 315.2109375 0 l 1x5a
 290.920898438 -30 l 1
 356.686523438 -37 378.633789062 -77 369.993164062 -126 c 0
 356.416015625 -203 290.59765625 -236 219.59765625 -236 c 0xaa
 151.59765625 -236 111.592773438 -202 102.409179688 -152 c 1x5c
 179.05078125 -120 l 1
 184.643554688 -145 199.350585938 -158 229.350585938 -158 c 0
 257.350585938 -158 277.643554688 -145 281.698242188 -122 c 0xaa
 285.578125 -100 276.22265625 -85 227.22265625 -85 c 1x6c
 189.452148438 -44 l 1
 222.2109375 0 l 1
 178.2109375 0 l 1x5c
EndSplineSet
Validated: 33
Substitution2: "'locl' Localized Forms in Latin lookup 10 subtable" uni021A
Substitution2: "'aalt' Access All Alternates in Latin lookup 0 subtable" uni021A
EndChar

StartChar: uni021A
Encoding: 538 538 103
Width: 615
GlyphClass: 2
Flags: HMW
HStem: -173 126<237 272 237 377> 0 21G<220 220 220 395> 568 142<10 220 10 605 395 395 395 605>
VStem: 220 157<-160 568> 220 175<0 568 0 568> 237 158<-173 568 -47 568>
AnchorPoint: "Anchor-3" 392.342 710 basechar 0
AnchorPoint: "Anchor-1" 324.398 319 basechar 0
AnchorPoint: "Anchor-0" 221.658 -258 basechar 0
LayerCount: 2
Fore
SplineSet
180.150390625 0 m 1xe8
 280.303710938 568 l 1
 70.3037109375 568 l 1
 95.341796875 710 l 1
 690.341796875 710 l 1
 665.303710938 568 l 1
 455.303710938 568 l 1
 355.150390625 0 l 1
 180.150390625 0 l 1xe8
135.658203125 -258 m 1
 201.645507812 -173 l 1
 166.645507812 -173 l 1
 188.862304688 -47 l 1xe4
 328.862304688 -47 l 1
 308.9375 -160 l 1xf0
 233.658203125 -258 l 1
 135.658203125 -258 l 1
EndSplineSet
Validated: 1
EndChar

StartChar: U
Encoding: 85 85 104
Width: 708
GlyphClass: 2
Flags: HMW
HStem: -16 142<313 395 313 446.5> 691 20G<53 227 227 227 481 655 655 655>
VStem: 53 174<259 711> 481 174<259 711>
AnchorPoint: "Anchor-3" 417.919 710 basechar 0
AnchorPoint: "Anchor-2" 408.902 1 basechar 0
AnchorPoint: "Anchor-0" 292.727 0 basechar 0
LayerCount: 2
Fore
SplineSet
289.905273438 -16 m 0
 105.905273438 -16 7.7724609375 91 37.3955078125 259 c 2
 117.094726562 711 l 1
 291.094726562 711 l 1
 211.395507812 259 l 2
 196.407226562 174 232.943359375 126 314.943359375 126 c 0
 396.943359375 126 450.407226562 174 465.395507812 259 c 2
 545.094726562 711 l 1
 719.094726562 711 l 1
 639.395507812 259 l 2
 609.772460938 91 474.905273438 -16 289.905273438 -16 c 0
EndSplineSet
Validated: 33
EndChar

StartChar: Uacute
Encoding: 218 218 105
Width: 708
GlyphClass: 2
Flags: HMW
HStem: -16 142<313 395 313 446.5> 691 20G<53 227 227 227 481 655 655 655> 761 154<275 494 332 404>
VStem: 53 174<259 711> 481 174<259 711>
AnchorPoint: "Anchor-3" 399.934 710 basechar 0
AnchorPoint: "Anchor-2" 390.917 1 basechar 0
AnchorPoint: "Anchor-0" 274.741 0 basechar 0
LayerCount: 2
Fore
SplineSet
329.92578125 761 m 1
 414.080078125 915 l 1
 576.080078125 915 l 1
 458.92578125 761 l 1
 329.92578125 761 l 1
271.919921875 -16 m 0
 87.919921875 -16 -10.212890625 91 19.41015625 259 c 2
 99.109375 711 l 1
 273.109375 711 l 1
 193.41015625 259 l 2
 178.421875 174 214.958007812 126 296.958007812 126 c 0
 378.958007812 126 432.421875 174 447.41015625 259 c 2
 527.109375 711 l 1
 701.109375 711 l 1
 621.41015625 259 l 2
 591.787109375 91 456.919921875 -16 271.919921875 -16 c 0
EndSplineSet
Validated: 33
EndChar

StartChar: Ubreve
Encoding: 364 364 106
Width: 708
GlyphClass: 2
Flags: HMW
HStem: -16 142<313 395 313 446.5> 691 20G<53 227 227 227 481 655 655 655> 760 89<335 373 335 402> 760 153<191 402>
VStem: 53 174<259 711> 481 174<259 711>
AnchorPoint: "Anchor-3" 400.109 710 basechar 0
AnchorPoint: "Anchor-2" 391.094 1 basechar 0
AnchorPoint: "Anchor-0" 274.917 0 basechar 0
LayerCount: 2
Fore
SplineSet
408.92578125 760 m 0xdc
 311.92578125 760 259.624023438 815 272.904296875 913 c 1xdc
 369.904296875 913 l 1
 365.79296875 867 386.619140625 849 424.619140625 849 c 0xec
 462.619140625 849 488.79296875 867 501.904296875 913 c 1
 597.904296875 913 l 1
 576.624023438 815 504.92578125 760 408.92578125 760 c 0xdc
272.095703125 -16 m 0
 88.095703125 -16 -10.037109375 91 19.5859375 259 c 2
 99.2861328125 711 l 1
 273.286132812 711 l 1
 193.5859375 259 l 2
 178.598632812 174 215.134765625 126 297.134765625 126 c 0
 379.134765625 126 432.598632812 174 447.5859375 259 c 2
 527.286132812 711 l 1
 701.286132812 711 l 1
 621.5859375 259 l 2
 591.962890625 91 457.095703125 -16 272.095703125 -16 c 0
EndSplineSet
Validated: 33
EndChar

StartChar: Ucircumflex
Encoding: 219 219 107
Width: 708
GlyphClass: 2
Flags: HMW
HStem: -16 142<313 395 313 446.5> 691 20G<53 227 227 227 481 655 655 655> 761 160<175 434 273 292 416 416 416 434 273 532>
VStem: 53 174<259 711> 481 174<259 711>
AnchorPoint: "Anchor-3" 399.404 710 basechar 0
AnchorPoint: "Anchor-2" 390.389 1 basechar 0
AnchorPoint: "Anchor-0" 274.212 0 basechar 0
LayerCount: 2
Fore
SplineSet
229.396484375 761 m 1
 355.609375 921 l 1
 516.609375 921 l 1
 586.396484375 761 l 1
 470.396484375 761 l 1
 424.08984375 850 l 1
 346.396484375 761 l 1
 229.396484375 761 l 1
271.390625 -16 m 0
 87.390625 -16 -10.7421875 91 18.880859375 259 c 2
 98.580078125 711 l 1
 272.580078125 711 l 1
 192.880859375 259 l 2
 177.892578125 174 214.4296875 126 296.4296875 126 c 0
 378.4296875 126 431.892578125 174 446.880859375 259 c 2
 526.580078125 711 l 1
 700.580078125 711 l 1
 620.880859375 259 l 2
 591.2578125 91 456.390625 -16 271.390625 -16 c 0
EndSplineSet
Validated: 33
EndChar

StartChar: Udieresis
Encoding: 220 220 108
Width: 708
GlyphClass: 2
Flags: HMW
HStem: -16 142<313 395 313 446.5> 691 20G<53 227 227 227 481 655 655 655> 767 128<159 320 159 320 387 549 159 387>
VStem: 53 174<259 711> 159 68 159 161<767 895 767 895> 387 162<767 895 767 895> 481 68<259 895 711 895> 481 174<259 711>
AnchorPoint: "Anchor-3" 401.696 710 basechar 0
AnchorPoint: "Anchor-2" 392.681 1 basechar 0
AnchorPoint: "Anchor-0" 276.504 0 basechar 0
LayerCount: 2
Fore
SplineSet
216.747070312 767 m 1xe880
 239.317382812 895 l 1xea
 400.317382812 895 l 1
 377.747070312 767 l 1xe480
 216.747070312 767 l 1xe880
444.747070312 767 m 1
 467.317382812 895 l 1xf2
 629.317382812 895 l 1
 606.747070312 767 l 1xf1
 444.747070312 767 l 1
273.682617188 -16 m 0
 89.6826171875 -16 -8.4501953125 91 21.1728515625 259 c 2
 100.873046875 711 l 1
 274.873046875 711 l 1
 195.172851562 259 l 2
 180.185546875 174 216.721679688 126 298.721679688 126 c 0
 380.721679688 126 434.185546875 174 449.172851562 259 c 2
 528.873046875 711 l 1
 702.873046875 711 l 1
 623.172851562 259 l 2xf080
 593.549804688 91 458.682617188 -16 273.682617188 -16 c 0
EndSplineSet
Validated: 33
Substitution2: "'ss08' Style Set 8 in Latin lookup 41 subtable" Udieresis.ss08
Substitution2: "'aalt' Access All Alternates in Latin lookup 0 subtable" Udieresis.ss08
EndChar

StartChar: Ugrave
Encoding: 217 217 109
Width: 708
GlyphClass: 2
Flags: HMW
HStem: -16 142<313 395 313 446.5> 691 20G<53 227 227 227 481 655 655 655> 768 153<300 300 300 373 210 430>
VStem: 53 174<259 711> 481 174<259 711>
AnchorPoint: "Anchor-3" 399.404 710 basechar 0
AnchorPoint: "Anchor-2" 390.389 1 basechar 0
AnchorPoint: "Anchor-0" 274.212 0 basechar 0
LayerCount: 2
Fore
SplineSet
355.630859375 768 m 1
 292.609375 921 l 1
 455.609375 921 l 1
 485.630859375 768 l 1
 355.630859375 768 l 1
271.390625 -16 m 0
 87.390625 -16 -10.7421875 91 18.880859375 259 c 2
 98.580078125 711 l 1
 272.580078125 711 l 1
 192.880859375 259 l 2
 177.892578125 174 214.4296875 126 296.4296875 126 c 0
 378.4296875 126 431.892578125 174 446.880859375 259 c 2
 526.580078125 711 l 1
 700.580078125 711 l 1
 620.880859375 259 l 2
 591.2578125 91 456.390625 -16 271.390625 -16 c 0
EndSplineSet
Validated: 33
EndChar

StartChar: Uhungarumlaut
Encoding: 368 368 110
Width: 708
GlyphClass: 2
Flags: HMW
HStem: -16 142<313 395 313 446.5> 691 20G<53 227 227 227 481 655 655 655> 761 154<194 413 250 323 386 413 443 516 386 386>
VStem: 53 174<259 711> 481 174<259 711>
AnchorPoint: "Anchor-3" 399.934 710 basechar 0
AnchorPoint: "Anchor-2" 390.917 1 basechar 0
AnchorPoint: "Anchor-0" 274.741 0 basechar 0
LayerCount: 2
Fore
SplineSet
248.92578125 761 m 1
 332.080078125 915 l 1
 495.080078125 915 l 1
 377.92578125 761 l 1
 248.92578125 761 l 1
440.92578125 761 m 1
 525.080078125 915 l 1
 688.080078125 915 l 1
 570.92578125 761 l 1
 440.92578125 761 l 1
271.919921875 -16 m 0
 87.919921875 -16 -10.212890625 91 19.41015625 259 c 2
 99.109375 711 l 1
 273.109375 711 l 1
 193.41015625 259 l 2
 178.421875 174 214.958007812 126 296.958007812 126 c 0
 378.958007812 126 432.421875 174 447.41015625 259 c 2
 527.109375 711 l 1
 701.109375 711 l 1
 621.41015625 259 l 2
 591.787109375 91 456.919921875 -16 271.919921875 -16 c 0
EndSplineSet
Validated: 33
EndChar

StartChar: Umacron
Encoding: 362 362 111
Width: 708
GlyphClass: 2
Flags: HMW
HStem: -16 142<313 395 313 446.5> 691 20G<53 227 227 227 481 655 655 655> 773 122<199 509 199 509>
VStem: 53 174<259 711> 199 28 481 28 481 174<259 711>
AnchorPoint: "Anchor-3" 401.696 710 basechar 0
AnchorPoint: "Anchor-2" 392.681 1 basechar 0
AnchorPoint: "Anchor-0" 276.504 0 basechar 0
LayerCount: 2
Fore
SplineSet
257.8046875 773 m 1xec
 279.317382812 895 l 1
 589.317382812 895 l 1
 567.8046875 773 l 1
 257.8046875 773 l 1xec
273.682617188 -16 m 0
 89.6826171875 -16 -8.4501953125 91 21.1728515625 259 c 2
 100.873046875 711 l 1
 274.873046875 711 l 1
 195.172851562 259 l 2
 180.185546875 174 216.721679688 126 298.721679688 126 c 0
 380.721679688 126 434.185546875 174 449.172851562 259 c 2
 528.873046875 711 l 1
 702.873046875 711 l 1
 623.172851562 259 l 2xf2
 593.549804688 91 458.682617188 -16 273.682617188 -16 c 0
EndSplineSet
Validated: 33
EndChar

StartChar: Uogonek
Encoding: 370 370 112
Width: 708
GlyphClass: 2
Flags: HMW
HStem: -219 97<356 442.5> -15 21G<324 324> -15 141<324 324> 691 20G<53 227 227 227 481 655 655 655>
VStem: 53 174<259 711> 274 135<-157.5 -89.5> 481 174<259 711>
AnchorPoint: "Anchor-3" 435.815 710 basechar 0
AnchorPoint: "Anchor-2" 426.8 1 basechar 0
AnchorPoint: "Anchor-0" 310.624 0 basechar 0
LayerCount: 2
Fore
SplineSet
312.0078125 -219 m 0xbe
 236.0078125 -219 197.650390625 -187 208.053710938 -128 c 0
 215.283203125 -87 244.807617188 -50 274.44921875 -18 c 1
 277.978515625 -15 l 1xde
 112.91796875 -4 27.255859375 100 55.2919921875 259 c 2
 134.9921875 711 l 1
 308.9921875 711 l 1
 229.291992188 259 l 2
 214.3046875 174 250.840820312 126 332.840820312 126 c 0
 414.840820312 126 468.3046875 174 483.291992188 259 c 2
 562.9921875 711 l 1
 736.9921875 711 l 1
 657.291992188 259 l 2
 634.370117188 129 548.971679688 36 426.624023438 0 c 1
 391.275390625 -36 l 2
 369.043945312 -60 351.340820312 -81 348.34375 -98 c 0
 345.345703125 -115 356.111328125 -122 369.111328125 -122 c 0
 386.111328125 -122 405.169921875 -116 415.227539062 -110 c 1
 429.592773438 -193 l 1
 408.124023438 -207 357.0078125 -219 312.0078125 -219 c 0xbe
EndSplineSet
Validated: 33
EndChar

StartChar: Uring
Encoding: 366 366 113
Width: 708
GlyphClass: 2
Flags: HMW
HStem: -16 142<313 395 313 446.5> 691 20G<53 227 227 227 481 655 655 655> 746 70<343.5 364.5 343.5 384> 887 69<343.5 364.5>
VStem: 53 174<259 711> 247 71<840.5 861.5 840.5 881> 389 71<840.5 861.5> 481 174<259 711>
AnchorPoint: "Anchor-3" 396.318 710 basechar 0
AnchorPoint: "Anchor-2" 387.303 1 basechar 0
AnchorPoint: "Anchor-0" 271.126 0 basechar 0
LayerCount: 2
Fore
SplineSet
402.666015625 746 m 0
 342.666015625 746 303.600585938 791 314.180664062 851 c 0
 324.759765625 911 379.6953125 956 439.6953125 956 c 0
 499.6953125 956 537.759765625 911 527.180664062 851 c 0
 516.600585938 791 462.666015625 746 402.666015625 746 c 0
415.008789062 816 m 0
 436.008789062 816 452.477539062 830 456.180664062 851 c 0
 459.883789062 872 448.528320312 887 427.528320312 887 c 0
 406.528320312 887 388.883789062 872 385.180664062 851 c 0
 381.477539062 830 394.008789062 816 415.008789062 816 c 0
268.3046875 -16 m 0
 84.3046875 -16 -13.828125 91 15.794921875 259 c 2
 95.4951171875 711 l 1
 269.495117188 711 l 1
 189.794921875 259 l 2
 174.807617188 174 211.34375 126 293.34375 126 c 0
 375.34375 126 428.807617188 174 443.794921875 259 c 2
 523.495117188 711 l 1
 697.495117188 711 l 1
 617.794921875 259 l 2xf9
 588.171875 91 453.3046875 -16 268.3046875 -16 c 0
EndSplineSet
Validated: 33
EndChar

StartChar: Utilde
Encoding: 360 360 114
Width: 708
GlyphClass: 2
Flags: HMW
HStem: -16 142<313 395 313 446.5> 691 20G<53 227 227 227 481 655 655 655> 764 150<256 260 177 309> 769 100<405.5 420.5 405.5 448> 769 152<447 448> 814 100<287.5 302>
VStem: 53 174<259 711> 177 50 447 82<921 921> 481 174<259 711>
AnchorPoint: "Anchor-3" 399.404 710 basechar 0
AnchorPoint: "Anchor-2" 390.389 1 basechar 0
AnchorPoint: "Anchor-0" 274.212 0 basechar 0
LayerCount: 2
Fore
SplineSet
464.807617188 769 m 0xca80
 431.807617188 769 415.041992188 776 392.09765625 799 c 0
 380.860351562 809 371.7421875 814 359.7421875 814 c 0xc640
 342.7421875 814 324.802734375 803 314.92578125 764 c 1
 231.92578125 764 l 1
 248.794921875 854 300.375 914 374.375 914 c 0xe140
 406.375 914 429.140625 907 452.26171875 885 c 0
 465.322265625 874 473.440429688 869 484.440429688 869 c 0xd280
 503.440429688 869 519.379882812 880 529.609375 921 c 1
 611.609375 921 l 1
 594.2109375 828 542.807617188 769 464.807617188 769 c 0xca80
271.390625 -16 m 0
 87.390625 -16 -10.7421875 91 18.880859375 259 c 2
 98.580078125 711 l 1
 272.580078125 711 l 1
 192.880859375 259 l 2
 177.892578125 174 214.4296875 126 296.4296875 126 c 0
 378.4296875 126 431.892578125 174 446.880859375 259 c 2
 526.580078125 711 l 1
 700.580078125 711 l 1
 620.880859375 259 l 2
 591.2578125 91 456.390625 -16 271.390625 -16 c 0
EndSplineSet
Validated: 33
EndChar

StartChar: V
Encoding: 86 86 115
Width: 751
GlyphClass: 2
Flags: HMW
HStem: 0 21G<275 275 275 475> 690 20G<18 197 197 197 554 733 733 733>
VStem: 18 715<710 710>
AnchorPoint: "Anchor-3" 438.596 710 basechar 0
AnchorPoint: "Anchor-0" 313.404 0 basechar 0
LayerCount: 2
Fore
SplineSet
212.404296875 0 m 1
 80.595703125 710 l 1
 259.595703125 710 l 1
 347.963867188 196 l 1
 616.595703125 710 l 1
 795.595703125 710 l 1
 412.404296875 0 l 1
 212.404296875 0 l 1
EndSplineSet
Validated: 1
EndChar

StartChar: W
Encoding: 87 87 116
Width: 1038
GlyphClass: 2
Flags: HMW
HStem: 0 21G<230 230 230 411 627 627 627 809> 690 20G<36 217 217 217 447 591 591 591 821 1001 1001 1001>
VStem: 36 965<710 710>
AnchorPoint: "Anchor-3" 581.596 710 basechar 0
AnchorPoint: "Anchor-0" 456.404 0 basechar 0
LayerCount: 2
Fore
SplineSet
167.404296875 0 m 1
 98.595703125 710 l 1
 279.595703125 710 l 1
 310.8984375 241 l 1
 509.595703125 710 l 1
 653.595703125 710 l 1
 687.8984375 241 l 1
 883.595703125 710 l 1
 1063.59570312 710 l 1
 746.404296875 0 l 1
 564.404296875 0 l 1
 530.813476562 422 l 1
 348.404296875 0 l 1
 167.404296875 0 l 1
EndSplineSet
Validated: 1
EndChar

StartChar: Wacute
Encoding: 7810 7810 117
Width: 1038
GlyphClass: 2
Flags: HMW
HStem: 0 21G<230 230 230 411 627 627 627 809> 690 20G<36 217 217 217 447 591 591 591 821 1001 1001 1001> 761 154<441 660 497 570>
VStem: 36 965<710 710>
AnchorPoint: "Anchor-3" 563.522 710 basechar 0
AnchorPoint: "Anchor-0" 438.33 0 basechar 0
LayerCount: 2
Fore
SplineSet
494.515625 761 m 1
 577.669921875 915 l 1
 740.669921875 915 l 1
 623.515625 761 l 1
 494.515625 761 l 1
149.330078125 0 m 1
 80.5224609375 710 l 1
 261.522460938 710 l 1
 292.825195312 241 l 1
 491.522460938 710 l 1
 635.522460938 710 l 1
 669.825195312 241 l 1
 865.522460938 710 l 1
 1045.52246094 710 l 1
 728.330078125 0 l 1
 546.330078125 0 l 1
 512.740234375 422 l 1
 330.330078125 0 l 1
 149.330078125 0 l 1
EndSplineSet
Validated: 1
EndChar

StartChar: Wcircumflex
Encoding: 372 372 118
Width: 1038
GlyphClass: 2
Flags: HMW
HStem: 0 21G<230 230 230 411 627 627 627 809> 690 20G<36 217 217 217 447 591 591 591 821 1001 1001 1001> 761 160<341 600 439 457 581 581 581 600 439 698>
VStem: 36 965<710 710>
AnchorPoint: "Anchor-3" 562.993 710 basechar 0
AnchorPoint: "Anchor-0" 437.802 0 basechar 0
LayerCount: 2
Fore
SplineSet
393.986328125 761 m 1
 520.198242188 921 l 1
 681.198242188 921 l 1
 750.986328125 761 l 1
 633.986328125 761 l 1
 587.6796875 850 l 1
 509.986328125 761 l 1
 393.986328125 761 l 1
148.801757812 0 m 1
 79.9931640625 710 l 1
 260.993164062 710 l 1
 292.295898438 241 l 1
 490.993164062 710 l 1
 634.993164062 710 l 1
 669.295898438 241 l 1
 864.993164062 710 l 1
 1044.99316406 710 l 1
 727.801757812 0 l 1
 545.801757812 0 l 1
 512.2109375 422 l 1
 329.801757812 0 l 1
 148.801757812 0 l 1
EndSplineSet
Validated: 1
EndChar

StartChar: Wdieresis
Encoding: 7812 7812 119
Width: 1038
GlyphClass: 2
Flags: HMW
HStem: 0 21G<230 230 230 411 627 627 627 809> 690 20G<36 217 217 217 447 591 591 591 821 1001 1001 1001> 767 128<324 486 324 486 553 714 324 553>
VStem: 324 162<767 895 767 895> 553 161<767 895 767 895>
AnchorPoint: "Anchor-3" 565.286 710 basechar 0
AnchorPoint: "Anchor-0" 440.094 0 basechar 0
LayerCount: 2
Fore
SplineSet
380.336914062 767 m 1
 402.90625 895 l 1
 564.90625 895 l 1
 542.336914062 767 l 1
 380.336914062 767 l 1
609.336914062 767 m 1
 631.90625 895 l 1
 792.90625 895 l 1
 770.336914062 767 l 1
 609.336914062 767 l 1
151.09375 0 m 1
 82.2861328125 710 l 1
 263.286132812 710 l 1
 294.588867188 241 l 1
 493.286132812 710 l 1
 637.286132812 710 l 1
 671.588867188 241 l 1
 867.286132812 710 l 1
 1047.28613281 710 l 1
 730.09375 0 l 1
 548.09375 0 l 1
 514.50390625 422 l 1
 332.09375 0 l 1
 151.09375 0 l 1
EndSplineSet
Validated: 1
Substitution2: "'ss08' Style Set 8 in Latin lookup 41 subtable" Wdieresis.ss08
Substitution2: "'aalt' Access All Alternates in Latin lookup 0 subtable" Wdieresis.ss08
EndChar

StartChar: Wgrave
Encoding: 7808 7808 120
Width: 1038
GlyphClass: 2
Flags: HMW
HStem: 0 21G<230 230 230 411 627 627 627 809> 690 20G<36 217 217 217 447 591 591 591 821 1001 1001 1001> 768 153<466 466 466 539 376 595>
VStem: 36 965<710 710>
AnchorPoint: "Anchor-3" 562.993 710 basechar 0
AnchorPoint: "Anchor-0" 437.802 0 basechar 0
LayerCount: 2
Fore
SplineSet
520.220703125 768 m 1
 457.198242188 921 l 1
 620.198242188 921 l 1
 649.220703125 768 l 1
 520.220703125 768 l 1
148.801757812 0 m 1
 79.9931640625 710 l 1
 260.993164062 710 l 1
 292.295898438 241 l 1
 490.993164062 710 l 1
 634.993164062 710 l 1
 669.295898438 241 l 1
 864.993164062 710 l 1
 1044.99316406 710 l 1
 727.801757812 0 l 1
 545.801757812 0 l 1
 512.2109375 422 l 1
 329.801757812 0 l 1
 148.801757812 0 l 1
EndSplineSet
Validated: 1
EndChar

StartChar: X
Encoding: 88 88 121
Width: 715
GlyphClass: 2
Flags: HMW
HStem: 0 21G<11 11 11 213 503 503 503 704> 690 20G<13 214 214 214 499 701 701 701>
VStem: 11 693<0 0>
AnchorPoint: "Anchor-3" 419.596 710 basechar 0
AnchorPoint: "Anchor-0" 294.404 0 basechar 0
LayerCount: 2
Fore
SplineSet
-51.595703125 0 m 1
 255.176757812 356 l 1
 75.595703125 710 l 1
 276.595703125 710 l 1
 382.098632812 486 l 1
 561.595703125 710 l 1
 763.595703125 710 l 1
 460.529296875 358 l 1
 641.404296875 0 l 1
 440.404296875 0 l 1
 334.606445312 228 l 1
 150.404296875 0 l 1
 -51.595703125 0 l 1
EndSplineSet
Validated: 1
EndChar

StartChar: Y
Encoding: 89 89 122
Width: 650
GlyphClass: 2
Flags: HMW
HStem: 0 21G<238 238 238 413> 690 20G<-8 182 182 182 467 657 657 657>
VStem: 238 175<0 271 0 271>
AnchorPoint: "Anchor-3" 388.596 710 basechar 0
AnchorPoint: "Anchor-0" 263.404 0 basechar 0
LayerCount: 2
Fore
SplineSet
175.404296875 0 m 1
 223.188476562 271 l 1
 54.595703125 710 l 1
 244.595703125 710 l 1
 340.811523438 439 l 1
 529.595703125 710 l 1
 719.595703125 710 l 1
 398.188476562 271 l 1
 350.404296875 0 l 1
 175.404296875 0 l 1
EndSplineSet
Validated: 1
EndChar

StartChar: Yacute
Encoding: 221 221 123
Width: 650
GlyphClass: 2
Flags: HMW
HStem: 0 21G<238 238 238 413> 690 20G<-8 182 182 182 467 657 657 657> 761 154<247 466 303 376>
VStem: 238 175<0 271 0 271>
AnchorPoint: "Anchor-3" 370.522 710 basechar 0
AnchorPoint: "Anchor-0" 245.33 0 basechar 0
LayerCount: 2
Fore
SplineSet
300.515625 761 m 1
 383.669921875 915 l 1
 546.669921875 915 l 1
 429.515625 761 l 1
 300.515625 761 l 1
157.330078125 0 m 1
 205.115234375 271 l 1
 36.5224609375 710 l 1
 226.522460938 710 l 1
 322.73828125 439 l 1
 511.522460938 710 l 1
 701.522460938 710 l 1
 380.115234375 271 l 1
 332.330078125 0 l 1
 157.330078125 0 l 1
EndSplineSet
Validated: 1
EndChar

StartChar: Ycircumflex
Encoding: 374 374 124
Width: 650
GlyphClass: 2
Flags: HMW
HStem: 0 21G<238 238 238 413> 690 20G<-8 182 182 182 467 657 657 657> 761 160<147 406 245 263 388 388 388 406 245 504>
VStem: 238 175<0 271 0 271>
AnchorPoint: "Anchor-3" 369.993 710 basechar 0
AnchorPoint: "Anchor-0" 244.802 0 basechar 0
LayerCount: 2
Fore
SplineSet
199.986328125 761 m 1
 326.198242188 921 l 1
 487.198242188 921 l 1
 556.986328125 761 l 1
 440.986328125 761 l 1
 394.6796875 850 l 1
 315.986328125 761 l 1
 199.986328125 761 l 1
156.801757812 0 m 1
 204.5859375 271 l 1
 35.9931640625 710 l 1
 225.993164062 710 l 1
 322.208984375 439 l 1
 510.993164062 710 l 1
 700.993164062 710 l 1
 379.5859375 271 l 1
 331.801757812 0 l 1
 156.801757812 0 l 1
EndSplineSet
Validated: 1
EndChar

StartChar: Ydieresis
Encoding: 376 376 125
Width: 650
GlyphClass: 2
Flags: HMW
HStem: 0 21G<238 238 238 413> 690 20G<-8 182 182 182 467 657 657 657> 767 128<131 292 131 292 359 521 131 359>
VStem: 131 161<767 895 767 895> 238 175<0 271 0 271> 359 162<767 895 767 895>
AnchorPoint: "Anchor-3" 372.286 710 basechar 0
AnchorPoint: "Anchor-0" 247.094 0 basechar 0
LayerCount: 2
Fore
SplineSet
187.336914062 767 m 1xf4
 209.90625 895 l 1
 370.90625 895 l 1
 348.336914062 767 l 1
 187.336914062 767 l 1xf4
415.336914062 767 m 1
 437.90625 895 l 1
 599.90625 895 l 1
 577.336914062 767 l 1
 415.336914062 767 l 1
159.09375 0 m 1xe8
 206.877929688 271 l 1
 38.2861328125 710 l 1
 228.286132812 710 l 1
 324.500976562 439 l 1
 513.286132812 710 l 1
 703.286132812 710 l 1
 381.877929688 271 l 1
 334.09375 0 l 1
 159.09375 0 l 1xe8
EndSplineSet
Validated: 1
Substitution2: "'ss08' Style Set 8 in Latin lookup 41 subtable" Ydieresis.ss08
Substitution2: "'aalt' Access All Alternates in Latin lookup 0 subtable" Ydieresis.ss08
EndChar

StartChar: Ygrave
Encoding: 7922 7922 126
Width: 650
GlyphClass: 2
Flags: HMW
HStem: 0 21G<238 238 238 413> 690 20G<-8 182 182 182 467 657 657 657> 768 153<272 272 272 345 182 401>
VStem: 238 175<0 271 0 271>
AnchorPoint: "Anchor-3" 369.993 710 basechar 0
AnchorPoint: "Anchor-0" 244.802 0 basechar 0
LayerCount: 2
Fore
SplineSet
326.220703125 768 m 1
 263.198242188 921 l 1
 426.198242188 921 l 1
 455.220703125 768 l 1
 326.220703125 768 l 1
156.801757812 0 m 1
 204.5859375 271 l 1
 35.9931640625 710 l 1
 225.993164062 710 l 1
 322.208984375 439 l 1
 510.993164062 710 l 1
 700.993164062 710 l 1
 379.5859375 271 l 1
 331.801757812 0 l 1
 156.801757812 0 l 1
EndSplineSet
Validated: 1
EndChar

StartChar: uni1EF8
Encoding: 7928 7928 127
Width: 650
GlyphClass: 2
Flags: HMW
HStem: 0 21G<238 238 238 413> 690 20G<-8 182 182 182 467 657 657 657> 764 150<228 232 149 281> 769 100<377.5 392.5 377.5 419.5> 769 152<419 419.5> 814 100<259.5 274>
VStem: 149 83<764 764> 238 175<0 271 0 271> 419 82<921 921>
AnchorPoint: "Anchor-3" 369.993 710 basechar 0
AnchorPoint: "Anchor-0" 244.802 0 basechar 0
LayerCount: 2
Fore
SplineSet
435.396484375 769 m 0xc880
 402.396484375 769 384.630859375 776 362.686523438 799 c 0
 351.450195312 809 342.33203125 814 330.33203125 814 c 0xc6
 313.33203125 814 295.391601562 803 285.515625 764 c 1
 202.515625 764 l 1
 219.384765625 854 270.963867188 914 344.963867188 914 c 0xe2
 376.963867188 914 399.73046875 907 422.850585938 885 c 0
 435.911132812 874 444.029296875 869 455.029296875 869 c 0xd080
 474.029296875 869 489.96875 880 500.198242188 921 c 1
 582.198242188 921 l 1
 564.799804688 828 512.396484375 769 435.396484375 769 c 0xc880
156.801757812 0 m 1xe1
 204.5859375 271 l 1
 35.9931640625 710 l 1
 225.993164062 710 l 1
 322.208984375 439 l 1
 510.993164062 710 l 1
 700.993164062 710 l 1
 379.5859375 271 l 1
 331.801757812 0 l 1
 156.801757812 0 l 1xe1
EndSplineSet
Validated: 1
EndChar

StartChar: Z
Encoding: 90 90 128
Width: 610
GlyphClass: 2
Flags: HMW
HStem: 0 142<237 584 237 584> 568 142<43 351 43 570>
VStem: 26 558<0 136 136 136>
AnchorPoint: "Anchor-3" 376.596 710 basechar 0
AnchorPoint: "Anchor-0" 251.404 0 basechar 0
LayerCount: 2
Fore
SplineSet
-36.595703125 0 m 1
 -12.615234375 136 l 1
 388.557617188 568 l 1
 80.5576171875 568 l 1
 105.595703125 710 l 1
 632.595703125 710 l 1
 608.615234375 574 l 1
 199.442382812 142 l 1
 546.442382812 142 l 1
 521.404296875 0 l 1
 -36.595703125 0 l 1
EndSplineSet
Validated: 1
EndChar

StartChar: Zacute
Encoding: 377 377 129
Width: 610
GlyphClass: 2
Flags: HMW
HStem: 0 142<237 584 237 584> 568 142<43 351 43 570> 761 154<236 455 292 365>
VStem: 26 558<0 136 136 136>
AnchorPoint: "Anchor-3" 358.522 710 basechar 0
AnchorPoint: "Anchor-0" 233.33 0 basechar 0
LayerCount: 2
Fore
SplineSet
289.515625 761 m 1
 372.669921875 915 l 1
 535.669921875 915 l 1
 418.515625 761 l 1
 289.515625 761 l 1
-54.669921875 0 m 1
 -30.689453125 136 l 1
 370.484375 568 l 1
 62.484375 568 l 1
 87.5224609375 710 l 1
 614.522460938 710 l 1
 590.541992188 574 l 1
 181.369140625 142 l 1
 528.369140625 142 l 1
 503.330078125 0 l 1
 -54.669921875 0 l 1
EndSplineSet
Validated: 1
EndChar

StartChar: Zcaron
Encoding: 381 381 130
Width: 610
GlyphClass: 2
Flags: HMW
HStem: 0 142<237 584 237 584> 568 142<43 351 43 570> 761 160<234 252 377 395 234 234>
VStem: 26 558<0 136 136 136>
AnchorPoint: "Anchor-3" 357.993 710 basechar 0
AnchorPoint: "Anchor-0" 232.802 0 basechar 0
LayerCount: 2
Fore
SplineSet
217.198242188 921 m 1
 333.198242188 921 l 1
 379.505859375 832 l 1
 458.198242188 921 l 1
 574.198242188 921 l 1
 447.986328125 761 l 1
 286.986328125 761 l 1
 217.198242188 921 l 1
-55.1982421875 0 m 1
 -31.2177734375 136 l 1
 369.955078125 568 l 1
 61.955078125 568 l 1
 86.9931640625 710 l 1
 613.993164062 710 l 1
 590.012695312 574 l 1
 180.83984375 142 l 1
 527.83984375 142 l 1
 502.801757812 0 l 1
 -55.1982421875 0 l 1
EndSplineSet
Validated: 1
EndChar

StartChar: Zdotaccent
Encoding: 379 379 131
Width: 610
GlyphClass: 2
Flags: HMW
HStem: 0 142<237 584 237 584> 568 142<43 351 43 570> 770 128<226 403 226 403>
VStem: 226 177<770 898 770 898>
AnchorPoint: "Anchor-3" 360.021 710 basechar 0
AnchorPoint: "Anchor-0" 234.829 0 basechar 0
LayerCount: 2
Fore
SplineSet
282.600585938 770 m 1
 305.170898438 898 l 1
 482.170898438 898 l 1
 459.600585938 770 l 1
 282.600585938 770 l 1
-53.1708984375 0 m 1
 -29.1904296875 136 l 1
 371.983398438 568 l 1
 63.9833984375 568 l 1
 89.021484375 710 l 1
 616.021484375 710 l 1
 592.041015625 574 l 1
 182.8671875 142 l 1
 529.8671875 142 l 1
 504.829101562 0 l 1
 -53.1708984375 0 l 1
EndSplineSet
Validated: 1
Substitution2: "'ss08' Style Set 8 in Latin lookup 41 subtable" Zdotaccent.ss08
Substitution2: "'aalt' Access All Alternates in Latin lookup 0 subtable" Zdotaccent.ss08
EndChar

StartChar: uniA78B
Encoding: 42891 42891 132
Width: 243
GlyphClass: 1
Flags: HMW
HStem: 690 20G<41 202 202 202>
VStem: 41 161<563 710 563 710>
LayerCount: 2
Fore
SplineSet
20.880859375 323 m 1
 49.19921875 563 l 1
 75.119140625 710 l 1
 236.119140625 710 l 1
 210.19921875 563 l 1
 154.880859375 323 l 1
 20.880859375 323 l 1
EndSplineSet
Validated: 1
EndChar

StartChar: uni013B.loclMAH
Encoding: 65538 -1 133
Width: 592
GlyphClass: 2
Flags: HMW
HStem: -173 126<244 278 244 384> 0 142<242 560 242 560> 690 20G<68 242 242 242>
VStem: 68 174<142 710 142 710 142 710> 244 140<-160 -47 -160 -47 -160 -47>
AnchorPoint: "Anchor-4" 411.014 538 basechar 0
AnchorPoint: "Anchor-3" 240.342 710 basechar 0
AnchorPoint: "Anchor-1" 214.154 380 basechar 0
AnchorPoint: "Anchor-0" 228.658 -258 basechar 0
LayerCount: 2
Fore
SplineSet
28.150390625 0 m 1
 153.341796875 710 l 1
 327.341796875 710 l 1
 227.188476562 142 l 1
 545.188476562 142 l 1
 520.150390625 0 l 1
 28.150390625 0 l 1
141.658203125 -258 m 1
 207.645507812 -173 l 1
 173.645507812 -173 l 1
 195.862304688 -47 l 1
 335.862304688 -47 l 1
 315.9375 -160 l 1xe8
 239.658203125 -258 l 1
 141.658203125 -258 l 1
EndSplineSet
Validated: 1
EndChar

StartChar: uni0145.loclMAH
Encoding: 65539 -1 134
Width: 753
GlyphClass: 2
Flags: HMW
HStem: -173 126<302 336 302 442> 0 21G<68 68 68 242 501 501 501 685> 690 20G<68 251 251 251 511 685 685 685>
VStem: 68 174<0 426 0 710> 302 140<-160 -47 -160 -47 -160 -47> 511 174<265 710 0 710>
AnchorPoint: "Anchor-3" 465.342 710 basechar 0
AnchorPoint: "Anchor-0" 286.658 -258 basechar 0
LayerCount: 2
Fore
SplineSet
28.150390625 0 m 1
 153.341796875 710 l 1
 336.341796875 710 l 1
 517.876953125 265 l 1
 596.341796875 710 l 1
 770.341796875 710 l 1
 645.150390625 0 l 1
 461.150390625 0 l 1
 277.265625 426 l 1
 202.150390625 0 l 1
 28.150390625 0 l 1
199.658203125 -258 m 1
 265.645507812 -173 l 1
 231.645507812 -173 l 1
 253.862304688 -47 l 1
 393.862304688 -47 l 1
 373.9375 -160 l 1
 297.658203125 -258 l 1
 199.658203125 -258 l 1
EndSplineSet
Validated: 1
EndChar

StartChar: R.ss04
Encoding: 65540 -1 135
Width: 719
GlyphClass: 2
Flags: HMW
HStem: 0 21G<68 68 68 242 485 485 485 672> 252 141<242 350 350 355 242 350> 568 142<242 350 242 242>
VStem: 68 174<0 252 393 568> 465 177<450 508.5>
AnchorPoint: "Anchor-3" 408.596 710 basechar 0
AnchorPoint: "Anchor-0" 283.404 0 basechar 0
LayerCount: 2
Fore
SplineSet
5.404296875 0 m 1
 130.595703125 710 l 1
 424.595703125 710 l 2
 603.595703125 710 689.9609375 627 664.216796875 481 c 0
 648.876953125 394 594.299804688 317 504.48046875 284 c 1
 609.404296875 0 l 1
 422.404296875 0 l 1
 336.837890625 252 l 1
 223.837890625 252 l 1
 179.404296875 0 l 1
 5.404296875 0 l 1
248.700195312 393 m 1
 356.700195312 393 l 2
 424.700195312 393 476.637695312 421 486.864257812 479 c 0
 497.267578125 538 455.557617188 568 387.557617188 568 c 2
 279.557617188 568 l 1
 248.700195312 393 l 1
EndSplineSet
Validated: 33
EndChar

StartChar: Racute.ss04
Encoding: 65541 -1 136
Width: 719
GlyphClass: 2
Flags: HMW
HStem: 0 21G<68 68 68 242 485 485 485 672> 252 141<242 350 350 355 242 350> 568 142<242 350 242 242> 761 154<267 486 323 396>
VStem: 68 174<0 252 393 568> 465 177<450 508.5>
AnchorPoint: "Anchor-3" 390.522 710 basechar 0
AnchorPoint: "Anchor-0" 265.33 0 basechar 0
LayerCount: 2
Fore
SplineSet
320.515625 761 m 1
 403.669921875 915 l 1
 566.669921875 915 l 1
 449.515625 761 l 1
 320.515625 761 l 1
-12.669921875 0 m 1
 112.522460938 710 l 1
 406.522460938 710 l 2
 585.522460938 710 671.887695312 627 646.143554688 481 c 0
 630.803710938 394 576.225585938 317 486.407226562 284 c 1
 591.330078125 0 l 1
 404.330078125 0 l 1
 318.764648438 252 l 1
 205.764648438 252 l 1
 161.330078125 0 l 1
 -12.669921875 0 l 1
230.626953125 393 m 1
 338.626953125 393 l 2
 406.626953125 393 458.564453125 421 468.791015625 479 c 0
 479.194335938 538 437.484375 568 369.484375 568 c 2
 261.484375 568 l 1
 230.626953125 393 l 1
EndSplineSet
Validated: 33
EndChar

StartChar: Rcaron.ss04
Encoding: 65542 -1 137
Width: 719
GlyphClass: 2
Flags: HMW
HStem: 0 21G<68 68 68 242 485 485 485 672> 252 141<242 350 350 355 242 350> 568 142<242 350 242 242> 761 160<265 283 408 426 265 265>
VStem: 68 174<0 252 393 568> 465 177<450 508.5>
AnchorPoint: "Anchor-3" 389.993 710 basechar 0
AnchorPoint: "Anchor-0" 264.802 0 basechar 0
LayerCount: 2
Fore
SplineSet
248.198242188 921 m 1
 364.198242188 921 l 1
 411.505859375 832 l 1
 489.198242188 921 l 1
 605.198242188 921 l 1
 478.986328125 761 l 1
 317.986328125 761 l 1
 248.198242188 921 l 1
-13.1982421875 0 m 1
 111.993164062 710 l 1
 405.993164062 710 l 2
 584.993164062 710 671.358398438 627 645.614257812 481 c 0
 630.274414062 394 575.697265625 317 485.877929688 284 c 1
 590.801757812 0 l 1
 403.801757812 0 l 1
 318.235351562 252 l 1
 205.235351562 252 l 1
 160.801757812 0 l 1
 -13.1982421875 0 l 1
230.09765625 393 m 1
 338.09765625 393 l 2
 406.09765625 393 458.03515625 421 468.26171875 479 c 0
 478.665039062 538 436.955078125 568 368.955078125 568 c 2
 260.955078125 568 l 1
 230.09765625 393 l 1
EndSplineSet
Validated: 33
EndChar

StartChar: uni0156.ss04
Encoding: 65543 -1 138
Width: 719
GlyphClass: 2
Flags: HMW
HStem: -173 126<276 310 276 416> 0 21G<68 68 68 242 485 485 485 672> 252 141<242 350 350 355 242 350> 568 142<242 350 242 242>
VStem: 68 174<0 252 393 568> 276 140<-160 -47 -160 -47 -160 -47> 465 177<450 508.5>
AnchorPoint: "Anchor-3" 431.342 710 basechar 0
AnchorPoint: "Anchor-0" 260.658 -258 basechar 0
LayerCount: 2
Fore
SplineSet
28.150390625 0 m 1
 153.341796875 710 l 1
 447.341796875 710 l 2
 626.341796875 710 712.70703125 627 686.963867188 481 c 0
 671.623046875 394 617.045898438 317 527.2265625 284 c 1
 632.150390625 0 l 1
 445.150390625 0 l 1
 359.584960938 252 l 1
 246.584960938 252 l 1
 202.150390625 0 l 1
 28.150390625 0 l 1
271.446289062 393 m 1
 379.446289062 393 l 2
 447.446289062 393 499.383789062 421 509.610351562 479 c 0
 520.013671875 538 478.303710938 568 410.303710938 568 c 2
 302.303710938 568 l 1
 271.446289062 393 l 1
173.658203125 -258 m 1
 239.645507812 -173 l 1
 205.645507812 -173 l 1
 227.862304688 -47 l 1
 367.862304688 -47 l 1
 347.9375 -160 l 1
 271.658203125 -258 l 1
 173.658203125 -258 l 1
EndSplineSet
Validated: 33
EndChar

StartChar: I.ss05
Encoding: 65544 -1 139
Width: 488
GlyphClass: 2
Flags: HMW
HStem: 0 142<41 156 41 156 331 447> 568 142<47 156 47 441 331 331 331 441>
VStem: 156 175<142 568 142 568>
AnchorPoint: "Anchor-3" 305.596 710 basechar 0
AnchorPoint: "Anchor-2" 384.404 0 basechar 0
AnchorPoint: "Anchor-0" 180.404 0 basechar 0
LayerCount: 2
Fore
SplineSet
-21.595703125 0 m 1
 3.4423828125 142 l 1
 118.442382812 142 l 1
 193.557617188 568 l 1
 84.5576171875 568 l 1
 109.595703125 710 l 1
 503.595703125 710 l 1
 478.557617188 568 l 1
 368.557617188 568 l 1
 293.442382812 142 l 1
 409.442382812 142 l 1
 384.404296875 0 l 1
 -21.595703125 0 l 1
EndSplineSet
Validated: 1
EndChar

StartChar: Iacute.ss05
Encoding: 65545 -1 140
Width: 488
GlyphClass: 2
Flags: HMW
HStem: 0 142<41 156 41 156 331 447> 568 142<47 156 47 441 331 331 331 441> 761 154<165 384 221 294>
VStem: 156 175<142 568 142 568>
AnchorPoint: "Anchor-3" 287.522 710 basechar 0
AnchorPoint: "Anchor-2" 366.33 0 basechar 0
AnchorPoint: "Anchor-0" 162.33 0 basechar 0
LayerCount: 2
Fore
SplineSet
218.515625 761 m 1
 301.669921875 915 l 1
 464.669921875 915 l 1
 347.515625 761 l 1
 218.515625 761 l 1
-39.669921875 0 m 1
 -14.630859375 142 l 1
 100.369140625 142 l 1
 175.484375 568 l 1
 66.484375 568 l 1
 91.5224609375 710 l 1
 485.522460938 710 l 1
 460.484375 568 l 1
 350.484375 568 l 1
 275.369140625 142 l 1
 391.369140625 142 l 1
 366.330078125 0 l 1
 -39.669921875 0 l 1
EndSplineSet
Validated: 1
EndChar

StartChar: Icircumflex.ss05
Encoding: 65546 -1 141
Width: 488
GlyphClass: 2
Flags: HMW
HStem: 0 142<41 156 41 156 331 447> 568 142<47 156 47 441 331 331 331 441> 761 160<65 324 163 181 306 306 306 324 163 422>
VStem: 156 175<142 568 142 568>
AnchorPoint: "Anchor-3" 286.993 710 basechar 0
AnchorPoint: "Anchor-2" 365.802 0 basechar 0
AnchorPoint: "Anchor-0" 161.802 0 basechar 0
LayerCount: 2
Fore
SplineSet
117.986328125 761 m 1
 244.198242188 921 l 1
 405.198242188 921 l 1
 474.986328125 761 l 1
 358.986328125 761 l 1
 311.6796875 850 l 1
 233.986328125 761 l 1
 117.986328125 761 l 1
-40.1982421875 0 m 1
 -15.16015625 142 l 1
 99.83984375 142 l 1
 174.955078125 568 l 1
 65.955078125 568 l 1
 90.9931640625 710 l 1
 484.993164062 710 l 1
 459.955078125 568 l 1
 349.955078125 568 l 1
 274.83984375 142 l 1
 390.83984375 142 l 1
 365.801757812 0 l 1
 -40.1982421875 0 l 1
EndSplineSet
Validated: 1
EndChar

StartChar: Idieresis.ss05
Encoding: 65547 -1 142
Width: 488
GlyphClass: 2
Flags: HMW
HStem: 0 142<41 156 41 156 331 447> 568 142<47 156 47 441 331 331 331 441> 767 128<48 210 48 210 277 438 48 277>
VStem: 47 163<568 895 710 895> 48 162<767 895 767 895> 156 175<142 568 142 568> 277 161<767 895 767 895> 277 164<568 895>
AnchorPoint: "Anchor-3" 289.286 710 basechar 0
AnchorPoint: "Anchor-2" 368.094 0 basechar 0
AnchorPoint: "Anchor-0" 164.094 0 basechar 0
LayerCount: 2
Fore
SplineSet
104.336914062 767 m 1xea
 126.90625 895 l 1
 288.90625 895 l 1
 266.336914062 767 l 1
 104.336914062 767 l 1xea
333.336914062 767 m 1
 355.90625 895 l 1
 516.90625 895 l 1
 494.336914062 767 l 1
 333.336914062 767 l 1
-37.90625 0 m 1
 -12.8681640625 142 l 1
 102.131835938 142 l 1
 177.247070312 568 l 1xe4
 68.2470703125 568 l 1
 93.2861328125 710 l 1
 487.286132812 710 l 1
 462.247070312 568 l 1xf1
 352.247070312 568 l 1
 277.131835938 142 l 1xe4
 393.131835938 142 l 1
 368.09375 0 l 1
 -37.90625 0 l 1
EndSplineSet
Validated: 1
Substitution2: "'ss08' Style Set 8 in Latin lookup 41 subtable" Idieresis.ss05.ss08
Substitution2: "'aalt' Access All Alternates in Latin lookup 0 subtable" Idieresis.ss05.ss08
EndChar

StartChar: Idotaccent.ss05
Encoding: 65548 -1 143
Width: 488
GlyphClass: 2
Flags: HMW
HStem: 0 142<41 156 41 156 331 447> 568 142<47 156 47 441 331 331 331 441> 770 128<155 332 155 332>
VStem: 155 177<770 898 770 898> 156 175<142 568 142 568>
AnchorPoint: "Anchor-3" 289.021 710 basechar 0
AnchorPoint: "Anchor-2" 367.829 0 basechar 0
AnchorPoint: "Anchor-0" 163.829 0 basechar 0
LayerCount: 2
Fore
SplineSet
211.600585938 770 m 1xf0
 234.170898438 898 l 1
 411.170898438 898 l 1
 388.600585938 770 l 1
 211.600585938 770 l 1xf0
-38.1708984375 0 m 1
 -13.1328125 142 l 1
 101.8671875 142 l 1
 176.983398438 568 l 1
 67.9833984375 568 l 1
 93.021484375 710 l 1
 487.021484375 710 l 1
 461.983398438 568 l 1
 351.983398438 568 l 1
 276.8671875 142 l 1xe8
 392.8671875 142 l 1
 367.829101562 0 l 1
 -38.1708984375 0 l 1
EndSplineSet
Validated: 1
Substitution2: "'ss08' Style Set 8 in Latin lookup 41 subtable" Idotaccent.ss05.ss08
Substitution2: "'aalt' Access All Alternates in Latin lookup 0 subtable" Idotaccent.ss05.ss08
EndChar

StartChar: Igrave.ss05
Encoding: 65549 -1 144
Width: 488
GlyphClass: 2
Flags: HMW
HStem: 0 142<41 156 41 156 331 447> 568 142<47 156 47 441 331 331 331 441> 768 153<190 190 190 263 100 319>
VStem: 156 175<142 568 142 568>
AnchorPoint: "Anchor-3" 286.993 710 basechar 0
AnchorPoint: "Anchor-2" 365.802 0 basechar 0
AnchorPoint: "Anchor-0" 161.802 0 basechar 0
LayerCount: 2
Fore
SplineSet
244.220703125 768 m 1
 181.198242188 921 l 1
 344.198242188 921 l 1
 373.220703125 768 l 1
 244.220703125 768 l 1
-40.1982421875 0 m 1
 -15.16015625 142 l 1
 99.83984375 142 l 1
 174.955078125 568 l 1
 65.955078125 568 l 1
 90.9931640625 710 l 1
 484.993164062 710 l 1
 459.955078125 568 l 1
 349.955078125 568 l 1
 274.83984375 142 l 1
 390.83984375 142 l 1
 365.801757812 0 l 1
 -40.1982421875 0 l 1
EndSplineSet
Validated: 1
EndChar

StartChar: Imacron.ss05
Encoding: 65550 -1 145
Width: 488
GlyphClass: 2
Flags: HMW
HStem: 0 142<41 156 41 156 331 447> 568 142<47 156 47 441 331 331 331 441> 773 122<89 398 89 398>
VStem: 89 309<773 895 773 895> 156 175<142 568 142 568>
AnchorPoint: "Anchor-3" 289.286 710 basechar 0
AnchorPoint: "Anchor-2" 368.094 0 basechar 0
AnchorPoint: "Anchor-0" 164.094 0 basechar 0
LayerCount: 2
Fore
SplineSet
146.39453125 773 m 1xf0
 167.90625 895 l 1
 476.90625 895 l 1
 455.39453125 773 l 1
 146.39453125 773 l 1xf0
-37.90625 0 m 1
 -12.8681640625 142 l 1
 102.131835938 142 l 1
 177.247070312 568 l 1
 68.2470703125 568 l 1
 93.2861328125 710 l 1
 487.286132812 710 l 1
 462.247070312 568 l 1
 352.247070312 568 l 1
 277.131835938 142 l 1xe8
 393.131835938 142 l 1
 368.09375 0 l 1
 -37.90625 0 l 1
EndSplineSet
Validated: 1
EndChar

StartChar: Iogonek.ss05
Encoding: 65551 -1 146
Width: 488
GlyphClass: 2
Flags: HMW
HStem: -220 97<333 419.5> 0 142<41 156 41 156 41 313> 568 142<47 156 47 441 331 331 331 441>
VStem: 156 175<142 568 142 568> 251 135<-158.5 -90> 251 196<-158.5 142>
AnchorPoint: "Anchor-3" 324.992 710 basechar 0
AnchorPoint: "Anchor-2" 403.8 0 basechar 0
AnchorPoint: "Anchor-0" 199.8 0 basechar 0
LayerCount: 2
Fore
SplineSet
-2.2001953125 0 m 1xe4
 22.837890625 142 l 1
 137.837890625 142 l 1
 212.954101562 568 l 1
 103.954101562 568 l 1
 128.9921875 710 l 1
 522.9921875 710 l 1
 497.954101562 568 l 1
 387.954101562 568 l 1
 312.837890625 142 l 1x70
 428.837890625 142 l 1
 403.799804688 0 l 1x64
 368.275390625 -37 l 2
 346.043945312 -61 328.340820312 -82 325.51953125 -98 c 0xe8
 322.522460938 -115 333.111328125 -123 346.111328125 -123 c 0
 363.111328125 -123 382.169921875 -117 392.404296875 -110 c 1
 406.592773438 -194 l 1
 385.124023438 -208 334.0078125 -220 289.0078125 -220 c 0
 213.0078125 -220 174.650390625 -188 185.053710938 -129 c 0
 192.283203125 -88 221.983398438 -50 251.44921875 -19 c 2
 269.799804688 0 l 1
 -2.2001953125 0 l 1xe4
EndSplineSet
Validated: 33
EndChar

StartChar: Itilde.ss05
Encoding: 65552 -1 147
Width: 488
GlyphClass: 2
Flags: HMW
HStem: 0 142<41 156 41 156 331 447> 568 142<47 156 47 441 331 331 331 441> 764 150<146 149 67 199> 769 100<295.5 310 295.5 337> 769 152<336 337> 814 100<177 192>
VStem: 67 82<764 809> 156 175<142 568 142 568> 336 83<921 921>
AnchorPoint: "Anchor-3" 286.993 710 basechar 0
AnchorPoint: "Anchor-2" 365.802 0 basechar 0
AnchorPoint: "Anchor-0" 161.802 0 basechar 0
LayerCount: 2
Fore
SplineSet
352.396484375 769 m 0xc880
 320.396484375 769 302.630859375 776 279.686523438 799 c 0
 269.450195312 809 260.33203125 814 248.33203125 814 c 0xc6
 230.33203125 814 213.391601562 803 202.515625 764 c 1
 120.515625 764 l 1
 136.384765625 854 188.963867188 914 262.963867188 914 c 0xe2
 294.963867188 914 317.73046875 907 340.850585938 885 c 0
 353.911132812 874 362.029296875 869 373.029296875 869 c 0xd080
 391.029296875 869 407.96875 880 417.198242188 921 c 1
 500.198242188 921 l 1
 482.799804688 828 430.396484375 769 352.396484375 769 c 0xc880
-40.1982421875 0 m 1
 -15.16015625 142 l 1
 99.83984375 142 l 1
 174.955078125 568 l 1
 65.955078125 568 l 1
 90.9931640625 710 l 1
 484.993164062 710 l 1
 459.955078125 568 l 1
 349.955078125 568 l 1
 274.83984375 142 l 1xc1
 390.83984375 142 l 1
 365.801757812 0 l 1
 -40.1982421875 0 l 1
EndSplineSet
Validated: 1
EndChar

StartChar: G.ss06
Encoding: 65553 -1 148
Width: 741
GlyphClass: 2
Flags: HMW
HStem: -16 142<329 428.5 329 483> 252 121<385 532 385 705> 584 142<330 429.5>
VStem: 41 179<286.5 421 286.5 460.5> 385 320<252 331 331 373 214 373> 532 173<252 252>
AnchorPoint: "Anchor-3" 449.596 710 basechar 0
AnchorPoint: "Anchor-0" 326.404 0 basechar 0
LayerCount: 2
Fore
SplineSet
321.583007812 -16 m 0xf4
 90.5830078125 -16 3.4423828125 142 40.8232421875 354 c 0
 78.380859375 567 231.416992188 726 456.416992188 726 c 0
 632.416992188 726 722.666015625 631 723.629882812 472 c 1
 542.219726562 464 l 1
 542.444335938 539 512.37890625 584 427.37890625 584 c 0
 313.37890625 584 243.451171875 488 219.823242188 354 c 0
 196.01953125 219 234.62109375 126 342.62109375 126 c 0
 433.62109375 126 493.084960938 174 513.837890625 252 c 1xf4
 366.837890625 252 l 1
 388.173828125 373 l 1xf8
 708.173828125 373 l 1
 700.768554688 331 l 2
 659.5078125 97 513.583007812 -16 321.583007812 -16 c 0xf4
EndSplineSet
Validated: 33
EndChar

StartChar: Gbreve.ss06
Encoding: 65554 -1 149
Width: 741
GlyphClass: 2
Flags: HMW
HStem: -16 142<329 428.5 329 483> 252 121<385 532 385 705> 584 142<330 429.5> 760 89<368 406 368 435> 760 153<224 435>
VStem: 41 179<286.5 421 286.5 460.5> 385 320<252 331 331 373 214 373> 532 173<252 252>
AnchorPoint: "Anchor-3" 433.109 710 basechar 0
AnchorPoint: "Anchor-0" 309.917 0 basechar 0
LayerCount: 2
Fore
SplineSet
441.92578125 760 m 0xee
 344.92578125 760 292.624023438 815 305.904296875 913 c 1xed
 402.904296875 913 l 1
 398.79296875 867 419.619140625 849 457.619140625 849 c 0xf4
 495.619140625 849 521.79296875 867 533.904296875 913 c 1
 630.904296875 913 l 1
 609.624023438 815 537.92578125 760 441.92578125 760 c 0xee
305.095703125 -16 m 0
 74.095703125 -16 -13.0439453125 142 24.3369140625 354 c 0
 61.89453125 567 214.930664062 726 439.930664062 726 c 0
 615.930664062 726 706.1796875 631 707.143554688 472 c 1
 525.733398438 464 l 1
 525.958007812 539 495.892578125 584 410.892578125 584 c 0
 296.892578125 584 226.96484375 488 203.336914062 354 c 0
 179.533203125 219 218.134765625 126 326.134765625 126 c 0
 417.134765625 126 476.598632812 174 497.3515625 252 c 1xf5
 350.3515625 252 l 1
 371.6875 373 l 1xf6
 691.6875 373 l 1
 684.28125 331 l 2
 643.021484375 97 497.095703125 -16 305.095703125 -16 c 0
EndSplineSet
Validated: 33
EndChar

StartChar: Gcircumflex.ss06
Encoding: 65555 -1 150
Width: 741
GlyphClass: 2
Flags: HMW
HStem: -16 142<329 428.5 329 483> 252 121<385 532 385 705> 584 142<330 429.5> 761 160<208 467 306 324 449 449 449 467 306 565>
VStem: 41 179<286.5 421 286.5 460.5> 385 320<252 331 331 373 214 373> 532 173<252 252>
AnchorPoint: "Anchor-3" 432.404 710 basechar 0
AnchorPoint: "Anchor-0" 309.212 0 basechar 0
LayerCount: 2
Fore
SplineSet
262.396484375 761 m 1xfa
 388.609375 921 l 1
 549.609375 921 l 1
 619.396484375 761 l 1
 503.396484375 761 l 1
 457.08984375 850 l 1
 378.396484375 761 l 1
 262.396484375 761 l 1xfa
304.390625 -16 m 0
 73.390625 -16 -13.75 142 23.6318359375 354 c 0
 61.189453125 567 214.225585938 726 439.225585938 726 c 0
 615.225585938 726 705.474609375 631 706.438476562 472 c 1
 525.02734375 464 l 1
 525.251953125 539 495.186523438 584 410.186523438 584 c 0
 296.186523438 584 226.259765625 488 202.631835938 354 c 0
 178.828125 219 217.4296875 126 325.4296875 126 c 0
 416.4296875 126 475.892578125 174 496.646484375 252 c 1xfa
 349.646484375 252 l 1
 370.982421875 373 l 1xfc
 690.982421875 373 l 1
 683.576171875 331 l 2
 642.315429688 97 496.390625 -16 304.390625 -16 c 0
EndSplineSet
Validated: 33
EndChar

StartChar: uni0122.ss06
Encoding: 65556 -1 151
Width: 741
GlyphClass: 2
Flags: HMW
HStem: -173 126<319 354 319 459> -16 142<329 428.5 329 483> 252 121<385 532 385 705> 584 142<330 429.5>
VStem: 41 179<286.5 421 286.5 460.5> 319 140<-160 -47 -160 -47 -160 -47> 385 320<252 331 331 373 214 373> 532 173<252 252>
AnchorPoint: "Anchor-3" 470.932 710 basechar 0
AnchorPoint: "Anchor-0" 302.247 -258 basechar 0
LayerCount: 2
Fore
SplineSet
342.91796875 -16 m 0xfd
 111.91796875 -16 24.7783203125 142 62.1591796875 354 c 0
 99.716796875 567 252.752929688 726 477.752929688 726 c 0
 653.752929688 726 744.001953125 631 744.965820312 472 c 1
 563.555664062 464 l 1
 563.779296875 539 533.71484375 584 448.71484375 584 c 0
 334.71484375 584 264.787109375 488 241.159179688 354 c 0
 217.35546875 219 255.95703125 126 363.95703125 126 c 0
 454.95703125 126 514.419921875 174 535.173828125 252 c 1xfd
 388.173828125 252 l 1
 409.509765625 373 l 1xfa
 729.509765625 373 l 1
 722.103515625 331 l 2
 680.842773438 97 534.91796875 -16 342.91796875 -16 c 0xfd
216.247070312 -258 m 1
 282.235351562 -173 l 1
 247.235351562 -173 l 1
 269.452148438 -47 l 1
 409.452148438 -47 l 1
 389.52734375 -160 l 1
 314.247070312 -258 l 1
 216.247070312 -258 l 1
EndSplineSet
Validated: 33
EndChar

StartChar: Gdotaccent.ss06
Encoding: 65557 -1 152
Width: 741
GlyphClass: 2
Flags: HMW
HStem: -16 142<329 428.5 329 483> 252 121<385 532 385 705> 584 142<330 429.5> 770 128<298 475 298 475>
VStem: 41 179<286.5 421 286.5 460.5> 298 177<770 898 770 898> 385 320<252 331 331 373 214 373> 532 173<252 252>
AnchorPoint: "Anchor-3" 434.432 710 basechar 0
AnchorPoint: "Anchor-0" 311.24 0 basechar 0
LayerCount: 2
Fore
SplineSet
356.01171875 770 m 1xfd
 378.581054688 898 l 1
 555.581054688 898 l 1
 533.01171875 770 l 1
 356.01171875 770 l 1xfd
306.418945312 -16 m 0
 75.4189453125 -16 -11.7216796875 142 25.6591796875 354 c 0
 63.216796875 567 216.252929688 726 441.252929688 726 c 0
 617.252929688 726 707.501953125 631 708.465820312 472 c 1
 527.055664062 464 l 1
 527.280273438 539 497.21484375 584 412.21484375 584 c 0
 298.21484375 584 228.287109375 488 204.659179688 354 c 0
 180.85546875 219 219.45703125 126 327.45703125 126 c 0
 418.45703125 126 477.920898438 174 498.673828125 252 c 1xfd
 351.673828125 252 l 1
 373.009765625 373 l 1xfa
 693.009765625 373 l 1
 685.604492188 331 l 2
 644.34375 97 498.418945312 -16 306.418945312 -16 c 0
EndSplineSet
Validated: 33
Substitution2: "'ss08' Style Set 8 in Latin lookup 41 subtable" Gdotaccent.ss06.ss08
Substitution2: "'aalt' Access All Alternates in Latin lookup 0 subtable" Gdotaccent.ss06.ss08
EndChar

StartChar: uni1E20.ss06
Encoding: 65558 -1 153
Width: 741
GlyphClass: 2
Flags: HMW
HStem: -16 142<329 428.5 329 483> 252 121<385 532 385 705> 584 142<330 429.5> 773 122<232 541 232 541>
VStem: 41 179<286.5 421 286.5 460.5> 232 309<773 895 773 895> 385 320<252 331 331 373 214 373> 532 173<252 252>
AnchorPoint: "Anchor-3" 434.696 710 basechar 0
AnchorPoint: "Anchor-0" 311.504 0 basechar 0
LayerCount: 2
Fore
SplineSet
290.8046875 773 m 1xf4
 312.317382812 895 l 1
 621.317382812 895 l 1
 599.8046875 773 l 1
 290.8046875 773 l 1xf4
306.682617188 -16 m 0
 75.6826171875 -16 -11.45703125 142 25.923828125 354 c 0
 63.4814453125 567 216.517578125 726 441.517578125 726 c 0
 617.517578125 726 707.766601562 631 708.73046875 472 c 1
 527.3203125 464 l 1
 527.544921875 539 497.479492188 584 412.479492188 584 c 0
 298.479492188 584 228.551757812 488 204.923828125 354 c 0
 181.120117188 219 219.721679688 126 327.721679688 126 c 0
 418.721679688 126 478.185546875 174 498.938476562 252 c 1xf9
 351.938476562 252 l 1
 373.274414062 373 l 1xfa
 693.274414062 373 l 1
 685.868164062 331 l 2xf9
 644.608398438 97 498.682617188 -16 306.682617188 -16 c 0
EndSplineSet
Validated: 33
EndChar

StartChar: Adieresis.ss08
Encoding: 65559 -1 154
Width: 750
GlyphClass: 2
Flags: HMW
HStem: 0 21G<18 18 18 196 553 553 553 732> 134 138<290 460 290 507 243 460> 690 20G<274 476 476 476> 756 158<240.5 291 460.5 511>
VStem: 184 163<810.5 859.5> 404 163<810.5 859.5>
AnchorPoint: "Anchor-3" 420.61 710 basechar 0
AnchorPoint: "Anchor-2" 651.419 0 basechar 0
AnchorPoint: "Anchor-0" 295.419 0 basechar 0
LayerCount: 2
Fore
SplineSet
318.721679688 756 m 0
 267.721679688 756 242.01171875 786 250.651367188 835 c 0
 259.291992188 884 295.581054688 914 346.581054688 914 c 0
 396.581054688 914 422.291992188 884 413.651367188 835 c 0
 405.01171875 786 368.721679688 756 318.721679688 756 c 0
538.721679688 756 m 0
 487.721679688 756 462.01171875 786 470.651367188 835 c 0
 479.291992188 884 515.581054688 914 566.581054688 914 c 0
 616.581054688 914 642.291992188 884 633.651367188 835 c 0
 625.01171875 786 588.721679688 756 538.721679688 756 c 0
-62.5810546875 0 m 1
 318.610351562 710 l 1
 520.610351562 710 l 1
 651.418945312 0 l 1
 472.418945312 0 l 1
 450.045898438 134 l 1
 186.045898438 134 l 1
 115.418945312 0 l 1
 -62.5810546875 0 l 1
257.379882812 272 m 1
 427.379882812 272 l 1
 387.4609375 522 l 1
 257.379882812 272 l 1
EndSplineSet
Validated: 33
EndChar

StartChar: Cdotaccent.ss08
Encoding: 65560 -1 155
Width: 745
GlyphClass: 2
Flags: HMW
HStem: -16 142<331 424 331 473.5> 584 142<329.5 421> 756 158<357 407.5>
VStem: 41 179<284 422.5 284 466.5> 297 170<810.5 859.5>
AnchorPoint: "Anchor-3" 428.021 710 basechar 0
AnchorPoint: "Anchor-0" 303.829 0 basechar 0
LayerCount: 2
Fore
SplineSet
436.1328125 756 m 0
 386.1328125 756 356.421875 786 365.0625 835 c 0
 373.702148438 884 413.9921875 914 463.9921875 914 c 0
 514.9921875 914 543.702148438 884 535.0625 835 c 0
 526.421875 786 487.1328125 756 436.1328125 756 c 0
297.0078125 -16 m 0
 101.0078125 -16 -16.8349609375 121 24.2490234375 354 c 0
 63.9228515625 579 221.842773438 726 430.842773438 726 c 0
 621.842773438 726 707.915039062 630 708.057617188 455 c 1
 525.823242188 448 l 1
 525.811523438 533 483.803710938 584 405.803710938 584 c 0xd8
 300.803710938 584 227.405273438 491 203.249023438 354 c 0
 178.563476562 214 224.045898438 126 324.045898438 126 c 0
 410.045898438 126 466.391601562 179 495.614257812 271 c 1
 676.379882812 264 l 1
 614.817382812 85 486.0078125 -16 297.0078125 -16 c 0
EndSplineSet
Validated: 33
EndChar

StartChar: Edieresis.ss08
Encoding: 65561 -1 156
Width: 628
GlyphClass: 2
Flags: HMW
HStem: 0 142<242 586 242 586> 285 142<242 566 242 566> 568 142<242 578 242 242> 756 158<188 238.5 408 458.5>
VStem: 68 174<142 285 427 568> 132 163<810.5 859.5> 352 163<810.5 859.5>
AnchorPoint: "Anchor-3" 367.61 710 basechar 0
AnchorPoint: "Anchor-2" 505.419 0 basechar 0
AnchorPoint: "Anchor-0" 243.419 0 basechar 0
LayerCount: 2
Fore
SplineSet
265.721679688 756 m 0xf6
 215.721679688 756 190.01171875 786 198.651367188 835 c 0
 207.291992188 884 243.581054688 914 293.581054688 914 c 0
 344.581054688 914 370.291992188 884 361.651367188 835 c 0
 353.01171875 786 316.721679688 756 265.721679688 756 c 0xf6
485.721679688 756 m 0
 435.721679688 756 410.01171875 786 418.651367188 835 c 0
 427.291992188 884 463.581054688 914 513.581054688 914 c 0
 564.581054688 914 590.291992188 884 581.651367188 835 c 0
 573.01171875 786 536.721679688 756 485.721679688 756 c 0
-12.5810546875 0 m 1xe8
 112.610351562 710 l 1
 622.610351562 710 l 1
 597.572265625 568 l 1
 261.572265625 568 l 1
 236.709960938 427 l 1
 560.709960938 427 l 1
 535.671875 285 l 1
 211.671875 285 l 1
 186.45703125 142 l 1
 530.45703125 142 l 1
 505.418945312 0 l 1
 -12.5810546875 0 l 1xe8
EndSplineSet
Validated: 33
EndChar

StartChar: Edotaccent.ss08
Encoding: 65562 -1 157
Width: 628
GlyphClass: 2
Flags: HMW
HStem: 0 142<242 586 242 586> 285 142<242 566 242 566> 568 142<242 578 242 242> 756 158<298.5 349>
VStem: 68 174<142 285 427 568> 239 169<810.5 859.5>
AnchorPoint: "Anchor-3" 367.61 710 basechar 0
AnchorPoint: "Anchor-2" 505.419 0 basechar 0
AnchorPoint: "Anchor-0" 243.419 0 basechar 0
LayerCount: 2
Fore
SplineSet
376.721679688 756 m 0xf4
 325.721679688 756 297.01171875 786 305.651367188 835 c 0
 314.291992188 884 353.581054688 914 404.581054688 914 c 0
 454.581054688 914 483.291992188 884 474.651367188 835 c 0
 466.01171875 786 426.721679688 756 376.721679688 756 c 0xf4
-12.5810546875 0 m 1xe8
 112.610351562 710 l 1
 622.610351562 710 l 1
 597.572265625 568 l 1
 261.572265625 568 l 1
 236.709960938 427 l 1
 560.709960938 427 l 1
 535.671875 285 l 1
 211.671875 285 l 1
 186.45703125 142 l 1
 530.45703125 142 l 1
 505.418945312 0 l 1
 -12.5810546875 0 l 1xe8
EndSplineSet
Validated: 33
EndChar

StartChar: Gdotaccent.ss08
Encoding: 65563 -1 158
Width: 751
GlyphClass: 2
Flags: HMW
HStem: -16 142<330.5 423> 0 21G<601 705 601 601> 252 121<385 532 385 705> 584 142<331 427.5> 756 158<360.5 411>
VStem: 41 179<286.5 421 286.5 461> 301 170<810.5 859.5> 598 107
AnchorPoint: "Anchor-3" 432.021 710 basechar 0
AnchorPoint: "Anchor-0" 309.829 0 basechar 0
LayerCount: 2
Fore
SplineSet
440.1328125 756 m 0xaf
 389.1328125 756 360.421875 786 369.0625 835 c 0
 377.702148438 884 416.9921875 914 467.9921875 914 c 0
 517.9921875 914 547.702148438 884 539.0625 835 c 0
 530.421875 786 490.1328125 756 440.1328125 756 c 0xaf
290.0078125 -16 m 0
 84.0078125 -16 -14.54296875 134 24.2490234375 354 c 0
 61.9833984375 568 216.842773438 726 432.842773438 726 c 0
 621.842773438 726 701.915039062 630 707.055664062 472 c 1
 525.64453125 464 l 1
 525.869140625 539 492.803710938 584 409.803710938 584 c 0
 299.803710938 584 226.876953125 488 203.249023438 354 c 0
 179.444335938 219 215.045898438 126 332.045898438 126 c 0xb5
 415.045898438 126 475.862304688 176 497.263671875 252 c 1
 350.263671875 252 l 1
 371.599609375 373 l 1
 691.599609375 373 l 1
 625.829101562 0 l 1
 521.829101562 0 l 1x75
 532.756835938 96 l 1
 483.58984375 27 392.0078125 -16 290.0078125 -16 c 0
EndSplineSet
Validated: 33
EndChar

StartChar: Idieresis.ss08
Encoding: 65564 -1 159
Width: 310
GlyphClass: 2
Flags: HMW
HStem: 0 21G<68 68 68 242> 690 20G<68 242 242 242> 756 158<20 70 240 290>
VStem: -37 164<810.5 859.5> 68 59 68 174<0 710 0 710> 183 59 183 164<810.5 859.5>
AnchorPoint: "Anchor-3" 199.61 710 basechar 0
AnchorPoint: "Anchor-2" 161.419 0 basechar 0
AnchorPoint: "Anchor-0" 74.4189 0 basechar 0
LayerCount: 2
Fore
SplineSet
97.7216796875 756 m 0xe8
 47.7216796875 756 21.01171875 786 29.6513671875 835 c 0xf1
 38.2919921875 884 75.5810546875 914 125.581054688 914 c 0
 175.581054688 914 202.291992188 884 193.651367188 835 c 0
 185.01171875 786 147.721679688 756 97.7216796875 756 c 0xe8
317.721679688 756 m 0
 267.721679688 756 241.01171875 786 249.651367188 835 c 0xe2
 258.291992188 884 295.581054688 914 345.581054688 914 c 0
 395.581054688 914 422.291992188 884 413.651367188 835 c 0
 405.01171875 786 367.721679688 756 317.721679688 756 c 0
-12.5810546875 0 m 1xe4
 112.610351562 710 l 1
 286.610351562 710 l 1
 161.418945312 0 l 1
 -12.5810546875 0 l 1xe4
EndSplineSet
Validated: 33
EndChar

StartChar: Idotaccent.ss08
Encoding: 65565 -1 160
Width: 310
GlyphClass: 2
Flags: HMW
HStem: 0 21G<68 68 68 242> 690 20G<68 242 242 242> 756 158<130 180.5>
VStem: 68 174<0 710 0 710> 70 170<810.5 859.5>
AnchorPoint: "Anchor-3" 199.61 710 basechar 0
AnchorPoint: "Anchor-2" 161.419 0 basechar 0
AnchorPoint: "Anchor-0" 74.4189 0 basechar 0
LayerCount: 2
Fore
SplineSet
207.721679688 756 m 0xe8
 157.721679688 756 128.01171875 786 136.651367188 835 c 0
 145.291992188 884 185.581054688 914 235.581054688 914 c 0
 286.581054688 914 315.291992188 884 306.651367188 835 c 0
 298.01171875 786 258.721679688 756 207.721679688 756 c 0xe8
-12.5810546875 0 m 1xf0
 112.610351562 710 l 1
 286.610351562 710 l 1
 161.418945312 0 l 1
 -12.5810546875 0 l 1xf0
EndSplineSet
Validated: 33
EndChar

StartChar: Odieresis.ss08
Encoding: 65566 -1 161
Width: 788
GlyphClass: 2
Flags: HMW
HStem: -16 142<339.5 448.5 339.5 504> 584 142<339.5 448.5> 756 158<258.5 309 478.5 529>
VStem: 41 179<281.5 426.5 281.5 468> 202 163<810.5 859.5> 422 163<810.5 859.5> 568 179<281.5 426.5>
AnchorPoint: "Anchor-3" 440.021 710 basechar 0
AnchorPoint: "Anchor-1" 377.425 355 basechar 0
AnchorPoint: "Anchor-0" 314.829 0 basechar 0
LayerCount: 2
Fore
SplineSet
338.1328125 756 m 0xac
 287.1328125 756 261.421875 786 270.0625 835 c 0
 278.702148438 884 314.9921875 914 365.9921875 914 c 0
 415.9921875 914 441.702148438 884 433.0625 835 c 0
 424.421875 786 388.1328125 756 338.1328125 756 c 0xac
558.1328125 756 m 0
 507.1328125 756 481.421875 786 490.0625 835 c 0
 498.702148438 884 534.9921875 914 585.9921875 914 c 0
 635.9921875 914 661.702148438 884 653.0625 835 c 0
 644.421875 786 608.1328125 756 558.1328125 756 c 0
312.0078125 -16 m 0
 91.0078125 -16 -15.9541015625 126 24.2490234375 354 c 0
 64.451171875 582 221.842773438 726 442.842773438 726 c 0
 662.842773438 726 770.451171875 582 730.249023438 354 c 0xd2
 690.045898438 126 532.0078125 -16 312.0078125 -16 c 0
337.045898438 126 m 0
 446.045898438 126 525.681640625 209 551.249023438 354 c 0
 576.81640625 499 526.803710938 584 417.803710938 584 c 0
 308.803710938 584 228.81640625 499 203.249023438 354 c 0
 177.681640625 209 228.045898438 126 337.045898438 126 c 0
EndSplineSet
Validated: 33
EndChar

StartChar: Udieresis.ss08
Encoding: 65567 -1 162
Width: 708
GlyphClass: 2
Flags: HMW
HStem: -16 142<313 395 313 446.5> 691 20G<53 227 227 227 481 655 655 655> 756 158<218.5 269 438.5 489>
VStem: 53 174<259 711> 162 65 162 163<810.5 859.5> 382 163<810.5 859.5> 481 174<259 711>
AnchorPoint: "Anchor-3" 400.021 710 basechar 0
AnchorPoint: "Anchor-2" 391.006 1 basechar 0
AnchorPoint: "Anchor-0" 274.829 0 basechar 0
LayerCount: 2
Fore
SplineSet
298.1328125 756 m 0xe5
 247.1328125 756 221.421875 786 230.0625 835 c 0xea
 238.702148438 884 274.9921875 914 325.9921875 914 c 0
 375.9921875 914 401.702148438 884 393.0625 835 c 0
 384.421875 786 348.1328125 756 298.1328125 756 c 0xe5
518.1328125 756 m 0
 467.1328125 756 441.421875 786 450.0625 835 c 0
 458.702148438 884 494.9921875 914 545.9921875 914 c 0
 595.9921875 914 621.702148438 884 613.0625 835 c 0
 604.421875 786 568.1328125 756 518.1328125 756 c 0
272.0078125 -16 m 0
 88.0078125 -16 -10.125 91 19.498046875 259 c 2
 99.197265625 711 l 1
 273.197265625 711 l 1
 193.498046875 259 l 2
 178.509765625 174 215.045898438 126 297.045898438 126 c 0
 379.045898438 126 432.509765625 174 447.498046875 259 c 2
 527.197265625 711 l 1
 701.197265625 711 l 1
 621.498046875 259 l 2xf1
 591.875 91 457.0078125 -16 272.0078125 -16 c 0
EndSplineSet
Validated: 33
EndChar

StartChar: Wdieresis.ss08
Encoding: 65568 -1 163
Width: 1038
GlyphClass: 2
Flags: HMW
HStem: 0 21G<230 230 230 411 627 627 627 809> 690 20G<36 217 217 217 447 591 591 591 821 1001 1001 1001> 756 158<384 434.5 604 654.5>
VStem: 328 163<810.5 859.5> 548 163<810.5 859.5>
AnchorPoint: "Anchor-3" 563.61 710 basechar 0
AnchorPoint: "Anchor-0" 438.419 0 basechar 0
LayerCount: 2
Fore
SplineSet
461.721679688 756 m 0
 411.721679688 756 386.01171875 786 394.651367188 835 c 0
 403.291992188 884 439.581054688 914 489.581054688 914 c 0
 540.581054688 914 566.291992188 884 557.651367188 835 c 0
 549.01171875 786 512.721679688 756 461.721679688 756 c 0
681.721679688 756 m 0
 631.721679688 756 606.01171875 786 614.651367188 835 c 0
 623.291992188 884 659.581054688 914 709.581054688 914 c 0
 760.581054688 914 786.291992188 884 777.651367188 835 c 0
 769.01171875 786 732.721679688 756 681.721679688 756 c 0
149.418945312 0 m 1
 80.6103515625 710 l 1
 261.610351562 710 l 1
 292.913085938 241 l 1
 491.610351562 710 l 1
 635.610351562 710 l 1
 669.913085938 241 l 1
 865.610351562 710 l 1
 1045.61035156 710 l 1
 728.418945312 0 l 1
 546.418945312 0 l 1
 512.828125 422 l 1
 330.418945312 0 l 1
 149.418945312 0 l 1
EndSplineSet
Validated: 33
EndChar

StartChar: Ydieresis.ss08
Encoding: 65569 -1 164
Width: 650
GlyphClass: 2
Flags: HMW
HStem: 0 21G<238 238 238 413> 690 20G<-8 182 182 182 467 657 657 657> 756 158<190.5 241 410.5 461>
VStem: 134 163<810.5 859.5> 238 175<0 271 0 271> 354 163<810.5 859.5>
AnchorPoint: "Anchor-3" 370.61 710 basechar 0
AnchorPoint: "Anchor-0" 245.419 0 basechar 0
LayerCount: 2
Fore
SplineSet
268.721679688 756 m 0xf4
 217.721679688 756 192.01171875 786 200.651367188 835 c 0
 209.291992188 884 245.581054688 914 296.581054688 914 c 0
 346.581054688 914 372.291992188 884 363.651367188 835 c 0
 355.01171875 786 318.721679688 756 268.721679688 756 c 0xf4
488.721679688 756 m 0
 437.721679688 756 412.01171875 786 420.651367188 835 c 0
 429.291992188 884 465.581054688 914 516.581054688 914 c 0
 566.581054688 914 592.291992188 884 583.651367188 835 c 0
 575.01171875 786 538.721679688 756 488.721679688 756 c 0
157.418945312 0 m 1xe8
 205.203125 271 l 1
 36.6103515625 710 l 1
 226.610351562 710 l 1
 322.826171875 439 l 1
 511.610351562 710 l 1
 701.610351562 710 l 1
 380.203125 271 l 1
 332.418945312 0 l 1
 157.418945312 0 l 1xe8
EndSplineSet
Validated: 33
EndChar

StartChar: Zdotaccent.ss08
Encoding: 65570 -1 165
Width: 610
GlyphClass: 2
Flags: HMW
HStem: 0 142<237 584 237 584> 568 142<43 351 43 570> 756 158<289.5 340>
VStem: 230 169<810.5 859.5>
AnchorPoint: "Anchor-3" 358.61 710 basechar 0
AnchorPoint: "Anchor-0" 233.419 0 basechar 0
LayerCount: 2
Fore
SplineSet
367.721679688 756 m 0
 316.721679688 756 288.01171875 786 296.651367188 835 c 0
 305.291992188 884 344.581054688 914 395.581054688 914 c 0
 445.581054688 914 474.291992188 884 465.651367188 835 c 0
 457.01171875 786 417.721679688 756 367.721679688 756 c 0
-54.5810546875 0 m 1
 -30.6005859375 136 l 1
 370.572265625 568 l 1
 62.572265625 568 l 1
 87.6103515625 710 l 1
 614.610351562 710 l 1
 590.629882812 574 l 1
 181.45703125 142 l 1
 528.45703125 142 l 1
 503.418945312 0 l 1
 -54.5810546875 0 l 1
EndSplineSet
Validated: 33
EndChar

StartChar: Idieresis.ss05.ss08
Encoding: 65571 -1 166
Width: 488
GlyphClass: 2
Flags: HMW
HStem: 0 142<41 156 41 156 331 447> 568 142<47 156 47 441 331 331 331 441> 756 158<108 158.5 328 378.5>
VStem: 52 163<810.5 859.5> 156 175<142 568 142 568> 272 163<810.5 859.5>
AnchorPoint: "Anchor-3" 287.61 710 basechar 0
AnchorPoint: "Anchor-2" 366.419 0 basechar 0
AnchorPoint: "Anchor-0" 162.419 0 basechar 0
LayerCount: 2
Fore
SplineSet
185.721679688 756 m 0xf4
 135.721679688 756 110.01171875 786 118.651367188 835 c 0
 127.291992188 884 163.581054688 914 213.581054688 914 c 0
 264.581054688 914 290.291992188 884 281.651367188 835 c 0
 273.01171875 786 236.721679688 756 185.721679688 756 c 0xf4
405.721679688 756 m 0
 355.721679688 756 330.01171875 786 338.651367188 835 c 0
 347.291992188 884 383.581054688 914 433.581054688 914 c 0
 484.581054688 914 510.291992188 884 501.651367188 835 c 0
 493.01171875 786 456.721679688 756 405.721679688 756 c 0
-39.5810546875 0 m 1
 -14.54296875 142 l 1
 100.45703125 142 l 1
 175.572265625 568 l 1
 66.572265625 568 l 1
 91.6103515625 710 l 1
 485.610351562 710 l 1
 460.572265625 568 l 1
 350.572265625 568 l 1
 275.45703125 142 l 1xc8
 391.45703125 142 l 1
 366.418945312 0 l 1
 -39.5810546875 0 l 1
EndSplineSet
Validated: 33
EndChar

StartChar: Idotaccent.ss05.ss08
Encoding: 65572 -1 167
Width: 488
GlyphClass: 2
Flags: HMW
HStem: 0 142<41 156 41 156 331 447> 568 142<47 156 47 441 331 331 331 441> 756 158<218.5 269>
VStem: 156 175<142 568 142 568> 159 169<810.5 859.5>
AnchorPoint: "Anchor-3" 287.61 710 basechar 0
AnchorPoint: "Anchor-2" 366.419 0 basechar 0
AnchorPoint: "Anchor-0" 162.419 0 basechar 0
LayerCount: 2
Fore
SplineSet
296.721679688 756 m 0xe8
 245.721679688 756 217.01171875 786 225.651367188 835 c 0
 234.291992188 884 273.581054688 914 324.581054688 914 c 0
 374.581054688 914 403.291992188 884 394.651367188 835 c 0
 386.01171875 786 346.721679688 756 296.721679688 756 c 0xe8
-39.5810546875 0 m 1
 -14.54296875 142 l 1
 100.45703125 142 l 1
 175.572265625 568 l 1
 66.572265625 568 l 1
 91.6103515625 710 l 1
 485.610351562 710 l 1
 460.572265625 568 l 1
 350.572265625 568 l 1
 275.45703125 142 l 1xd0
 391.45703125 142 l 1
 366.418945312 0 l 1
 -39.5810546875 0 l 1
EndSplineSet
Validated: 33
EndChar

StartChar: Gdotaccent.ss06.ss08
Encoding: 65573 -1 168
Width: 741
GlyphClass: 2
Flags: HMW
HStem: -16 142<329 428.5 329 483> 252 121<385 532 385 705> 584 142<330 429.5> 756 158<361.5 412>
VStem: 41 179<286.5 421 286.5 460.5> 302 170<810.5 859.5> 385 320<252 331 331 373 214 373> 532 173<252 252>
AnchorPoint: "Anchor-3" 433.021 710 basechar 0
AnchorPoint: "Anchor-0" 309.829 0 basechar 0
LayerCount: 2
Fore
SplineSet
441.1328125 756 m 0xdd
 390.1328125 756 361.421875 786 370.0625 835 c 0
 378.702148438 884 417.9921875 914 468.9921875 914 c 0
 518.9921875 914 548.702148438 884 540.0625 835 c 0
 531.421875 786 491.1328125 756 441.1328125 756 c 0xdd
305.0078125 -16 m 0
 74.0078125 -16 -13.1328125 142 24.2490234375 354 c 0
 61.806640625 567 214.842773438 726 439.842773438 726 c 0
 615.842773438 726 706.091796875 631 707.055664062 472 c 1
 525.64453125 464 l 1
 525.869140625 539 495.803710938 584 410.803710938 584 c 0
 296.803710938 584 226.876953125 488 203.249023438 354 c 0
 179.444335938 219 218.045898438 126 326.045898438 126 c 0
 417.045898438 126 476.509765625 174 497.263671875 252 c 1xe9
 350.263671875 252 l 1
 371.599609375 373 l 1xea
 691.599609375 373 l 1
 684.193359375 331 l 2
 642.932617188 97 497.0078125 -16 305.0078125 -16 c 0
EndSplineSet
Validated: 33
EndChar

StartChar: A_I.dlig
Encoding: 65574 -1 169
Width: 1238
GlyphClass: 3
Flags: HMW
HStem: 0 142<553 907 791 907 1082 1197 791 907> 134 138<290 460 290 507 243 460> 568 142<797 907 1082 1082 1082 1191>
VStem: 907 175<142 568 142 568>
AnchorPoint: "Anchor-8" 438.596 710 baselig 0
AnchorPoint: "Anchor-7" 669.404 0 baselig 0
AnchorPoint: "Anchor-5" 313.404 0 baselig 0
AnchorPoint: "Anchor-8" 1056.6 710 baselig 1
AnchorPoint: "Anchor-5" 931.404 0 baselig 1
AnchorPoint: "Anchor-7" 1134.4 0 baselig 1
LayerCount: 2
Fore
SplineSet
-44.595703125 0 m 1xb0
 336.595703125 710 l 1
 538.595703125 710 l 1
 669.404296875 0 l 1
 490.404296875 0 l 1xb0
 468.03125 134 l 1
 204.03125 134 l 1x70
 133.404296875 0 l 1
 -44.595703125 0 l 1xb0
728.404296875 0 m 1
 753.442382812 142 l 1
 869.442382812 142 l 1
 944.557617188 568 l 1
 834.557617188 568 l 1
 859.595703125 710 l 1
 1253.59570312 710 l 1
 1228.55761719 568 l 1
 1119.55761719 568 l 1
 1044.44238281 142 l 1
 1159.44238281 142 l 1
 1134.40429688 0 l 1
 728.404296875 0 l 1
275.365234375 272 m 1x70
 445.365234375 272 l 1
 405.446289062 522 l 1
 275.365234375 272 l 1x70
EndSplineSet
Validated: 1
Ligature2: "'dlig' Discretionary Ligatures in Latin lookup 32 subtable" A I
EndChar

StartChar: U_I.dlig
Encoding: 65575 -1 170
Width: 1196
GlyphClass: 3
Flags: HMW
HStem: -16 142<313 395 313 446.5> 0 142<749 865 749 865 1039 1155> 568 142<755 865 755 1149 1039 1039 1039 1149>
VStem: 53 174<259 711> 481 174<259 711> 865 174<142 568 142 568>
AnchorPoint: "Anchor-8" 417.919 710 baselig 0
AnchorPoint: "Anchor-7" 408.902 1 baselig 0
AnchorPoint: "Anchor-5" 292.727 0 baselig 0
AnchorPoint: "Anchor-8" 1015.92 710 baselig 1
AnchorPoint: "Anchor-5" 890.727 0 baselig 1
AnchorPoint: "Anchor-7" 1093.73 0 baselig 1
LayerCount: 2
Fore
SplineSet
289.905273438 -16 m 0xbc
 105.905273438 -16 7.7724609375 91 37.3955078125 259 c 2
 117.094726562 711 l 1
 291.094726562 711 l 1
 211.395507812 259 l 2
 196.407226562 174 232.943359375 126 314.943359375 126 c 0
 396.943359375 126 450.407226562 174 465.395507812 259 c 2
 545.094726562 711 l 1
 719.094726562 711 l 1
 639.395507812 259 l 2
 609.772460938 91 474.905273438 -16 289.905273438 -16 c 0xbc
687.7265625 0 m 1x7c
 712.764648438 142 l 1
 828.764648438 142 l 1
 903.879882812 568 l 1
 793.879882812 568 l 1
 818.918945312 710 l 1
 1212.91894531 710 l 1
 1187.87988281 568 l 1
 1077.87988281 568 l 1
 1002.76464844 142 l 1
 1118.76464844 142 l 1
 1093.7265625 0 l 1
 687.7265625 0 l 1x7c
EndSplineSet
Validated: 33
Ligature2: "'dlig' Discretionary Ligatures in Latin lookup 32 subtable" U I
EndChar

StartChar: a
Encoding: 97 97 171
Width: 609
GlyphClass: 2
Flags: HMW
HStem: -12 112<251 274.5> -7 21G<510.5 548> -7 119<510.5 598> 432 118<276.5 327.5>
VStem: 34 177<135 166.5 135 182.5> 381 172<213 235 235 235>
AnchorPoint: "Anchor-3" 350.432 538 basechar 0
AnchorPoint: "Anchor-2" 550.568 0 basechar 0
AnchorPoint: "Anchor-0" 253.568 0 basechar 0
LayerCount: 2
Fore
SplineSet
176.452148438 -12 m 0x94
 63.4521484375 -12 -6.0263671875 42 10.3720703125 135 c 0
 27.123046875 230 98.5869140625 278 219.818359375 302 c 2
 392.813476562 336 l 1
 403.922851562 399 381.741210938 432 330.741210938 432 c 0
 279.741210938 432 247.333007812 407 231.221679688 361 c 1
 60.2802734375 367 l 1
 103.14453125 491 205.547851562 550 351.547851562 550 c 0
 519.547851562 550 588.970703125 473 562.521484375 323 c 2
 532.545898438 153 l 2
 526.727539062 120 537.31640625 112 557.31640625 112 c 2
 570.31640625 112 l 1x3c
 550.568359375 0 l 1
 539.0390625 -3 510.333984375 -7 488.333984375 -7 c 0x54
 435.333984375 -7 382.5078125 11 381.026367188 82 c 1
 342.799804688 24 273.452148438 -12 176.452148438 -12 c 0x94
241.201171875 100 m 0
 305.201171875 100 358.25390625 140 371.125976562 213 c 2
 375.004882812 235 l 1
 266.7734375 211 l 2
 223.186523438 202 195.659179688 182 190.193359375 151 c 0x9c
 184.55078125 119 201.201171875 100 241.201171875 100 c 0
EndSplineSet
Validated: 33
Substitution2: "'ss02' Style Set 2 in Latin lookup 35 subtable" a.ss02
Substitution2: "'ss01' Style Set 1 in Latin lookup 34 subtable" a.ss01
Substitution2: "Single Substitution lookup 27 subtable" ordfeminine
AlternateSubs2: "'aalt' Access All Alternates in Latin lookup 1 subtable" ordfeminine a.ss01 a.ss02
EndChar

StartChar: aacute
Encoding: 225 225 172
Width: 609
GlyphClass: 2
Flags: HMW
HStem: -12 112<251 274.5> -7 21G<510.5 548> -7 119<510.5 598> 432 118<276.5 327.5> 589 154<224 443 281 353>
VStem: 34 177<135 166.5 135 182.5> 381 172<213 235 235 235>
AnchorPoint: "Anchor-3" 333.416 538 basechar 0
AnchorPoint: "Anchor-2" 533.553 0 basechar 0
AnchorPoint: "Anchor-0" 236.553 0 basechar 0
LayerCount: 2
Fore
SplineSet
263.409179688 589 m 1x9a
 347.563476562 743 l 1
 509.563476562 743 l 1
 392.409179688 589 l 1
 263.409179688 589 l 1x9a
159.436523438 -12 m 0
 46.4365234375 -12 -23.0419921875 42 -6.6435546875 135 c 0
 10.107421875 230 81.5712890625 278 202.803710938 302 c 2
 375.798828125 336 l 1
 386.907226562 399 364.725585938 432 313.725585938 432 c 0
 262.725585938 432 230.317382812 407 214.206054688 361 c 1
 43.2646484375 367 l 1
 86.12890625 491 188.532226562 550 334.532226562 550 c 0
 502.532226562 550 571.955078125 473 545.505859375 323 c 2
 515.530273438 153 l 2
 509.711914062 120 520.30078125 112 540.30078125 112 c 2
 553.30078125 112 l 1x3e
 533.552734375 0 l 1
 522.0234375 -3 493.318359375 -7 471.318359375 -7 c 0x5a
 418.318359375 -7 365.4921875 11 364.01171875 82 c 1
 325.784179688 24 256.436523438 -12 159.436523438 -12 c 0
224.185546875 100 m 0
 288.185546875 100 341.23828125 140 354.110351562 213 c 2
 357.989257812 235 l 1
 249.7578125 211 l 2
 206.170898438 202 178.643554688 182 173.177734375 151 c 0x9e
 167.53515625 119 184.185546875 100 224.185546875 100 c 0
EndSplineSet
Validated: 33
Substitution2: "'ss02' Style Set 2 in Latin lookup 35 subtable" aacute.ss02
Substitution2: "'ss01' Style Set 1 in Latin lookup 34 subtable" aacute.ss01
AlternateSubs2: "'aalt' Access All Alternates in Latin lookup 1 subtable" aacute.ss01 aacute.ss02
EndChar

StartChar: abreve
Encoding: 259 259 173
Width: 609
GlyphClass: 2
Flags: HMW
HStem: -12 112<251 274.5> -7 21G<510.5 548> -7 119<510.5 598> 432 118<276.5 327.5> 588 89<284 322 284 351> 588 153<140 351>
VStem: 34 177<135 166.5 135 182.5> 381 172<213 235 235 235>
AnchorPoint: "Anchor-3" 333.593 538 basechar 0
AnchorPoint: "Anchor-2" 533.729 0 basechar 0
AnchorPoint: "Anchor-0" 236.729 0 basechar 0
LayerCount: 2
Fore
SplineSet
342.409179688 588 m 0x95
 245.409179688 588 193.107421875 643 206.38671875 741 c 1x95
 303.38671875 741 l 1
 299.276367188 695 320.102539062 677 358.102539062 677 c 0x9b
 396.102539062 677 422.276367188 695 435.38671875 741 c 1
 531.38671875 741 l 1
 510.107421875 643 438.409179688 588 342.409179688 588 c 0x95
159.61328125 -12 m 0
 46.61328125 -12 -22.865234375 42 -6.466796875 135 c 0
 10.2841796875 230 81.748046875 278 202.979492188 302 c 2
 375.974609375 336 l 1
 387.083007812 399 364.90234375 432 313.90234375 432 c 0
 262.90234375 432 230.494140625 407 214.3828125 361 c 1
 43.4404296875 367 l 1
 86.3056640625 491 188.708984375 550 334.708984375 550 c 0
 502.708984375 550 572.131835938 473 545.682617188 323 c 2
 515.70703125 153 l 2
 509.887695312 120 520.477539062 112 540.477539062 112 c 2
 553.477539062 112 l 1x3b
 533.728515625 0 l 1
 522.200195312 -3 493.494140625 -7 471.494140625 -7 c 0x59
 418.494140625 -7 365.66796875 11 364.1875 82 c 1
 325.9609375 24 256.61328125 -12 159.61328125 -12 c 0
224.361328125 100 m 0
 288.361328125 100 341.415039062 140 354.286132812 213 c 2
 358.166015625 235 l 1
 249.93359375 211 l 2
 206.346679688 202 178.8203125 182 173.354492188 151 c 0x9b
 167.711914062 119 184.361328125 100 224.361328125 100 c 0
EndSplineSet
Validated: 33
Substitution2: "'ss02' Style Set 2 in Latin lookup 35 subtable" abreve.ss02
Substitution2: "'ss01' Style Set 1 in Latin lookup 34 subtable" abreve.ss01
AlternateSubs2: "'aalt' Access All Alternates in Latin lookup 1 subtable" abreve.ss01 abreve.ss02
EndChar

StartChar: uni01CE
Encoding: 462 462 174
Width: 609
GlyphClass: 2
Flags: HMW
HStem: -12 112<251 274.5> -7 21G<510.5 548> -7 119<510.5 598> 432 118<276.5 327.5> 589 160<222 241 365 383 222 222>
VStem: 34 177<135 166.5 135 182.5> 381 172<213 235 235 235>
AnchorPoint: "Anchor-3" 332.888 538 basechar 0
AnchorPoint: "Anchor-2" 533.023 0 basechar 0
AnchorPoint: "Anchor-0" 236.023 0 basechar 0
LayerCount: 2
Fore
SplineSet
191.092773438 749 m 1x9a
 308.092773438 749 l 1
 354.399414062 660 l 1
 432.092773438 749 l 1
 548.092773438 749 l 1
 421.879882812 589 l 1
 260.879882812 589 l 1
 191.092773438 749 l 1x9a
158.907226562 -12 m 0
 45.9072265625 -12 -23.5703125 42 -7.171875 135 c 0
 9.5791015625 230 81.0419921875 278 202.274414062 302 c 2
 375.26953125 336 l 1
 386.377929688 399 364.196289062 432 313.196289062 432 c 0
 262.196289062 432 229.7890625 407 213.677734375 361 c 1
 42.7353515625 367 l 1
 85.599609375 491 188.002929688 550 334.002929688 550 c 0
 502.002929688 550 571.42578125 473 544.977539062 323 c 2
 515.001953125 153 l 2
 509.182617188 120 519.772460938 112 539.772460938 112 c 2
 552.772460938 112 l 1x3e
 533.0234375 0 l 1
 521.494140625 -3 492.7890625 -7 470.7890625 -7 c 0x5a
 417.7890625 -7 364.962890625 11 363.482421875 82 c 1
 325.254882812 24 255.907226562 -12 158.907226562 -12 c 0
223.65625 100 m 0
 287.65625 100 340.708984375 140 353.581054688 213 c 2
 357.459960938 235 l 1
 249.228515625 211 l 2
 205.641601562 202 178.115234375 182 172.6484375 151 c 0x9e
 167.006835938 119 183.65625 100 223.65625 100 c 0
EndSplineSet
Validated: 33
Substitution2: "'ss02' Style Set 2 in Latin lookup 35 subtable" uni01CE.ss02
Substitution2: "'ss01' Style Set 1 in Latin lookup 34 subtable" uni01CE.ss01
AlternateSubs2: "'aalt' Access All Alternates in Latin lookup 1 subtable" uni01CE.ss01 uni01CE.ss02
EndChar

StartChar: acircumflex
Encoding: 226 226 175
Width: 609
GlyphClass: 2
Flags: HMW
HStem: -12 112<251 274.5> -7 21G<510.5 548> -7 119<510.5 598> 432 118<276.5 327.5> 589 160<124 383 222 241 365 365 365 383 222 481>
VStem: 34 177<135 166.5 135 182.5> 381 172<213 235 235 235>
AnchorPoint: "Anchor-3" 332.888 538 basechar 0
AnchorPoint: "Anchor-2" 533.023 0 basechar 0
AnchorPoint: "Anchor-0" 236.023 0 basechar 0
LayerCount: 2
Fore
SplineSet
162.879882812 589 m 1x9a
 289.092773438 749 l 1
 450.092773438 749 l 1
 519.879882812 589 l 1
 403.879882812 589 l 1
 357.573242188 678 l 1
 279.879882812 589 l 1
 162.879882812 589 l 1x9a
158.907226562 -12 m 0
 45.9072265625 -12 -23.5703125 42 -7.171875 135 c 0
 9.5791015625 230 81.0419921875 278 202.274414062 302 c 2
 375.26953125 336 l 1
 386.377929688 399 364.196289062 432 313.196289062 432 c 0
 262.196289062 432 229.7890625 407 213.677734375 361 c 1
 42.7353515625 367 l 1
 85.599609375 491 188.002929688 550 334.002929688 550 c 0
 502.002929688 550 571.42578125 473 544.977539062 323 c 2
 515.001953125 153 l 2
 509.182617188 120 519.772460938 112 539.772460938 112 c 2
 552.772460938 112 l 1x3e
 533.0234375 0 l 1
 521.494140625 -3 492.7890625 -7 470.7890625 -7 c 0x5a
 417.7890625 -7 364.962890625 11 363.482421875 82 c 1
 325.254882812 24 255.907226562 -12 158.907226562 -12 c 0
223.65625 100 m 0
 287.65625 100 340.708984375 140 353.581054688 213 c 2
 357.459960938 235 l 1
 249.228515625 211 l 2
 205.641601562 202 178.115234375 182 172.6484375 151 c 0x9e
 167.006835938 119 183.65625 100 223.65625 100 c 0
EndSplineSet
Validated: 33
Substitution2: "'ss02' Style Set 2 in Latin lookup 35 subtable" acircumflex.ss02
Substitution2: "'ss01' Style Set 1 in Latin lookup 34 subtable" acircumflex.ss01
AlternateSubs2: "'aalt' Access All Alternates in Latin lookup 1 subtable" acircumflex.ss01 acircumflex.ss02
EndChar

StartChar: adieresis
Encoding: 228 228 176
Width: 609
GlyphClass: 2
Flags: HMW
HStem: -12 112<251 274.5> -7 21G<510.5 548> -7 119<510.5 598> 432 118<276.5 327.5> 595 128<108 269 108 269 336 498 108 336>
VStem: 34 177<135 166.5 135 182.5> 108 161<595 723 595 723> 336 162<595 723 595 723> 381 172<213 235 235 235>
AnchorPoint: "Anchor-3" 335.18 538 basechar 0
AnchorPoint: "Anchor-2" 535.315 0 basechar 0
AnchorPoint: "Anchor-0" 238.315 0 basechar 0
LayerCount: 2
Fore
SplineSet
150.23046875 595 m 1x9b
 172.799804688 723 l 1
 333.799804688 723 l 1
 311.23046875 595 l 1
 150.23046875 595 l 1x9b
378.23046875 595 m 1
 400.799804688 723 l 1
 562.799804688 723 l 1
 540.23046875 595 l 1
 378.23046875 595 l 1
161.200195312 -12 m 0
 48.2001953125 -12 -21.2783203125 42 -4.8798828125 135 c 0
 11.87109375 230 83.3349609375 278 204.56640625 302 c 2
 377.561523438 336 l 1
 388.669921875 399 366.489257812 432 315.489257812 432 c 0
 264.489257812 432 232.081054688 407 215.969726562 361 c 1
 45.02734375 367 l 1
 87.892578125 491 190.295898438 550 336.295898438 550 c 0
 504.295898438 550 573.71875 473 547.26953125 323 c 2
 517.293945312 153 l 2
 511.474609375 120 522.064453125 112 542.064453125 112 c 2
 555.064453125 112 l 1x3c80
 535.315429688 0 l 1
 523.787109375 -3 495.081054688 -7 473.081054688 -7 c 0x5a80
 420.081054688 -7 367.254882812 11 365.774414062 82 c 1
 327.547851562 24 258.200195312 -12 161.200195312 -12 c 0
225.948242188 100 m 0
 289.948242188 100 343.001953125 140 355.873046875 213 c 2
 359.752929688 235 l 1
 251.520507812 211 l 2
 207.93359375 202 180.407226562 182 174.94140625 151 c 0x9c80
 169.298828125 119 185.948242188 100 225.948242188 100 c 0
EndSplineSet
Validated: 33
Substitution2: "'ss08' Style Set 8 in Latin lookup 41 subtable" adieresis.ss08
Substitution2: "'ss02' Style Set 2 in Latin lookup 35 subtable" adieresis.ss02
Substitution2: "'ss01' Style Set 1 in Latin lookup 34 subtable" adieresis.ss01
AlternateSubs2: "'aalt' Access All Alternates in Latin lookup 1 subtable" adieresis.ss01 adieresis.ss02 adieresis.ss08
EndChar

StartChar: agrave
Encoding: 224 224 177
Width: 609
GlyphClass: 2
Flags: HMW
HStem: -12 112<251 274.5> -7 21G<510.5 548> -7 119<510.5 598> 432 118<276.5 327.5> 596 153<249 249 249 322 159 379>
VStem: 34 177<135 166.5 135 182.5> 381 172<213 235 235 235>
AnchorPoint: "Anchor-3" 332.888 538 basechar 0
AnchorPoint: "Anchor-2" 533.023 0 basechar 0
AnchorPoint: "Anchor-0" 236.023 0 basechar 0
LayerCount: 2
Fore
SplineSet
289.114257812 596 m 1x9a
 226.092773438 749 l 1
 389.092773438 749 l 1
 419.114257812 596 l 1
 289.114257812 596 l 1x9a
158.907226562 -12 m 0
 45.9072265625 -12 -23.5703125 42 -7.171875 135 c 0
 9.5791015625 230 81.0419921875 278 202.274414062 302 c 2
 375.26953125 336 l 1
 386.377929688 399 364.196289062 432 313.196289062 432 c 0
 262.196289062 432 229.7890625 407 213.677734375 361 c 1
 42.7353515625 367 l 1
 85.599609375 491 188.002929688 550 334.002929688 550 c 0
 502.002929688 550 571.42578125 473 544.977539062 323 c 2
 515.001953125 153 l 2
 509.182617188 120 519.772460938 112 539.772460938 112 c 2
 552.772460938 112 l 1x3e
 533.0234375 0 l 1
 521.494140625 -3 492.7890625 -7 470.7890625 -7 c 0x5a
 417.7890625 -7 364.962890625 11 363.482421875 82 c 1
 325.254882812 24 255.907226562 -12 158.907226562 -12 c 0
223.65625 100 m 0
 287.65625 100 340.708984375 140 353.581054688 213 c 2
 357.459960938 235 l 1
 249.228515625 211 l 2
 205.641601562 202 178.115234375 182 172.6484375 151 c 0x9e
 167.006835938 119 183.65625 100 223.65625 100 c 0
EndSplineSet
Validated: 33
Substitution2: "'ss02' Style Set 2 in Latin lookup 35 subtable" agrave.ss02
Substitution2: "'ss01' Style Set 1 in Latin lookup 34 subtable" agrave.ss01
AlternateSubs2: "'aalt' Access All Alternates in Latin lookup 1 subtable" agrave.ss01 agrave.ss02
EndChar

StartChar: amacron
Encoding: 257 257 178
Width: 609
GlyphClass: 2
Flags: HMW
HStem: -12 112<251 274.5> -7 21G<510.5 548> -7 119<510.5 598> 432 118<276.5 327.5> 601 122<148 458 148 458>
VStem: 34 177<135 166.5 135 182.5> 148 310<601 723 601 723> 381 172<213 235 235 235>
AnchorPoint: "Anchor-3" 335.18 538 basechar 0
AnchorPoint: "Anchor-2" 535.315 0 basechar 0
AnchorPoint: "Anchor-0" 238.315 0 basechar 0
LayerCount: 2
Fore
SplineSet
191.288085938 601 m 1x9a
 212.799804688 723 l 1
 522.799804688 723 l 1
 501.288085938 601 l 1
 191.288085938 601 l 1x9a
161.200195312 -12 m 0
 48.2001953125 -12 -21.2783203125 42 -4.8798828125 135 c 0
 11.87109375 230 83.3349609375 278 204.56640625 302 c 2
 377.561523438 336 l 1
 388.669921875 399 366.489257812 432 315.489257812 432 c 0
 264.489257812 432 232.081054688 407 215.969726562 361 c 1
 45.02734375 367 l 1
 87.892578125 491 190.295898438 550 336.295898438 550 c 0
 504.295898438 550 573.71875 473 547.26953125 323 c 2
 517.293945312 153 l 2
 511.474609375 120 522.064453125 112 542.064453125 112 c 2
 555.064453125 112 l 1x3d
 535.315429688 0 l 1
 523.787109375 -3 495.081054688 -7 473.081054688 -7 c 0x59
 420.081054688 -7 367.254882812 11 365.774414062 82 c 1
 327.547851562 24 258.200195312 -12 161.200195312 -12 c 0
225.948242188 100 m 0
 289.948242188 100 343.001953125 140 355.873046875 213 c 2
 359.752929688 235 l 1
 251.520507812 211 l 2
 207.93359375 202 180.407226562 182 174.94140625 151 c 0x9d
 169.298828125 119 185.948242188 100 225.948242188 100 c 0
EndSplineSet
Validated: 33
Substitution2: "'ss02' Style Set 2 in Latin lookup 35 subtable" amacron.ss02
Substitution2: "'ss01' Style Set 1 in Latin lookup 34 subtable" amacron.ss01
AlternateSubs2: "'aalt' Access All Alternates in Latin lookup 1 subtable" amacron.ss01 amacron.ss02
EndChar

StartChar: aogonek
Encoding: 261 261 179
Width: 609
GlyphClass: 2
Flags: HMW
HStem: -220 97<484 570.5> -12 21G<169.5 274.5> -12 112<251 274.5> 432 118<276.5 327.5>
VStem: 34 177<135 166.5 135 182.5> 381 172<213 235 235 235> 402 135<-158.5 -90> 402 196<-158.5 112>
AnchorPoint: "Anchor-3" 368.77 538 basechar 0
AnchorPoint: "Anchor-2" 568.906 0 basechar 0
AnchorPoint: "Anchor-0" 271.906 0 basechar 0
LayerCount: 2
Fore
SplineSet
194.790039062 -12 m 0xb4
 81.7900390625 -12 12.3115234375 42 28.7099609375 135 c 0
 45.4609375 230 116.924804688 278 238.157226562 302 c 2
 411.15234375 336 l 1
 422.260742188 399 400.079101562 432 349.079101562 432 c 0
 298.079101562 432 265.670898438 407 249.560546875 361 c 1
 78.6181640625 367 l 1
 121.482421875 491 223.885742188 550 369.885742188 550 c 0
 537.885742188 550 607.30859375 473 580.859375 323 c 2
 550.883789062 153 l 2xbc
 545.065429688 120 555.654296875 112 575.654296875 112 c 2
 588.654296875 112 l 1
 568.90625 0 l 1xd1
 533.381835938 -37 l 2
 511.150390625 -61 493.447265625 -82 490.625976562 -98 c 0
 487.62890625 -115 498.217773438 -123 511.217773438 -123 c 0
 528.217773438 -123 547.275390625 -117 557.509765625 -110 c 1
 571.698242188 -194 l 1
 550.23046875 -208 499.114257812 -220 454.114257812 -220 c 0
 378.114257812 -220 339.756835938 -188 350.16015625 -129 c 0
 357.389648438 -88 387.08984375 -50 416.555664062 -19 c 2
 441.140625 7 l 1xd2
 417.255859375 19 400.48828125 43 399.365234375 82 c 1
 361.137695312 24 291.790039062 -12 194.790039062 -12 c 0xb4
259.5390625 100 m 0
 323.5390625 100 376.591796875 140 389.463867188 213 c 2
 393.342773438 235 l 1
 285.111328125 211 l 2
 241.524414062 202 213.998046875 182 208.53125 151 c 0
 202.888671875 119 219.5390625 100 259.5390625 100 c 0
EndSplineSet
Validated: 33
Substitution2: "'ss02' Style Set 2 in Latin lookup 35 subtable" aogonek.ss02
Substitution2: "'ss01' Style Set 1 in Latin lookup 34 subtable" aogonek.ss01
AlternateSubs2: "'aalt' Access All Alternates in Latin lookup 1 subtable" aogonek.ss01 aogonek.ss02
EndChar

StartChar: aring
Encoding: 229 229 180
Width: 609
GlyphClass: 2
Flags: HMW
HStem: -12 112<251 274.5> -7 21G<510.5 548> -7 119<510.5 598> 432 118<276.5 327.5> 574 70<292.5 313.5 292.5 333> 715 69<292.5 313.5>
VStem: 34 177<135 166.5 135 182.5> 196 71<668.5 689.5 668.5 709> 338 71<668.5 689.5> 381 172<213 235 235 235>
AnchorPoint: "Anchor-3" 329.802 538 basechar 0
AnchorPoint: "Anchor-2" 529.938 0 basechar 0
AnchorPoint: "Anchor-0" 232.938 0 basechar 0
LayerCount: 2
Fore
SplineSet
336.149414062 574 m 0x8d80
 276.149414062 574 237.083984375 619 247.6640625 679 c 0
 258.243164062 739 313.177734375 784 373.177734375 784 c 0
 433.177734375 784 471.243164062 739 460.6640625 679 c 0
 450.083984375 619 396.149414062 574 336.149414062 574 c 0x8d80
348.4921875 644 m 0
 369.4921875 644 385.9609375 658 389.6640625 679 c 0
 393.366210938 700 382.01171875 715 361.01171875 715 c 0
 340.01171875 715 322.366210938 700 318.6640625 679 c 0
 314.9609375 658 327.4921875 644 348.4921875 644 c 0
155.822265625 -12 m 0
 42.822265625 -12 -26.65625 42 -10.2578125 135 c 0
 6.4931640625 230 77.95703125 278 199.188476562 302 c 2
 372.18359375 336 l 1
 383.291992188 399 361.111328125 432 310.111328125 432 c 0
 259.111328125 432 226.703125 407 210.591796875 361 c 1
 39.6494140625 367 l 1
 82.5146484375 491 184.91796875 550 330.91796875 550 c 0
 498.91796875 550 568.340820312 473 541.891601562 323 c 2
 511.916015625 153 l 2
 506.096679688 120 516.686523438 112 536.686523438 112 c 2
 549.686523438 112 l 1x3640
 529.9375 0 l 1
 518.409179688 -3 489.703125 -7 467.703125 -7 c 0x5540
 414.703125 -7 361.876953125 11 360.396484375 82 c 1
 322.169921875 24 252.822265625 -12 155.822265625 -12 c 0
220.5703125 100 m 0
 284.5703125 100 337.624023438 140 350.495117188 213 c 2
 354.375 235 l 1
 246.142578125 211 l 2
 202.555664062 202 175.029296875 182 169.563476562 151 c 0x9640
 163.920898438 119 180.5703125 100 220.5703125 100 c 0
EndSplineSet
Validated: 33
Substitution2: "'ss02' Style Set 2 in Latin lookup 35 subtable" aring.ss02
Substitution2: "'ss01' Style Set 1 in Latin lookup 34 subtable" aring.ss01
AlternateSubs2: "'aalt' Access All Alternates in Latin lookup 1 subtable" aring.ss01 aring.ss02
EndChar

StartChar: atilde
Encoding: 227 227 181
Width: 609
GlyphClass: 2
Flags: HMW
HStem: -12 112<251 274.5> -7 21G<510.5 548> -7 119<510.5 598> 432 118<276.5 327.5> 592 150<205 209 126 258> 597 100<354.5 369.5 354.5 397> 597 152<396 397> 642 100<236.5 251>
VStem: 34 177<135 166.5 135 182.5> 126 83<592 592> 381 172<213 235 235 235> 396 82<749 749>
AnchorPoint: "Anchor-3" 332.888 538 basechar 0
AnchorPoint: "Anchor-2" 533.023 0 basechar 0
AnchorPoint: "Anchor-0" 236.023 0 basechar 0
LayerCount: 2
Fore
SplineSet
398.291015625 597 m 0x9210
 365.291015625 597 348.525390625 604 325.580078125 627 c 0
 314.34375 637 305.225585938 642 293.225585938 642 c 0x9160
 276.225585938 642 258.286132812 631 248.409179688 592 c 1
 165.409179688 592 l 1
 182.278320312 682 233.858398438 742 307.858398438 742 c 0x9860
 339.858398438 742 362.624023438 735 385.745117188 713 c 0
 398.8046875 702 406.923828125 697 417.923828125 697 c 0x9410
 436.923828125 697 452.86328125 708 463.092773438 749 c 1
 545.092773438 749 l 1
 527.694335938 656 476.291015625 597 398.291015625 597 c 0x9210
158.907226562 -12 m 0
 45.9072265625 -12 -23.5703125 42 -7.171875 135 c 0
 9.5791015625 230 81.0419921875 278 202.274414062 302 c 2
 375.26953125 336 l 1
 386.377929688 399 364.196289062 432 313.196289062 432 c 0
 262.196289062 432 229.7890625 407 213.677734375 361 c 1
 42.7353515625 367 l 1
 85.599609375 491 188.002929688 550 334.002929688 550 c 0
 502.002929688 550 571.42578125 473 544.977539062 323 c 2
 515.001953125 153 l 2
 509.182617188 120 519.772460938 112 539.772460938 112 c 2
 552.772460938 112 l 1x38a0
 533.0234375 0 l 1
 521.494140625 -3 492.7890625 -7 470.7890625 -7 c 0x5820
 417.7890625 -7 364.962890625 11 363.482421875 82 c 1
 325.254882812 24 255.907226562 -12 158.907226562 -12 c 0
223.65625 100 m 0
 287.65625 100 340.708984375 140 353.581054688 213 c 2
 357.459960938 235 l 1
 249.228515625 211 l 2
 205.641601562 202 178.115234375 182 172.6484375 151 c 0x98a0
 167.006835938 119 183.65625 100 223.65625 100 c 0
EndSplineSet
Validated: 33
Substitution2: "'ss02' Style Set 2 in Latin lookup 35 subtable" atilde.ss02
Substitution2: "'ss01' Style Set 1 in Latin lookup 34 subtable" atilde.ss01
AlternateSubs2: "'aalt' Access All Alternates in Latin lookup 1 subtable" atilde.ss01 atilde.ss02
EndChar

StartChar: ae
Encoding: 230 230 182
Width: 972
GlyphClass: 2
Flags: HMW
HStem: -12 111 -12 125<638 691 638 733> 224 98<564 764 564 937 564 764> 428 122<637 693.5> 432 118<275.5 326>
VStem: 34 177<133 166.5 133 185.5> 381 183<224 224 224 233 224 233 224 367.5> 764 173<224 322>
AnchorPoint: "Anchor-3" 534.432 538 basechar 0
AnchorPoint: "Anchor-2" 803.092 37 basechar 0
AnchorPoint: "Anchor-0" 439.568 0 basechar 0
LayerCount: 2
Fore
SplineSet
177.452148438 -12 m 0x77
 64.4521484375 -12 -6.37890625 40 10.3720703125 135 c 0
 28.181640625 236 103.939453125 280 219.818359375 302 c 2
 392.4609375 334 l 1
 404.275390625 401 379.741210938 432 329.741210938 432 c 0x6f
 278.741210938 432 244.98046875 405 231.221679688 361 c 1
 60.2802734375 367 l 1
 102.791992188 489 203.547851562 550 349.547851562 550 c 0
 430.547851562 550 490.374023438 532 527.849609375 495 c 1
 580.021484375 530 643.547851562 550 714.547851562 550 c 0
 881.547851562 550 966.623046875 437 934.708007812 256 c 2
 929.065429688 224 l 1
 556.065429688 224 l 1
 544.840820312 149 579.493164062 113 641.493164062 113 c 0
 685.493164062 113 720.490234375 130 741.719726562 171 c 1
 910.95703125 161 l 1
 862.208007812 49 750.452148438 -12 616.452148438 -12 c 0
 519.452148438 -12 447.9765625 25 410.084960938 88 c 1
 357.270507812 21 277.452148438 -12 177.452148438 -12 c 0x77
573.345703125 322 m 1
 773.345703125 322 l 1
 782.864257812 393 750.036132812 428 693.036132812 428 c 0xb7
 637.036132812 428 591.159179688 389 573.345703125 322 c 1
251.024414062 99 m 0
 312.201171875 100 357.548828125 136 370.596679688 210 c 2
 374.65234375 233 l 1
 266.7734375 211 l 2
 223.362304688 203 195.8359375 183 190.016601562 150 c 0
 184.021484375 116 199.671875 97 251.024414062 99 c 0
EndSplineSet
Validated: 33
EndChar

StartChar: b
Encoding: 98 98 183
Width: 647
GlyphClass: 2
Flags: HMW
HStem: -12 127<353 366.5 304 458.5> 0 115<61 366.5> 423 127<354.5 367.5> 690 20G<61 233 233 233>
VStem: 61 167.5 61 172<220.5 318 461 710> 436 177<220 318>
AnchorPoint: "Anchor-3" 358.326 538 basechar 0
AnchorPoint: "Anchor-1" 147.894 269 basechar 0
AnchorPoint: "Anchor-0" 263.462 0 basechar 0
LayerCount: 2
Fore
SplineSet
327.345703125 -12 m 0xb6
 251.345703125 -12 202.165039062 21 182.215820312 78 c 1
 165.461914062 0 l 1x7a
 -0.5380859375 0 l 1x76
 124.654296875 710 l 1
 296.654296875 710 l 1
 252.749023438 461 l 1
 290.91796875 513 353.44140625 550 426.44140625 550 c 0
 561.44140625 550 628.869140625 439 598.893554688 269 c 0
 568.91796875 99 462.345703125 -12 327.345703125 -12 c 0xb6
295.739257812 115 m 0
 354.739257812 115 404.614257812 171 421.893554688 269 c 0
 439.173828125 367 410.047851562 423 351.047851562 423 c 0
 284.047851562 423 236.173828125 367 218.893554688 269 c 0xb6
 201.790039062 172 229.739257812 115 295.739257812 115 c 0
EndSplineSet
Validated: 33
EndChar

StartChar: c
Encoding: 99 99 184
Width: 615
GlyphClass: 2
Flags: HMW
HStem: -12 127<283 343 283 393.5> 422 128<283 343>
VStem: 34 177<220 317.5 220 353.5>
AnchorPoint: "Anchor-3" 364.432 538 basechar 0
AnchorPoint: "Anchor-0" 269.568 0 basechar 0
LayerCount: 2
Fore
SplineSet
267.452148438 -12 m 0
 96.4521484375 -12 4.0244140625 99 34 269 c 0
 63.798828125 438 195.547851562 550 366.547851562 550 c 0
 515.547851562 550 611.088867188 468 601.108398438 332 c 1
 423.698242188 324 l 1
 426.159179688 389 395.978515625 422 343.978515625 422 c 0
 275.978515625 422 228.103515625 366 211 269 c 0
 193.719726562 171 221.845703125 115 289.845703125 115 c 0
 341.845703125 115 384.48828125 147 405.006835938 218 c 1
 579.94921875 212 l 1
 542.616210938 74 420.452148438 -12 267.452148438 -12 c 0
EndSplineSet
Validated: 33
EndChar

